<svg width="300" height="200" viewBox="0 0 300 200" fill="none" xmlns="http://www.w3.org/2000/svg">
<path d="M27.7578 167.87C27.7578 172.667 29.6483 177.21 33.0632 180.625C36.4781 184.041 41.0212 185.932 45.8197 185.932H253.536C258.332 185.932 262.877 184.041 266.292 180.625C269.707 177.21 271.597 172.666 271.597 167.87V32.4308C271.597 27.6323 269.707 23.0893 266.292 19.6744C262.876 16.2595 258.332 14.369 253.536 14.369H45.8197C41.0212 14.369 36.4781 16.2595 33.0632 19.6744C29.6483 23.0893 27.7578 27.6323 27.7578 32.4308V167.87Z" fill="#7A4A00"/>
<path d="M23.2832 31.1058V169.195C23.9754 181.002 33.8461 190.447 45.8186 190.447H253.535C265.952 190.447 276.112 180.287 276.112 167.87V32.4308C276.112 20.0134 265.952 9.85306 253.535 9.85306H45.8186C33.8461 9.85306 23.9754 19.2994 23.2832 31.1058ZM45.8186 14.369H253.535C258.331 14.369 262.876 16.2595 266.291 19.6744C269.706 23.0893 271.596 27.6323 271.596 32.4308V167.87C271.596 172.667 269.706 177.21 266.291 180.625C262.875 184.041 258.331 185.932 253.535 185.932H45.8186C41.0201 185.932 36.4771 184.041 33.0622 180.625C29.6473 177.21 27.7568 172.666 27.7568 167.87V32.4308C27.7568 27.6323 29.6473 23.0893 33.0622 19.6744C36.4771 16.2595 41.0201 14.369 45.8186 14.369Z" fill="#F7D774"/>
<path d="M253.448 179.779H44.8865C38.6787 179.779 33.5977 174.7 33.5977 168.49V32.6569C33.5977 26.4474 38.6787 21.3681 44.8865 21.3681H253.449C259.658 21.3681 264.738 26.4474 264.738 32.6569V168.49C264.737 174.699 259.657 179.779 253.448 179.779Z" fill="url(#paint0_linear_17_18)"/>
<mask id="path-4-outside-1_17_18" maskUnits="userSpaceOnUse" x="45" y="51" width="203" height="102" fill="black">
<rect fill="white" x="45" y="51" width="203" height="102"/>
<path d="M142.7 68.4L141.7 76.9H114.9L111.2 87.2H143.3L142.2 96H107.7C106.767 98.5333 105.6 101.4 104.2 104.6H130.2C131.8 104.6 133.133 104.867 134.2 105.4C135.267 105.933 136.033 106.7 136.5 107.7C136.767 108.3 136.9 109.067 136.9 110C136.9 111.467 136.4 113 135.4 114.6C131.2 120.8 126.733 126.433 122 131.5L135.5 136.4L134.2 145.7L91.6 130.1L92.8 120.8L112.7 128.1C117.767 122.9 121.967 117.9 125.3 113.1H99.8C97.6 113.1 95.9333 112.667 94.8 111.8C93.6667 110.933 93.1 109.767 93.1 108.3C93.1 107.167 93.4 105.967 94 104.7L95.9 100.4L97.7 96H85.1L86.1 87.2H101.1C101.9 84.9333 102.533 83.2333 103 82.1L104.8 76.9H90L91 68.4H107.7L111.2 57.4H121.3C119.967 61.7333 118.8 65.4 117.8 68.4H142.7ZM91.9 57.5C87.9 65.0333 84.8 70.6667 82.6 74.4L74.9 143.4H65.1L70.8 94.5L65.9 102.3H54.6C65.2 86.5667 73.8 71.6333 80.4 57.5H91.9ZM238.5 107.1H226.2L223.5 131.8V132.2C223.5 133.067 223.967 133.5 224.9 133.5H230.4C234.933 133.233 238.833 132.367 242.1 130.9L241.1 140.9C240.033 141.3 238.667 141.633 237 141.9C235.267 142.233 232.733 142.467 229.4 142.6H220.4C218.2 142.6 216.5 142.033 215.3 140.9C214.167 139.833 213.6 138.267 213.6 136.2C213.6 135.8 213.667 135.133 213.8 134.2L216.8 107.1H208C206.6 115.3 204.3 122.367 201.1 128.3C197.967 134.233 193.8 139.467 188.6 144L179.5 139.8C184.767 135.333 188.933 130.567 192 125.5C195.067 120.433 197.233 114.3 198.5 107.1H187L190.4 78.8C190.733 76.6667 191.633 74.9667 193.1 73.7C194.567 72.3667 196.4 71.7 198.6 71.7H201.2L198.5 57.6H207.8L210.5 71.7H221.6L226.7 57.7H236.8L231.1 71.7H233.7C236.367 71.7 238.4 72.5333 239.8 74.2C241.267 75.8667 241.833 78.1333 241.5 81L238.5 107.1ZM166.3 58.4L185.6 66.7L184.2 76.5L165 68.2L166.3 58.4ZM231.9 80.6H200L197.9 98.3H229.7L231.9 80.6ZM174.8 123.3C174.6 124.167 174.767 124.6 175.3 124.6C175.633 124.6 176.6 124.1 178.2 123.1L184.1 119.5L186.4 118L187.6 127.4C186.733 128 184.767 129.233 181.7 131.1L175.8 134.6C173.667 135.733 171.8 136.3 170.2 136.3C169 136.3 168 136 167.2 135.4C165.6 134.267 164.8 132.367 164.8 129.7C164.8 128.9 164.833 128.267 164.9 127.8L169.5 91.6H158.4L159.5 82.6H174C175.933 82.6 177.333 83.2 178.2 84.4C179.133 85.6 179.5 87.1667 179.3 89.1L174.8 123.3Z"/>
</mask>
<path d="M142.7 68.4L141.7 76.9H114.9L111.2 87.2H143.3L142.2 96H107.7C106.767 98.5333 105.6 101.4 104.2 104.6H130.2C131.8 104.6 133.133 104.867 134.2 105.4C135.267 105.933 136.033 106.7 136.5 107.7C136.767 108.3 136.9 109.067 136.9 110C136.9 111.467 136.4 113 135.4 114.6C131.2 120.8 126.733 126.433 122 131.5L135.5 136.4L134.2 145.7L91.6 130.1L92.8 120.8L112.7 128.1C117.767 122.9 121.967 117.9 125.3 113.1H99.8C97.6 113.1 95.9333 112.667 94.8 111.8C93.6667 110.933 93.1 109.767 93.1 108.3C93.1 107.167 93.4 105.967 94 104.7L95.9 100.4L97.7 96H85.1L86.1 87.2H101.1C101.9 84.9333 102.533 83.2333 103 82.1L104.8 76.9H90L91 68.4H107.7L111.2 57.4H121.3C119.967 61.7333 118.8 65.4 117.8 68.4H142.7ZM91.9 57.5C87.9 65.0333 84.8 70.6667 82.6 74.4L74.9 143.4H65.1L70.8 94.5L65.9 102.3H54.6C65.2 86.5667 73.8 71.6333 80.4 57.5H91.9ZM238.5 107.1H226.2L223.5 131.8V132.2C223.5 133.067 223.967 133.5 224.9 133.5H230.4C234.933 133.233 238.833 132.367 242.1 130.9L241.1 140.9C240.033 141.3 238.667 141.633 237 141.9C235.267 142.233 232.733 142.467 229.4 142.6H220.4C218.2 142.6 216.5 142.033 215.3 140.9C214.167 139.833 213.6 138.267 213.6 136.2C213.6 135.8 213.667 135.133 213.8 134.2L216.8 107.1H208C206.6 115.3 204.3 122.367 201.1 128.3C197.967 134.233 193.8 139.467 188.6 144L179.5 139.8C184.767 135.333 188.933 130.567 192 125.5C195.067 120.433 197.233 114.3 198.5 107.1H187L190.4 78.8C190.733 76.6667 191.633 74.9667 193.1 73.7C194.567 72.3667 196.4 71.7 198.6 71.7H201.2L198.5 57.6H207.8L210.5 71.7H221.6L226.7 57.7H236.8L231.1 71.7H233.7C236.367 71.7 238.4 72.5333 239.8 74.2C241.267 75.8667 241.833 78.1333 241.5 81L238.5 107.1ZM166.3 58.4L185.6 66.7L184.2 76.5L165 68.2L166.3 58.4ZM231.9 80.6H200L197.9 98.3H229.7L231.9 80.6ZM174.8 123.3C174.6 124.167 174.767 124.6 175.3 124.6C175.633 124.6 176.6 124.1 178.2 123.1L184.1 119.5L186.4 118L187.6 127.4C186.733 128 184.767 129.233 181.7 131.1L175.8 134.6C173.667 135.733 171.8 136.3 170.2 136.3C169 136.3 168 136 167.2 135.4C165.6 134.267 164.8 132.367 164.8 129.7C164.8 128.9 164.833 128.267 164.9 127.8L169.5 91.6H158.4L159.5 82.6H174C175.933 82.6 177.333 83.2 178.2 84.4C179.133 85.6 179.5 87.1667 179.3 89.1L174.8 123.3Z" fill="#FFD86A"/>
<path d="M142.7 68.4L147.666 68.9842L148.323 63.4H142.7V68.4ZM141.7 76.9V81.9H146.146L146.666 77.4842L141.7 76.9ZM114.9 76.9V71.9H111.383L110.194 75.2096L114.9 76.9ZM111.2 87.2L106.494 85.5096L104.091 92.2H111.2V87.2ZM143.3 87.2L148.261 87.8202L148.964 82.2H143.3V87.2ZM142.2 96V101H146.614L147.161 96.6202L142.2 96ZM107.7 96V91H104.214L103.008 94.2715L107.7 96ZM104.2 104.6L99.6192 102.596L96.5549 109.6H104.2V104.6ZM134.2 105.4L136.436 100.928L136.436 100.928L134.2 105.4ZM136.5 107.7L141.069 105.669L141.05 105.627L141.031 105.586L136.5 107.7ZM135.4 114.6L139.54 117.404L139.591 117.328L139.64 117.25L135.4 114.6ZM122 131.5L118.346 128.087L113.179 133.618L120.294 136.2L122 131.5ZM135.5 136.4L140.452 137.092L141.012 133.082L137.206 131.7L135.5 136.4ZM134.2 145.7L132.481 150.395L138.295 152.524L139.152 146.392L134.2 145.7ZM91.6 130.1L86.6411 129.46L86.13 133.422L89.8807 134.795L91.6 130.1ZM92.8 120.8L94.522 116.106L88.6425 113.949L87.8411 120.16L92.8 120.8ZM112.7 128.1L110.978 132.794L114.02 133.91L116.281 131.589L112.7 128.1ZM125.3 113.1L129.407 115.952L134.86 108.1H125.3V113.1ZM94.8 111.8L91.7627 115.772H91.7628L94.8 111.8ZM94 104.7L98.5187 106.84L98.5469 106.781L98.5734 106.721L94 104.7ZM95.9 100.4L100.473 102.421L100.501 102.357L100.528 102.293L95.9 100.4ZM97.7 96L102.328 97.8932L105.148 91H97.7V96ZM85.1 96L80.132 95.4355L79.4996 101H85.1V96ZM86.1 87.2V82.2H81.636L81.132 86.6354L86.1 87.2ZM101.1 87.2V92.2H104.638L105.815 88.8641L101.1 87.2ZM103 82.1L107.623 84.0037L107.678 83.8711L107.725 83.7355L103 82.1ZM104.8 76.9L109.525 78.5356L111.822 71.9H104.8V76.9ZM90 76.9L85.0342 76.3158L84.3773 81.9H90V76.9ZM91 68.4V63.4H86.5538L86.0342 67.8158L91 68.4ZM107.7 68.4V73.4H111.356L112.465 69.916L107.7 68.4ZM111.2 57.4V52.4H107.544L106.435 55.884L111.2 57.4ZM121.3 57.4L126.079 58.8704L128.07 52.4H121.3V57.4ZM117.8 68.4L113.057 66.8189L110.863 73.4H117.8V68.4ZM91.9 57.5L96.3161 59.8448L100.216 52.5H91.9V57.5ZM82.6 74.4L78.2923 71.8615L77.7494 72.7828L77.6308 73.8455L82.6 74.4ZM74.9 143.4V148.4H79.3731L79.8692 143.955L74.9 143.4ZM65.1 143.4L60.1336 142.821L59.4833 148.4H65.1V143.4ZM70.8 94.5L75.7664 95.0789L66.5661 91.8403L70.8 94.5ZM65.9 102.3V107.3H68.6637L70.1339 104.96L65.9 102.3ZM54.6 102.3L50.4533 99.5063L45.2024 107.3H54.6V102.3ZM80.4 57.5V52.5H77.2166L75.8696 55.3844L80.4 57.5ZM142.7 68.4L137.734 67.8158L136.734 76.3158L141.7 76.9L146.666 77.4842L147.666 68.9842L142.7 68.4ZM141.7 76.9V71.9H114.9V76.9V81.9H141.7V76.9ZM114.9 76.9L110.194 75.2096L106.494 85.5096L111.2 87.2L115.906 88.8904L119.606 78.5904L114.9 76.9ZM111.2 87.2V92.2H143.3V87.2V82.2H111.2V87.2ZM143.3 87.2L138.339 86.5798L137.239 95.3798L142.2 96L147.161 96.6202L148.261 87.8202L143.3 87.2ZM142.2 96V91H107.7V96V101H142.2V96ZM107.7 96L103.008 94.2715C102.117 96.6896 100.99 99.4619 99.6192 102.596L104.2 104.6L108.781 106.604C110.21 103.338 111.416 100.377 112.392 97.7285L107.7 96ZM104.2 104.6V109.6H130.2V104.6V99.6H104.2V104.6ZM130.2 104.6V109.6C131.277 109.6 131.787 109.784 131.964 109.872L134.2 105.4L136.436 100.928C134.48 99.9496 132.323 99.6 130.2 99.6V104.6ZM134.2 105.4L131.964 109.872C132.016 109.898 132.043 109.916 132.052 109.922C132.06 109.928 132.054 109.925 132.039 109.911C132.025 109.896 132.009 109.877 131.994 109.856C131.979 109.835 131.971 109.819 131.969 109.814L136.5 107.7L141.031 105.586C140.048 103.479 138.425 101.922 136.436 100.928L134.2 105.4ZM136.5 107.7L131.931 109.731C131.87 109.594 131.865 109.531 131.874 109.582C131.883 109.633 131.9 109.766 131.9 110H136.9H141.9C141.9 108.641 141.713 107.118 141.069 105.669L136.5 107.7ZM136.9 110H131.9C131.9 110.296 131.804 110.92 131.16 111.95L135.4 114.6L139.64 117.25C140.996 115.08 141.9 112.637 141.9 110H136.9ZM135.4 114.6L131.26 111.796C127.195 117.797 122.889 123.225 118.346 128.087L122 131.5L125.654 134.913C130.578 129.642 135.205 123.803 139.54 117.404L135.4 114.6ZM122 131.5L120.294 136.2L133.794 141.1L135.5 136.4L137.206 131.7L123.706 126.8L122 131.5ZM135.5 136.4L130.548 135.708L129.248 145.008L134.2 145.7L139.152 146.392L140.452 137.092L135.5 136.4ZM134.2 145.7L135.919 141.005L93.3193 125.405L91.6 130.1L89.8807 134.795L132.481 150.395L134.2 145.7ZM91.6 130.1L96.5589 130.74L97.7589 121.44L92.8 120.8L87.8411 120.16L86.6411 129.46L91.6 130.1ZM92.8 120.8L91.078 125.494L110.978 132.794L112.7 128.1L114.422 123.406L94.522 116.106L92.8 120.8ZM112.7 128.1L116.281 131.589C121.496 126.237 125.884 121.025 129.407 115.952L125.3 113.1L121.193 110.248C118.05 114.775 114.037 119.563 109.119 124.611L112.7 128.1ZM125.3 113.1V108.1H99.8V113.1V118.1H125.3V113.1ZM99.8 113.1V108.1C99.0134 108.1 98.4855 108.021 98.1582 107.936C97.8392 107.853 97.7771 107.782 97.8372 107.828L94.8 111.8L91.7628 115.772C94.1278 117.58 97.0628 118.1 99.8 118.1V113.1ZM94.8 111.8L97.8373 107.828C97.8253 107.819 97.8502 107.836 97.8922 107.887C97.9354 107.938 97.9823 108.008 98.0225 108.09C98.1108 108.272 98.1 108.376 98.1 108.3H93.1H88.1C88.1 111.273 89.3523 113.929 91.7627 115.772L94.8 111.8ZM93.1 108.3H98.1C98.1 108.061 98.1623 107.593 98.5187 106.84L94 104.7L89.4813 102.56C88.6377 104.341 88.1 106.272 88.1 108.3H93.1ZM94 104.7L98.5734 106.721L100.473 102.421L95.9 100.4L91.3266 98.3792L89.4266 102.679L94 104.7ZM95.9 100.4L100.528 102.293L102.328 97.8932L97.7 96L93.0723 94.1068L91.2723 98.5068L95.9 100.4ZM97.7 96V91H85.1V96V101H97.7V96ZM85.1 96L90.068 96.5645L91.068 87.7645L86.1 87.2L81.132 86.6354L80.132 95.4355L85.1 96ZM86.1 87.2V92.2H101.1V87.2V82.2H86.1V87.2ZM101.1 87.2L105.815 88.8641C106.608 86.6172 107.207 85.015 107.623 84.0037L103 82.1L98.3766 80.1962C97.8597 81.4517 97.192 83.2495 96.3851 85.5359L101.1 87.2ZM103 82.1L107.725 83.7355L109.525 78.5356L104.8 76.9L100.075 75.2644L98.2751 80.4644L103 82.1ZM104.8 76.9V71.9H90V76.9V81.9H104.8V76.9ZM90 76.9L94.9658 77.4842L95.9658 68.9842L91 68.4L86.0342 67.8158L85.0342 76.3158L90 76.9ZM91 68.4V73.4H107.7V68.4V63.4H91V68.4ZM107.7 68.4L112.465 69.916L115.965 58.916L111.2 57.4L106.435 55.884L102.935 66.884L107.7 68.4ZM111.2 57.4V62.4H121.3V57.4V52.4H111.2V57.4ZM121.3 57.4L116.521 55.9296C115.195 60.2402 114.04 63.8676 113.057 66.8189L117.8 68.4L122.543 69.9811C123.56 66.9324 124.739 63.2264 126.079 58.8704L121.3 57.4ZM117.8 68.4V73.4H142.7V68.4V63.4H117.8V68.4ZM91.9 57.5L87.4839 55.1552C83.4923 62.6728 80.4342 68.2267 78.2923 71.8615L82.6 74.4L86.9077 76.9385C89.1658 73.1066 92.3077 67.3939 96.3161 59.8448L91.9 57.5ZM82.6 74.4L77.6308 73.8455L69.9308 142.845L74.9 143.4L79.8692 143.955L87.5692 74.9545L82.6 74.4ZM74.9 143.4V138.4H65.1V143.4V148.4H74.9V143.4ZM65.1 143.4L70.0664 143.979L75.7664 95.0789L70.8 94.5L65.8336 93.9211L60.1336 142.821L65.1 143.4ZM70.8 94.5L66.5661 91.8403L61.6661 99.6403L65.9 102.3L70.1339 104.96L75.0339 97.1597L70.8 94.5ZM65.9 102.3V97.3H54.6V102.3V107.3H65.9V102.3ZM54.6 102.3L58.7467 105.094C69.4622 89.189 78.1998 74.0286 84.9304 59.6156L80.4 57.5L75.8696 55.3844C69.4002 69.2381 60.9379 83.9443 50.4533 99.5063L54.6 102.3ZM80.4 57.5V62.5H91.9V57.5V52.5H80.4V57.5ZM238.5 107.1V112.1H242.958L243.467 107.671L238.5 107.1ZM226.2 107.1V102.1H221.717L221.23 106.557L226.2 107.1ZM223.5 131.8L218.53 131.257L218.5 131.528V131.8H223.5ZM230.4 133.5V138.5H230.547L230.694 138.491L230.4 133.5ZM242.1 130.9L247.075 131.398L247.935 122.799L240.052 126.339L242.1 130.9ZM241.1 140.9L242.856 145.582L245.766 144.49L246.075 141.398L241.1 140.9ZM237 141.9L236.21 136.963L236.133 136.975L236.056 136.99L237 141.9ZM229.4 142.6V147.6H229.5L229.6 147.596L229.4 142.6ZM215.3 140.9L218.733 137.265L218.727 137.259L215.3 140.9ZM213.8 134.2L218.75 134.907L218.761 134.829L218.77 134.75L213.8 134.2ZM216.8 107.1L221.77 107.65L222.384 102.1H216.8V107.1ZM208 107.1V102.1H203.781L203.071 106.259L208 107.1ZM201.1 128.3L196.699 125.927L196.689 125.946L196.679 125.965L201.1 128.3ZM188.6 144L186.505 148.54L189.445 149.897L191.886 147.769L188.6 144ZM179.5 139.8L176.266 135.987L170.289 141.056L177.405 144.34L179.5 139.8ZM192 125.5L196.277 128.089L192 125.5ZM198.5 107.1L203.424 107.966L204.456 102.1H198.5V107.1ZM187 107.1L182.036 106.504L181.363 112.1H187V107.1ZM190.4 78.8L185.46 78.0281L185.446 78.1156L185.436 78.2036L190.4 78.8ZM193.1 73.7L196.368 77.4841L196.416 77.4425L196.463 77.3997L193.1 73.7ZM201.2 71.7V76.7H207.248L206.111 70.7596L201.2 71.7ZM198.5 57.6V52.6H192.452L193.589 58.5404L198.5 57.6ZM207.8 57.6L212.711 56.6596L211.933 52.6H207.8V57.6ZM210.5 71.7L205.589 72.6404L206.367 76.7H210.5V71.7ZM221.6 71.7V76.7H225.1L226.298 73.4114L221.6 71.7ZM226.7 57.7V52.7H223.2L222.002 55.9886L226.7 57.7ZM236.8 57.7L241.431 59.5854L244.234 52.7H236.8V57.7ZM231.1 71.7L226.469 69.8146L223.666 76.7H231.1V71.7ZM239.8 74.2L235.971 77.416L236.008 77.46L236.046 77.5031L239.8 74.2ZM241.5 81L236.533 80.4225L236.533 80.429L241.5 81ZM166.3 58.4L168.275 53.8067L162.211 51.1989L161.343 57.7425L166.3 58.4ZM185.6 66.7L190.55 67.4071L191.091 63.6186L187.575 62.1067L185.6 66.7ZM184.2 76.5L182.216 81.0895L188.224 83.6868L189.15 77.2071L184.2 76.5ZM165 68.2L160.043 67.5425L159.546 71.2896L163.016 72.7895L165 68.2ZM231.9 80.6L236.862 81.2167L237.56 75.6H231.9V80.6ZM200 80.6V75.6H195.558L195.035 80.0109L200 80.6ZM197.9 98.3L192.935 97.7109L192.272 103.3H197.9V98.3ZM229.7 98.3V103.3H234.117L234.662 98.9167L229.7 98.3ZM174.8 123.3L179.672 124.424L179.726 124.19L179.757 123.952L174.8 123.3ZM178.2 123.1L175.596 118.832L175.573 118.846L175.55 118.86L178.2 123.1ZM184.1 119.5L186.704 123.768L186.768 123.729L186.831 123.688L184.1 119.5ZM186.4 118L191.36 117.367L190.35 109.455L183.669 113.812L186.4 118ZM187.6 127.4L190.446 131.511L192.945 129.781L192.56 126.767L187.6 127.4ZM181.7 131.1L184.251 135.4L184.275 135.386L184.3 135.371L181.7 131.1ZM175.8 134.6L178.146 139.016L178.25 138.96L178.351 138.9L175.8 134.6ZM167.2 135.4L170.2 131.4L170.146 131.359L170.09 131.32L167.2 135.4ZM164.9 127.8L169.85 128.507L169.855 128.469L169.86 128.43L164.9 127.8ZM169.5 91.6L174.46 92.2303L175.176 86.6H169.5V91.6ZM158.4 91.6L153.437 90.9934L152.752 96.6H158.4V91.6ZM159.5 82.6V77.6H155.074L154.537 81.9934L159.5 82.6ZM178.2 84.4L174.147 87.3274L174.199 87.3995L174.253 87.4697L178.2 84.4ZM179.3 89.1L184.257 89.7523L184.266 89.6835L184.273 89.6145L179.3 89.1ZM238.5 107.1V102.1H226.2V107.1V112.1H238.5V107.1ZM226.2 107.1L221.23 106.557L218.53 131.257L223.5 131.8L228.47 132.343L231.17 107.643L226.2 107.1ZM223.5 131.8H218.5V132.2H223.5H228.5V131.8H223.5ZM223.5 132.2H218.5C218.5 133.503 218.868 135.372 220.448 136.839C221.957 138.241 223.751 138.5 224.9 138.5V133.5V128.5C225.116 128.5 226.209 128.543 227.252 129.511C228.365 130.544 228.5 131.764 228.5 132.2H223.5ZM224.9 133.5V138.5H230.4V133.5V128.5H224.9V133.5ZM230.4 133.5L230.694 138.491C235.677 138.198 240.201 137.233 244.148 135.461L242.1 130.9L240.052 126.339C237.466 127.5 234.189 128.268 230.106 128.509L230.4 133.5ZM242.1 130.9L237.125 130.402L236.125 140.402L241.1 140.9L246.075 141.398L247.075 131.398L242.1 130.9ZM241.1 140.9L239.344 136.218C238.701 136.46 237.688 136.726 236.21 136.963L237 141.9L237.79 146.837C239.645 146.54 241.366 146.14 242.856 145.582L241.1 140.9ZM237 141.9L236.056 136.99C234.697 137.251 232.462 137.474 229.2 137.604L229.4 142.6L229.6 147.596C233.005 147.46 235.837 147.215 237.944 146.81L237 141.9ZM229.4 142.6V137.6H220.4V142.6V147.6H229.4V142.6ZM220.4 142.6V137.6C219.72 137.6 219.295 137.511 219.056 137.432C218.837 137.358 218.76 137.29 218.733 137.265L215.3 140.9L211.867 144.535C214.269 146.804 217.359 147.6 220.4 147.6V142.6ZM215.3 140.9L218.727 137.259C218.771 137.301 218.763 137.323 218.727 137.224C218.682 137.1 218.6 136.788 218.6 136.2H213.6H208.6C208.6 139.173 209.437 142.248 211.873 144.541L215.3 140.9ZM213.6 136.2H218.6C218.6 136.24 218.599 136.16 218.625 135.898C218.649 135.656 218.689 135.33 218.75 134.907L213.8 134.2L208.85 133.493C208.716 134.432 208.6 135.41 208.6 136.2H213.6ZM213.8 134.2L218.77 134.75L221.77 107.65L216.8 107.1L211.83 106.55L208.83 133.65L213.8 134.2ZM216.8 107.1V102.1H208V107.1V112.1H216.8V107.1ZM208 107.1L203.071 106.259C201.742 114.043 199.589 120.569 196.699 125.927L201.1 128.3L205.501 130.673C209.011 124.165 211.458 116.557 212.929 107.941L208 107.1ZM201.1 128.3L196.679 125.965C193.841 131.339 190.064 136.09 185.314 140.231L188.6 144L191.886 147.769C197.536 142.843 202.093 137.127 205.521 130.635L201.1 128.3ZM188.6 144L190.695 139.46L181.595 135.26L179.5 139.8L177.405 144.34L186.505 148.54L188.6 144ZM179.5 139.8L182.734 143.613C188.346 138.854 192.889 133.687 196.277 128.089L192 125.5L187.723 122.911C184.977 127.447 181.188 131.812 176.266 135.987L179.5 139.8ZM192 125.5L196.277 128.089C199.73 122.385 202.075 115.638 203.424 107.966L198.5 107.1L193.576 106.234C192.392 112.962 190.403 118.482 187.723 122.911L192 125.5ZM198.5 107.1V102.1H187V107.1V112.1H198.5V107.1ZM187 107.1L191.964 107.696L195.364 79.3964L190.4 78.8L185.436 78.2036L182.036 106.504L187 107.1ZM190.4 78.8L195.34 79.5719C195.513 78.4662 195.902 77.887 196.368 77.4841L193.1 73.7L189.832 69.9159C187.365 72.0464 185.954 74.8671 185.46 78.0281L190.4 78.8ZM193.1 73.7L196.463 77.3997C196.906 76.9973 197.496 76.7 198.6 76.7V71.7V66.7C195.304 66.7 192.227 67.736 189.737 70.0003L193.1 73.7ZM198.6 71.7V76.7H201.2V71.7V66.7H198.6V71.7ZM201.2 71.7L206.111 70.7596L203.411 56.6596L198.5 57.6L193.589 58.5404L196.289 72.6404L201.2 71.7ZM198.5 57.6V62.6H207.8V57.6V52.6H198.5V57.6ZM207.8 57.6L202.889 58.5404L205.589 72.6404L210.5 71.7L215.411 70.7596L212.711 56.6596L207.8 57.6ZM210.5 71.7V76.7H221.6V71.7V66.7H210.5V71.7ZM221.6 71.7L226.298 73.4114L231.398 59.4114L226.7 57.7L222.002 55.9886L216.902 69.9886L221.6 71.7ZM226.7 57.7V62.7H236.8V57.7V52.7H226.7V57.7ZM236.8 57.7L232.169 55.8146L226.469 69.8146L231.1 71.7L235.731 73.5854L241.431 59.5854L236.8 57.7ZM231.1 71.7V76.7H233.7V71.7V66.7H231.1V71.7ZM233.7 71.7V76.7C235.254 76.7 235.733 77.1321 235.971 77.416L239.8 74.2L243.629 70.984C241.067 67.9346 237.48 66.7 233.7 66.7V71.7ZM239.8 74.2L236.046 77.5031C236.316 77.8098 236.755 78.5155 236.533 80.4225L241.5 81L246.467 81.5775C246.911 77.7512 246.217 73.9236 243.554 70.8969L239.8 74.2ZM241.5 81L236.533 80.429L233.533 106.529L238.5 107.1L243.467 107.671L246.467 81.571L241.5 81ZM166.3 58.4L164.325 62.9933L183.625 71.2933L185.6 66.7L187.575 62.1067L168.275 53.8067L166.3 58.4ZM185.6 66.7L180.65 65.9929L179.25 75.7929L184.2 76.5L189.15 77.2071L190.55 67.4071L185.6 66.7ZM184.2 76.5L186.184 71.9105L166.984 63.6105L165 68.2L163.016 72.7895L182.216 81.0895L184.2 76.5ZM165 68.2L169.957 68.8575L171.257 59.0575L166.3 58.4L161.343 57.7425L160.043 67.5425L165 68.2ZM231.9 80.6V75.6H200V80.6V85.6H231.9V80.6ZM200 80.6L195.035 80.0109L192.935 97.7109L197.9 98.3L202.865 98.8891L204.965 81.1891L200 80.6ZM197.9 98.3V103.3H229.7V98.3V93.3H197.9V98.3ZM229.7 98.3L234.662 98.9167L236.862 81.2167L231.9 80.6L226.938 79.9833L224.738 97.6833L229.7 98.3ZM174.8 123.3L169.928 122.176C169.777 122.829 169.465 124.397 170.108 126.07C170.489 127.06 171.204 128.069 172.337 128.77C173.417 129.439 174.507 129.6 175.3 129.6V124.6V119.6C175.826 119.6 176.696 119.707 177.601 120.267C178.559 120.861 179.144 121.706 179.442 122.48C179.71 123.178 179.724 123.747 179.717 123.997C179.713 124.14 179.701 124.247 179.692 124.312C179.683 124.377 179.674 124.416 179.672 124.424L174.8 123.3ZM175.3 124.6V129.6C176.362 129.6 177.215 129.269 177.464 129.173C177.865 129.019 178.247 128.834 178.572 128.666C179.232 128.325 180.005 127.868 180.85 127.34L178.2 123.1L175.55 118.86C174.795 119.332 174.285 119.625 173.978 119.784C173.82 119.866 173.798 119.869 173.874 119.84C173.914 119.824 174.038 119.778 174.223 119.731C174.319 119.706 174.454 119.676 174.621 119.651C174.784 119.626 175.017 119.6 175.3 119.6V124.6ZM178.2 123.1L180.804 127.368L186.704 123.768L184.1 119.5L181.496 115.232L175.596 118.832L178.2 123.1ZM184.1 119.5L186.831 123.688L189.131 122.188L186.4 118L183.669 113.812L181.369 115.312L184.1 119.5ZM186.4 118L181.44 118.633L182.64 128.033L187.6 127.4L192.56 126.767L191.36 117.367L186.4 118ZM187.6 127.4L184.754 123.289C184.032 123.789 182.2 124.942 179.1 126.829L181.7 131.1L184.3 135.371C187.334 133.524 189.435 132.211 190.446 131.511L187.6 127.4ZM181.7 131.1L179.149 126.8L173.249 130.3L175.8 134.6L178.351 138.9L184.251 135.4L181.7 131.1ZM175.8 134.6L173.454 130.184C171.705 131.113 170.67 131.3 170.2 131.3V136.3V141.3C172.93 141.3 175.628 140.353 178.146 139.016L175.8 134.6ZM170.2 136.3V131.3C170.016 131.3 169.957 131.277 169.987 131.286C170.001 131.29 170.032 131.301 170.074 131.322C170.115 131.342 170.159 131.369 170.2 131.4L167.2 135.4L164.2 139.4C166.028 140.771 168.141 141.3 170.2 141.3V136.3ZM167.2 135.4L170.09 131.32C170.073 131.308 170.072 131.304 170.071 131.304C170.069 131.302 170.044 131.27 170.008 131.185C169.931 131 169.8 130.554 169.8 129.7H164.8H159.8C159.8 133.353 160.942 137.094 164.31 139.48L167.2 135.4ZM164.8 129.7H169.8C169.8 128.998 169.832 128.634 169.85 128.507L164.9 127.8L159.95 127.093C159.835 127.9 159.8 128.802 159.8 129.7H164.8ZM164.9 127.8L169.86 128.43L174.46 92.2303L169.5 91.6L164.54 90.9697L159.94 127.17L164.9 127.8ZM169.5 91.6V86.6H158.4V91.6V96.6H169.5V91.6ZM158.4 91.6L163.363 92.2066L164.463 83.2066L159.5 82.6L154.537 81.9934L153.437 90.9934L158.4 91.6ZM159.5 82.6V87.6H174V82.6V77.6H159.5V82.6ZM174 82.6V87.6C174.465 87.6 174.596 87.6739 174.53 87.6457C174.493 87.6298 174.423 87.5936 174.341 87.528C174.257 87.462 174.192 87.3899 174.147 87.3274L178.2 84.4L182.253 81.4725C180.17 78.5872 176.998 77.6 174 77.6V82.6ZM178.2 84.4L174.253 87.4697C174.258 87.476 174.262 87.4823 174.268 87.4951C174.275 87.5087 174.29 87.545 174.307 87.6144C174.34 87.7569 174.381 88.0607 174.327 88.5855L179.3 89.1L184.273 89.6145C184.568 86.7707 184.075 83.8092 182.147 81.3303L178.2 84.4ZM179.3 89.1L174.343 88.4477L169.843 122.648L174.8 123.3L179.757 123.952L184.257 89.7523L179.3 89.1Z" fill="#6A3A00" mask="url(#path-4-outside-1_17_18)"/>
<path d="M142.7 68.4L147.666 68.9842L148.323 63.4H142.7V68.4ZM141.7 76.9V81.9H146.146L146.666 77.4842L141.7 76.9ZM114.9 76.9V71.9H111.383L110.194 75.2096L114.9 76.9ZM111.2 87.2L106.494 85.5096L104.091 92.2H111.2V87.2ZM143.3 87.2L148.261 87.8202L148.964 82.2H143.3V87.2ZM142.2 96V101H146.614L147.161 96.6202L142.2 96ZM107.7 96V91H104.214L103.008 94.2715L107.7 96ZM104.2 104.6L99.6192 102.596L96.5549 109.6H104.2V104.6ZM134.2 105.4L136.436 100.928L136.436 100.928L134.2 105.4ZM136.5 107.7L141.069 105.669L141.05 105.627L141.031 105.586L136.5 107.7ZM135.4 114.6L139.54 117.404L139.591 117.328L139.64 117.25L135.4 114.6ZM122 131.5L118.346 128.087L113.179 133.618L120.294 136.2L122 131.5ZM135.5 136.4L140.452 137.092L141.012 133.082L137.206 131.7L135.5 136.4ZM134.2 145.7L132.481 150.395L138.295 152.524L139.152 146.392L134.2 145.7ZM91.6 130.1L86.6411 129.46L86.13 133.422L89.8807 134.795L91.6 130.1ZM92.8 120.8L94.522 116.106L88.6425 113.949L87.8411 120.16L92.8 120.8ZM112.7 128.1L110.978 132.794L114.02 133.91L116.281 131.589L112.7 128.1ZM125.3 113.1L129.407 115.952L134.86 108.1H125.3V113.1ZM94.8 111.8L91.7627 115.772H91.7628L94.8 111.8ZM94 104.7L98.5187 106.84L98.5469 106.781L98.5734 106.721L94 104.7ZM95.9 100.4L100.473 102.421L100.501 102.357L100.528 102.293L95.9 100.4ZM97.7 96L102.328 97.8932L105.148 91H97.7V96ZM85.1 96L80.132 95.4355L79.4996 101H85.1V96ZM86.1 87.2V82.2H81.636L81.132 86.6354L86.1 87.2ZM101.1 87.2V92.2H104.638L105.815 88.8641L101.1 87.2ZM103 82.1L107.623 84.0037L107.678 83.8711L107.725 83.7355L103 82.1ZM104.8 76.9L109.525 78.5356L111.822 71.9H104.8V76.9ZM90 76.9L85.0342 76.3158L84.3773 81.9H90V76.9ZM91 68.4V63.4H86.5538L86.0342 67.8158L91 68.4ZM107.7 68.4V73.4H111.356L112.465 69.916L107.7 68.4ZM111.2 57.4V52.4H107.544L106.435 55.884L111.2 57.4ZM121.3 57.4L126.079 58.8704L128.07 52.4H121.3V57.4ZM117.8 68.4L113.057 66.8189L110.863 73.4H117.8V68.4ZM91.9 57.5L96.3161 59.8448L100.216 52.5H91.9V57.5ZM82.6 74.4L78.2923 71.8615L77.7494 72.7828L77.6308 73.8455L82.6 74.4ZM74.9 143.4V148.4H79.3731L79.8692 143.955L74.9 143.4ZM65.1 143.4L60.1336 142.821L59.4833 148.4H65.1V143.4ZM70.8 94.5L75.7664 95.0789L66.5661 91.8403L70.8 94.5ZM65.9 102.3V107.3H68.6637L70.1339 104.96L65.9 102.3ZM54.6 102.3L50.4533 99.5063L45.2024 107.3H54.6V102.3ZM80.4 57.5V52.5H77.2166L75.8696 55.3844L80.4 57.5ZM142.7 68.4L137.734 67.8158L136.734 76.3158L141.7 76.9L146.666 77.4842L147.666 68.9842L142.7 68.4ZM141.7 76.9V71.9H114.9V76.9V81.9H141.7V76.9ZM114.9 76.9L110.194 75.2096L106.494 85.5096L111.2 87.2L115.906 88.8904L119.606 78.5904L114.9 76.9ZM111.2 87.2V92.2H143.3V87.2V82.2H111.2V87.2ZM143.3 87.2L138.339 86.5798L137.239 95.3798L142.2 96L147.161 96.6202L148.261 87.8202L143.3 87.2ZM142.2 96V91H107.7V96V101H142.2V96ZM107.7 96L103.008 94.2715C102.117 96.6896 100.99 99.4619 99.6192 102.596L104.2 104.6L108.781 106.604C110.21 103.338 111.416 100.377 112.392 97.7285L107.7 96ZM104.2 104.6V109.6H130.2V104.6V99.6H104.2V104.6ZM130.2 104.6V109.6C131.277 109.6 131.787 109.784 131.964 109.872L134.2 105.4L136.436 100.928C134.48 99.9496 132.323 99.6 130.2 99.6V104.6ZM134.2 105.4L131.964 109.872C132.016 109.898 132.043 109.916 132.052 109.922C132.06 109.928 132.054 109.925 132.039 109.911C132.025 109.896 132.009 109.877 131.994 109.856C131.979 109.835 131.971 109.819 131.969 109.814L136.5 107.7L141.031 105.586C140.048 103.479 138.425 101.922 136.436 100.928L134.2 105.4ZM136.5 107.7L131.931 109.731C131.87 109.594 131.865 109.531 131.874 109.582C131.883 109.633 131.9 109.766 131.9 110H136.9H141.9C141.9 108.641 141.713 107.118 141.069 105.669L136.5 107.7ZM136.9 110H131.9C131.9 110.296 131.804 110.92 131.16 111.95L135.4 114.6L139.64 117.25C140.996 115.08 141.9 112.637 141.9 110H136.9ZM135.4 114.6L131.26 111.796C127.195 117.797 122.889 123.225 118.346 128.087L122 131.5L125.654 134.913C130.578 129.642 135.205 123.803 139.54 117.404L135.4 114.6ZM122 131.5L120.294 136.2L133.794 141.1L135.5 136.4L137.206 131.7L123.706 126.8L122 131.5ZM135.5 136.4L130.548 135.708L129.248 145.008L134.2 145.7L139.152 146.392L140.452 137.092L135.5 136.4ZM134.2 145.7L135.919 141.005L93.3193 125.405L91.6 130.1L89.8807 134.795L132.481 150.395L134.2 145.7ZM91.6 130.1L96.5589 130.74L97.7589 121.44L92.8 120.8L87.8411 120.16L86.6411 129.46L91.6 130.1ZM92.8 120.8L91.078 125.494L110.978 132.794L112.7 128.1L114.422 123.406L94.522 116.106L92.8 120.8ZM112.7 128.1L116.281 131.589C121.496 126.237 125.884 121.025 129.407 115.952L125.3 113.1L121.193 110.248C118.05 114.775 114.037 119.563 109.119 124.611L112.7 128.1ZM125.3 113.1V108.1H99.8V113.1V118.1H125.3V113.1ZM99.8 113.1V108.1C99.0134 108.1 98.4855 108.021 98.1582 107.936C97.8392 107.853 97.7771 107.782 97.8372 107.828L94.8 111.8L91.7628 115.772C94.1278 117.58 97.0628 118.1 99.8 118.1V113.1ZM94.8 111.8L97.8373 107.828C97.8253 107.819 97.8502 107.836 97.8922 107.887C97.9354 107.938 97.9823 108.008 98.0225 108.09C98.1108 108.272 98.1 108.376 98.1 108.3H93.1H88.1C88.1 111.273 89.3523 113.929 91.7627 115.772L94.8 111.8ZM93.1 108.3H98.1C98.1 108.061 98.1623 107.593 98.5187 106.84L94 104.7L89.4813 102.56C88.6377 104.341 88.1 106.272 88.1 108.3H93.1ZM94 104.7L98.5734 106.721L100.473 102.421L95.9 100.4L91.3266 98.3792L89.4266 102.679L94 104.7ZM95.9 100.4L100.528 102.293L102.328 97.8932L97.7 96L93.0723 94.1068L91.2723 98.5068L95.9 100.4ZM97.7 96V91H85.1V96V101H97.7V96ZM85.1 96L90.068 96.5645L91.068 87.7645L86.1 87.2L81.132 86.6354L80.132 95.4355L85.1 96ZM86.1 87.2V92.2H101.1V87.2V82.2H86.1V87.2ZM101.1 87.2L105.815 88.8641C106.608 86.6172 107.207 85.015 107.623 84.0037L103 82.1L98.3766 80.1962C97.8597 81.4517 97.192 83.2495 96.3851 85.5359L101.1 87.2ZM103 82.1L107.725 83.7355L109.525 78.5356L104.8 76.9L100.075 75.2644L98.2751 80.4644L103 82.1ZM104.8 76.9V71.9H90V76.9V81.9H104.8V76.9ZM90 76.9L94.9658 77.4842L95.9658 68.9842L91 68.4L86.0342 67.8158L85.0342 76.3158L90 76.9ZM91 68.4V73.4H107.7V68.4V63.4H91V68.4ZM107.7 68.4L112.465 69.916L115.965 58.916L111.2 57.4L106.435 55.884L102.935 66.884L107.7 68.4ZM111.2 57.4V62.4H121.3V57.4V52.4H111.2V57.4ZM121.3 57.4L116.521 55.9296C115.195 60.2402 114.04 63.8676 113.057 66.8189L117.8 68.4L122.543 69.9811C123.56 66.9324 124.739 63.2264 126.079 58.8704L121.3 57.4ZM117.8 68.4V73.4H142.7V68.4V63.4H117.8V68.4ZM91.9 57.5L87.4839 55.1552C83.4923 62.6728 80.4342 68.2267 78.2923 71.8615L82.6 74.4L86.9077 76.9385C89.1658 73.1066 92.3077 67.3939 96.3161 59.8448L91.9 57.5ZM82.6 74.4L77.6308 73.8455L69.9308 142.845L74.9 143.4L79.8692 143.955L87.5692 74.9545L82.6 74.4ZM74.9 143.4V138.4H65.1V143.4V148.4H74.9V143.4ZM65.1 143.4L70.0664 143.979L75.7664 95.0789L70.8 94.5L65.8336 93.9211L60.1336 142.821L65.1 143.4ZM70.8 94.5L66.5661 91.8403L61.6661 99.6403L65.9 102.3L70.1339 104.96L75.0339 97.1597L70.8 94.5ZM65.9 102.3V97.3H54.6V102.3V107.3H65.9V102.3ZM54.6 102.3L58.7467 105.094C69.4622 89.189 78.1998 74.0286 84.9304 59.6156L80.4 57.5L75.8696 55.3844C69.4002 69.2381 60.9379 83.9443 50.4533 99.5063L54.6 102.3ZM80.4 57.5V62.5H91.9V57.5V52.5H80.4V57.5ZM238.5 107.1V112.1H242.958L243.467 107.671L238.5 107.1ZM226.2 107.1V102.1H221.717L221.23 106.557L226.2 107.1ZM223.5 131.8L218.53 131.257L218.5 131.528V131.8H223.5ZM230.4 133.5V138.5H230.547L230.694 138.491L230.4 133.5ZM242.1 130.9L247.075 131.398L247.935 122.799L240.052 126.339L242.1 130.9ZM241.1 140.9L242.856 145.582L245.766 144.49L246.075 141.398L241.1 140.9ZM237 141.9L236.21 136.963L236.133 136.975L236.056 136.99L237 141.9ZM229.4 142.6V147.6H229.5L229.6 147.596L229.4 142.6ZM215.3 140.9L218.733 137.265L218.727 137.259L215.3 140.9ZM213.8 134.2L218.75 134.907L218.761 134.829L218.77 134.75L213.8 134.2ZM216.8 107.1L221.77 107.65L222.384 102.1H216.8V107.1ZM208 107.1V102.1H203.781L203.071 106.259L208 107.1ZM201.1 128.3L196.699 125.927L196.689 125.946L196.679 125.965L201.1 128.3ZM188.6 144L186.505 148.54L189.445 149.897L191.886 147.769L188.6 144ZM179.5 139.8L176.266 135.987L170.289 141.056L177.405 144.34L179.5 139.8ZM192 125.5L196.277 128.089L192 125.5ZM198.5 107.1L203.424 107.966L204.456 102.1H198.5V107.1ZM187 107.1L182.036 106.504L181.363 112.1H187V107.1ZM190.4 78.8L185.46 78.0281L185.446 78.1156L185.436 78.2036L190.4 78.8ZM193.1 73.7L196.368 77.4841L196.416 77.4425L196.463 77.3997L193.1 73.7ZM201.2 71.7V76.7H207.248L206.111 70.7596L201.2 71.7ZM198.5 57.6V52.6H192.452L193.589 58.5404L198.5 57.6ZM207.8 57.6L212.711 56.6596L211.933 52.6H207.8V57.6ZM210.5 71.7L205.589 72.6404L206.367 76.7H210.5V71.7ZM221.6 71.7V76.7H225.1L226.298 73.4114L221.6 71.7ZM226.7 57.7V52.7H223.2L222.002 55.9886L226.7 57.7ZM236.8 57.7L241.431 59.5854L244.234 52.7H236.8V57.7ZM231.1 71.7L226.469 69.8146L223.666 76.7H231.1V71.7ZM239.8 74.2L235.971 77.416L236.008 77.46L236.046 77.5031L239.8 74.2ZM241.5 81L236.533 80.4225L236.533 80.429L241.5 81ZM166.3 58.4L168.275 53.8067L162.211 51.1989L161.343 57.7425L166.3 58.4ZM185.6 66.7L190.55 67.4071L191.091 63.6186L187.575 62.1067L185.6 66.7ZM184.2 76.5L182.216 81.0895L188.224 83.6868L189.15 77.2071L184.2 76.5ZM165 68.2L160.043 67.5425L159.546 71.2896L163.016 72.7895L165 68.2ZM231.9 80.6L236.862 81.2167L237.56 75.6H231.9V80.6ZM200 80.6V75.6H195.558L195.035 80.0109L200 80.6ZM197.9 98.3L192.935 97.7109L192.272 103.3H197.9V98.3ZM229.7 98.3V103.3H234.117L234.662 98.9167L229.7 98.3ZM174.8 123.3L179.672 124.424L179.726 124.19L179.757 123.952L174.8 123.3ZM178.2 123.1L175.596 118.832L175.573 118.846L175.55 118.86L178.2 123.1ZM184.1 119.5L186.704 123.768L186.768 123.729L186.831 123.688L184.1 119.5ZM186.4 118L191.36 117.367L190.35 109.455L183.669 113.812L186.4 118ZM187.6 127.4L190.446 131.511L192.945 129.781L192.56 126.767L187.6 127.4ZM181.7 131.1L184.251 135.4L184.275 135.386L184.3 135.371L181.7 131.1ZM175.8 134.6L178.146 139.016L178.25 138.96L178.351 138.9L175.8 134.6ZM167.2 135.4L170.2 131.4L170.146 131.359L170.09 131.32L167.2 135.4ZM164.9 127.8L169.85 128.507L169.855 128.469L169.86 128.43L164.9 127.8ZM169.5 91.6L174.46 92.2303L175.176 86.6H169.5V91.6ZM158.4 91.6L153.437 90.9934L152.752 96.6H158.4V91.6ZM159.5 82.6V77.6H155.074L154.537 81.9934L159.5 82.6ZM178.2 84.4L174.147 87.3274L174.199 87.3995L174.253 87.4697L178.2 84.4ZM179.3 89.1L184.257 89.7523L184.266 89.6835L184.273 89.6145L179.3 89.1ZM238.5 107.1V102.1H226.2V107.1V112.1H238.5V107.1ZM226.2 107.1L221.23 106.557L218.53 131.257L223.5 131.8L228.47 132.343L231.17 107.643L226.2 107.1ZM223.5 131.8H218.5V132.2H223.5H228.5V131.8H223.5ZM223.5 132.2H218.5C218.5 133.503 218.868 135.372 220.448 136.839C221.957 138.241 223.751 138.5 224.9 138.5V133.5V128.5C225.116 128.5 226.209 128.543 227.252 129.511C228.365 130.544 228.5 131.764 228.5 132.2H223.5ZM224.9 133.5V138.5H230.4V133.5V128.5H224.9V133.5ZM230.4 133.5L230.694 138.491C235.677 138.198 240.201 137.233 244.148 135.461L242.1 130.9L240.052 126.339C237.466 127.5 234.189 128.268 230.106 128.509L230.4 133.5ZM242.1 130.9L237.125 130.402L236.125 140.402L241.1 140.9L246.075 141.398L247.075 131.398L242.1 130.9ZM241.1 140.9L239.344 136.218C238.701 136.46 237.688 136.726 236.21 136.963L237 141.9L237.79 146.837C239.645 146.54 241.366 146.14 242.856 145.582L241.1 140.9ZM237 141.9L236.056 136.99C234.697 137.251 232.462 137.474 229.2 137.604L229.4 142.6L229.6 147.596C233.005 147.46 235.837 147.215 237.944 146.81L237 141.9ZM229.4 142.6V137.6H220.4V142.6V147.6H229.4V142.6ZM220.4 142.6V137.6C219.72 137.6 219.295 137.511 219.056 137.432C218.837 137.358 218.76 137.29 218.733 137.265L215.3 140.9L211.867 144.535C214.269 146.804 217.359 147.6 220.4 147.6V142.6ZM215.3 140.9L218.727 137.259C218.771 137.301 218.763 137.323 218.727 137.224C218.682 137.1 218.6 136.788 218.6 136.2H213.6H208.6C208.6 139.173 209.437 142.248 211.873 144.541L215.3 140.9ZM213.6 136.2H218.6C218.6 136.24 218.599 136.16 218.625 135.898C218.649 135.656 218.689 135.33 218.75 134.907L213.8 134.2L208.85 133.493C208.716 134.432 208.6 135.41 208.6 136.2H213.6ZM213.8 134.2L218.77 134.75L221.77 107.65L216.8 107.1L211.83 106.55L208.83 133.65L213.8 134.2ZM216.8 107.1V102.1H208V107.1V112.1H216.8V107.1ZM208 107.1L203.071 106.259C201.742 114.043 199.589 120.569 196.699 125.927L201.1 128.3L205.501 130.673C209.011 124.165 211.458 116.557 212.929 107.941L208 107.1ZM201.1 128.3L196.679 125.965C193.841 131.339 190.064 136.09 185.314 140.231L188.6 144L191.886 147.769C197.536 142.843 202.093 137.127 205.521 130.635L201.1 128.3ZM188.6 144L190.695 139.46L181.595 135.26L179.5 139.8L177.405 144.34L186.505 148.54L188.6 144ZM179.5 139.8L182.734 143.613C188.346 138.854 192.889 133.687 196.277 128.089L192 125.5L187.723 122.911C184.977 127.447 181.188 131.812 176.266 135.987L179.5 139.8ZM192 125.5L196.277 128.089C199.73 122.385 202.075 115.638 203.424 107.966L198.5 107.1L193.576 106.234C192.392 112.962 190.403 118.482 187.723 122.911L192 125.5ZM198.5 107.1V102.1H187V107.1V112.1H198.5V107.1ZM187 107.1L191.964 107.696L195.364 79.3964L190.4 78.8L185.436 78.2036L182.036 106.504L187 107.1ZM190.4 78.8L195.34 79.5719C195.513 78.4662 195.902 77.887 196.368 77.4841L193.1 73.7L189.832 69.9159C187.365 72.0464 185.954 74.8671 185.46 78.0281L190.4 78.8ZM193.1 73.7L196.463 77.3997C196.906 76.9973 197.496 76.7 198.6 76.7V71.7V66.7C195.304 66.7 192.227 67.736 189.737 70.0003L193.1 73.7ZM198.6 71.7V76.7H201.2V71.7V66.7H198.6V71.7ZM201.2 71.7L206.111 70.7596L203.411 56.6596L198.5 57.6L193.589 58.5404L196.289 72.6404L201.2 71.7ZM198.5 57.6V62.6H207.8V57.6V52.6H198.5V57.6ZM207.8 57.6L202.889 58.5404L205.589 72.6404L210.5 71.7L215.411 70.7596L212.711 56.6596L207.8 57.6ZM210.5 71.7V76.7H221.6V71.7V66.7H210.5V71.7ZM221.6 71.7L226.298 73.4114L231.398 59.4114L226.7 57.7L222.002 55.9886L216.902 69.9886L221.6 71.7ZM226.7 57.7V62.7H236.8V57.7V52.7H226.7V57.7ZM236.8 57.7L232.169 55.8146L226.469 69.8146L231.1 71.7L235.731 73.5854L241.431 59.5854L236.8 57.7ZM231.1 71.7V76.7H233.7V71.7V66.7H231.1V71.7ZM233.7 71.7V76.7C235.254 76.7 235.733 77.1321 235.971 77.416L239.8 74.2L243.629 70.984C241.067 67.9346 237.48 66.7 233.7 66.7V71.7ZM239.8 74.2L236.046 77.5031C236.316 77.8098 236.755 78.5155 236.533 80.4225L241.5 81L246.467 81.5775C246.911 77.7512 246.217 73.9236 243.554 70.8969L239.8 74.2ZM241.5 81L236.533 80.429L233.533 106.529L238.5 107.1L243.467 107.671L246.467 81.571L241.5 81ZM166.3 58.4L164.325 62.9933L183.625 71.2933L185.6 66.7L187.575 62.1067L168.275 53.8067L166.3 58.4ZM185.6 66.7L180.65 65.9929L179.25 75.7929L184.2 76.5L189.15 77.2071L190.55 67.4071L185.6 66.7ZM184.2 76.5L186.184 71.9105L166.984 63.6105L165 68.2L163.016 72.7895L182.216 81.0895L184.2 76.5ZM165 68.2L169.957 68.8575L171.257 59.0575L166.3 58.4L161.343 57.7425L160.043 67.5425L165 68.2ZM231.9 80.6V75.6H200V80.6V85.6H231.9V80.6ZM200 80.6L195.035 80.0109L192.935 97.7109L197.9 98.3L202.865 98.8891L204.965 81.1891L200 80.6ZM197.9 98.3V103.3H229.7V98.3V93.3H197.9V98.3ZM229.7 98.3L234.662 98.9167L236.862 81.2167L231.9 80.6L226.938 79.9833L224.738 97.6833L229.7 98.3ZM174.8 123.3L169.928 122.176C169.777 122.829 169.465 124.397 170.108 126.07C170.489 127.06 171.204 128.069 172.337 128.77C173.417 129.439 174.507 129.6 175.3 129.6V124.6V119.6C175.826 119.6 176.696 119.707 177.601 120.267C178.559 120.861 179.144 121.706 179.442 122.48C179.71 123.178 179.724 123.747 179.717 123.997C179.713 124.14 179.701 124.247 179.692 124.312C179.683 124.377 179.674 124.416 179.672 124.424L174.8 123.3ZM175.3 124.6V129.6C176.362 129.6 177.215 129.269 177.464 129.173C177.865 129.019 178.247 128.834 178.572 128.666C179.232 128.325 180.005 127.868 180.85 127.34L178.2 123.1L175.55 118.86C174.795 119.332 174.285 119.625 173.978 119.784C173.82 119.866 173.798 119.869 173.874 119.84C173.914 119.824 174.038 119.778 174.223 119.731C174.319 119.706 174.454 119.676 174.621 119.651C174.784 119.626 175.017 119.6 175.3 119.6V124.6ZM178.2 123.1L180.804 127.368L186.704 123.768L184.1 119.5L181.496 115.232L175.596 118.832L178.2 123.1ZM184.1 119.5L186.831 123.688L189.131 122.188L186.4 118L183.669 113.812L181.369 115.312L184.1 119.5ZM186.4 118L181.44 118.633L182.64 128.033L187.6 127.4L192.56 126.767L191.36 117.367L186.4 118ZM187.6 127.4L184.754 123.289C184.032 123.789 182.2 124.942 179.1 126.829L181.7 131.1L184.3 135.371C187.334 133.524 189.435 132.211 190.446 131.511L187.6 127.4ZM181.7 131.1L179.149 126.8L173.249 130.3L175.8 134.6L178.351 138.9L184.251 135.4L181.7 131.1ZM175.8 134.6L173.454 130.184C171.705 131.113 170.67 131.3 170.2 131.3V136.3V141.3C172.93 141.3 175.628 140.353 178.146 139.016L175.8 134.6ZM170.2 136.3V131.3C170.016 131.3 169.957 131.277 169.987 131.286C170.001 131.29 170.032 131.301 170.074 131.322C170.115 131.342 170.159 131.369 170.2 131.4L167.2 135.4L164.2 139.4C166.028 140.771 168.141 141.3 170.2 141.3V136.3ZM167.2 135.4L170.09 131.32C170.073 131.308 170.072 131.304 170.071 131.304C170.069 131.302 170.044 131.27 170.008 131.185C169.931 131 169.8 130.554 169.8 129.7H164.8H159.8C159.8 133.353 160.942 137.094 164.31 139.48L167.2 135.4ZM164.8 129.7H169.8C169.8 128.998 169.832 128.634 169.85 128.507L164.9 127.8L159.95 127.093C159.835 127.9 159.8 128.802 159.8 129.7H164.8ZM164.9 127.8L169.86 128.43L174.46 92.2303L169.5 91.6L164.54 90.9697L159.94 127.17L164.9 127.8ZM169.5 91.6V86.6H158.4V91.6V96.6H169.5V91.6ZM158.4 91.6L163.363 92.2066L164.463 83.2066L159.5 82.6L154.537 81.9934L153.437 90.9934L158.4 91.6ZM159.5 82.6V87.6H174V82.6V77.6H159.5V82.6ZM174 82.6V87.6C174.465 87.6 174.596 87.6739 174.53 87.6457C174.493 87.6298 174.423 87.5936 174.341 87.528C174.257 87.462 174.192 87.3899 174.147 87.3274L178.2 84.4L182.253 81.4725C180.17 78.5872 176.998 77.6 174 77.6V82.6ZM178.2 84.4L174.253 87.4697C174.258 87.476 174.262 87.4823 174.268 87.4951C174.275 87.5087 174.29 87.545 174.307 87.6144C174.34 87.7569 174.381 88.0607 174.327 88.5855L179.3 89.1L184.273 89.6145C184.568 86.7707 184.075 83.8092 182.147 81.3303L178.2 84.4ZM179.3 89.1L174.343 88.4477L169.843 122.648L174.8 123.3L179.757 123.952L184.257 89.7523L179.3 89.1Z" fill="black" fill-opacity="0.5" mask="url(#path-4-outside-1_17_18)"/>
<defs>
<linearGradient id="paint0_linear_17_18" x1="149.168" y1="21.3681" x2="149.168" y2="179.779" gradientUnits="userSpaceOnUse">
<stop stop-color="#434343"/>
<stop offset="1" stop-color="#111111"/>
</linearGradient>
</defs>
</svg>
