<svg width="300" height="200" viewBox="0 0 300 200" fill="none" xmlns="http://www.w3.org/2000/svg">
<path d="M27.7578 167.87C27.7578 172.667 29.6483 177.21 33.0632 180.625C36.4781 184.041 41.0212 185.932 45.8197 185.932H253.536C258.332 185.932 262.877 184.041 266.292 180.625C269.707 177.21 271.597 172.666 271.597 167.87V32.4308C271.597 27.6323 269.707 23.0893 266.292 19.6744C262.876 16.2595 258.332 14.369 253.536 14.369H45.8197C41.0212 14.369 36.4781 16.2595 33.0632 19.6744C29.6483 23.0893 27.7578 27.6323 27.7578 32.4308V167.87Z" fill="#DFB2F6"/>
<path d="M23.2832 31.1058V169.195C23.9754 181.002 33.8461 190.448 45.8186 190.448H253.535C265.952 190.448 276.112 180.287 276.112 167.87V32.4308C276.112 20.0134 265.952 9.85307 253.535 9.85307H45.8186C33.8461 9.85307 23.9754 19.2994 23.2832 31.1058ZM45.8186 14.369H253.535C258.331 14.369 262.876 16.2595 266.291 19.6744C269.706 23.0893 271.596 27.6323 271.596 32.4308V167.87C271.596 172.667 269.706 177.21 266.291 180.625C262.875 184.041 258.331 185.932 253.535 185.932H45.8186C41.0201 185.932 36.4771 184.041 33.0622 180.625C29.6473 177.21 27.7568 172.666 27.7568 167.87V32.4308C27.7568 27.6323 29.6473 23.0893 33.0622 19.6744C36.4771 16.2595 41.0201 14.369 45.8186 14.369Z" fill="#754891"/>
<path d="M253.448 179.779H44.8865C38.6787 179.779 33.5977 174.7 33.5977 168.49V32.6569C33.5977 26.4474 38.6787 21.3681 44.8865 21.3681H253.449C259.658 21.3681 264.738 26.4474 264.738 32.6569V168.49C264.737 174.699 259.657 179.779 253.448 179.779Z" fill="#80519D"/>
<mask id="path-4-outside-1_15_2" maskUnits="userSpaceOnUse" x="44" y="52" width="207" height="98" fill="black">
<rect fill="white" x="44" y="52" width="207" height="98"/>
<path d="M110.1 58.1L106.9 79H142.6L141.3 88.8H107.4C110.867 99.4667 115.5 108.867 121.3 117C126.167 123.933 133.067 131.367 142 139.3L131.1 143.7C125.033 138.167 119.567 131.867 114.7 124.8C108.833 116.533 104.367 108.133 101.3 99.6C97.5667 108.333 92.3333 116.633 85.6 124.5C79.1333 132.167 72.0333 138.5 64.3 143.5L54.5 138.8C64.7 132 73.3 124.2 80.3 115.4C87.3 106.533 91.9667 97.6667 94.3 88.8H61.2L62.2 79H96.1L99.5 58.1H110.1ZM185.3 97.7C184.033 106.967 182.033 115.5 179.3 123.3C176.567 131.1 173.133 137.9 169 143.7L159.9 141C168.633 128.667 174.067 114.167 176.2 97.5L180.7 57.6H190L185.3 97.7ZM244.7 61.6L243.8 70.7H223.8L222.4 81.9H232.8C235.667 81.9 237.833 82.6333 239.3 84.1C240.767 85.5 241.367 87.6 241.1 90.4L237.1 123.1C236.767 125.367 235.9 127.1 234.5 128.3C233.167 129.5 231.433 130.1 229.3 130.1C227.833 130.1 226.133 129.967 224.2 129.7C222.267 129.367 220.667 128.933 219.4 128.4L220.1 119.6C221.967 120.267 224.033 120.733 226.3 121H226.7C227.1 121 227.4 120.9 227.6 120.7C227.867 120.5 228.1 120.1 228.3 119.5L231.9 91.1H221.3L214.9 143.2H205.3L211.7 91.1H202.1L197.3 129.7H187.9L192.8 90C193.067 87.5333 193.967 85.5667 195.5 84.1C197.033 82.6333 199.067 81.9 201.6 81.9H212.8L214.2 70.7H193.1L194.1 61.6H244.7ZM163.9 67.1H173.2L167.4 116.5H158.1L163.9 67.1Z"/>
</mask>
<path d="M110.1 58.1L106.9 79H142.6L141.3 88.8H107.4C110.867 99.4667 115.5 108.867 121.3 117C126.167 123.933 133.067 131.367 142 139.3L131.1 143.7C125.033 138.167 119.567 131.867 114.7 124.8C108.833 116.533 104.367 108.133 101.3 99.6C97.5667 108.333 92.3333 116.633 85.6 124.5C79.1333 132.167 72.0333 138.5 64.3 143.5L54.5 138.8C64.7 132 73.3 124.2 80.3 115.4C87.3 106.533 91.9667 97.6667 94.3 88.8H61.2L62.2 79H96.1L99.5 58.1H110.1ZM185.3 97.7C184.033 106.967 182.033 115.5 179.3 123.3C176.567 131.1 173.133 137.9 169 143.7L159.9 141C168.633 128.667 174.067 114.167 176.2 97.5L180.7 57.6H190L185.3 97.7ZM244.7 61.6L243.8 70.7H223.8L222.4 81.9H232.8C235.667 81.9 237.833 82.6333 239.3 84.1C240.767 85.5 241.367 87.6 241.1 90.4L237.1 123.1C236.767 125.367 235.9 127.1 234.5 128.3C233.167 129.5 231.433 130.1 229.3 130.1C227.833 130.1 226.133 129.967 224.2 129.7C222.267 129.367 220.667 128.933 219.4 128.4L220.1 119.6C221.967 120.267 224.033 120.733 226.3 121H226.7C227.1 121 227.4 120.9 227.6 120.7C227.867 120.5 228.1 120.1 228.3 119.5L231.9 91.1H221.3L214.9 143.2H205.3L211.7 91.1H202.1L197.3 129.7H187.9L192.8 90C193.067 87.5333 193.967 85.5667 195.5 84.1C197.033 82.6333 199.067 81.9 201.6 81.9H212.8L214.2 70.7H193.1L194.1 61.6H244.7ZM163.9 67.1H173.2L167.4 116.5H158.1L163.9 67.1Z" fill="#F4E2FC"/>
<path d="M110.1 58.1L115.042 58.8567L115.924 53.1H110.1V58.1ZM106.9 79L101.958 78.2433L101.076 84H106.9V79ZM142.6 79L147.557 79.6575L148.307 74H142.6V79ZM141.3 88.8V93.8H145.681L146.257 89.4575L141.3 88.8ZM107.4 88.8V83.8H100.518L102.645 90.3454L107.4 88.8ZM121.3 117L125.392 114.127L125.382 114.112L125.371 114.097L121.3 117ZM142 139.3L143.872 143.936L151.351 140.917L145.32 135.561L142 139.3ZM131.1 143.7L127.731 147.394L130.055 149.514L132.972 148.336L131.1 143.7ZM114.7 124.8L118.818 121.964L118.798 121.935L118.778 121.906L114.7 124.8ZM101.3 99.6L106.005 97.909L101.703 85.9371L96.7025 97.6346L101.3 99.6ZM85.6 124.5L81.8014 121.249L81.7897 121.262L81.778 121.276L85.6 124.5ZM64.3 143.5L62.1378 148.008L64.663 149.219L67.0148 147.699L64.3 143.5ZM54.5 138.8L51.7265 134.64L44.4198 139.511L52.3378 143.308L54.5 138.8ZM80.3 115.4L84.213 118.513L84.2187 118.505L84.2244 118.498L80.3 115.4ZM94.3 88.8L99.1354 90.0725L100.786 83.8H94.3V88.8ZM61.2 88.8L56.2258 88.2924L55.6638 93.8H61.2V88.8ZM62.2 79V74H57.6842L57.2258 78.4924L62.2 79ZM96.1 79V84H100.352L101.035 79.8028L96.1 79ZM99.5 58.1V53.1H95.2477L94.5649 57.2971L99.5 58.1ZM110.1 58.1L105.158 57.3433L101.958 78.2433L106.9 79L111.842 79.7567L115.042 58.8567L110.1 58.1ZM106.9 79V84H142.6V79V74H106.9V79ZM142.6 79L137.643 78.3425L136.343 88.1425L141.3 88.8L146.257 89.4575L147.557 79.6575L142.6 79ZM141.3 88.8V83.8H107.4V88.8V93.8H141.3V88.8ZM107.4 88.8L102.645 90.3454C106.25 101.438 111.099 111.307 117.229 119.903L121.3 117L125.371 114.097C119.901 106.426 115.483 97.4952 112.155 87.2546L107.4 88.8ZM121.3 117L117.208 119.873C122.367 127.224 129.565 134.944 138.68 143.039L142 139.3L145.32 135.561C136.569 127.79 129.966 120.643 125.392 114.127L121.3 117ZM142 139.3L140.128 134.664L129.228 139.064L131.1 143.7L132.972 148.336L143.872 143.936L142 139.3ZM131.1 143.7L134.469 140.006C128.696 134.74 123.478 128.731 118.818 121.964L114.7 124.8L110.582 127.636C115.655 135.002 121.37 141.593 127.731 147.394L131.1 143.7ZM114.7 124.8L118.778 121.906C113.143 113.967 108.902 105.968 106.005 97.909L101.3 99.6L96.5946 101.291C99.8318 110.299 104.523 119.1 110.622 127.694L114.7 124.8ZM101.3 99.6L96.7025 97.6346C93.1858 105.861 88.2343 113.733 81.8014 121.249L85.6 124.5L89.3986 127.751C96.4323 119.534 101.948 110.806 105.898 101.565L101.3 99.6ZM85.6 124.5L81.778 121.276C75.6019 128.598 68.8681 134.592 61.5852 139.301L64.3 143.5L67.0148 147.699C75.1986 142.408 82.6647 135.735 89.422 127.724L85.6 124.5ZM64.3 143.5L66.4622 138.992L56.6622 134.292L54.5 138.8L52.3378 143.308L62.1378 148.008L64.3 143.5ZM54.5 138.8L57.2735 142.96C67.8666 135.898 76.8621 127.754 84.213 118.513L80.3 115.4L76.387 112.287C69.7379 120.646 61.5334 128.102 51.7265 134.64L54.5 138.8ZM80.3 115.4L84.2244 118.498C91.5541 109.214 96.5915 99.7392 99.1354 90.0725L94.3 88.8L89.4646 87.5275C87.3418 95.5942 83.0459 103.853 76.3756 112.302L80.3 115.4ZM94.3 88.8V83.8H61.2V88.8V93.8H94.3V88.8ZM61.2 88.8L66.1742 89.3076L67.1742 79.5076L62.2 79L57.2258 78.4924L56.2258 88.2924L61.2 88.8ZM62.2 79V84H96.1V79V74H62.2V79ZM96.1 79L101.035 79.8028L104.435 58.9028L99.5 58.1L94.5649 57.2971L91.1649 78.1972L96.1 79ZM99.5 58.1V63.1H110.1V58.1V53.1H99.5V58.1ZM185.3 97.7L190.254 98.3772L190.26 98.3297L190.266 98.282L185.3 97.7ZM179.3 123.3L184.019 124.954V124.954L179.3 123.3ZM169 143.7L167.578 148.493L171 149.509L173.072 146.602L169 143.7ZM159.9 141L155.819 138.111L151.785 143.808L158.478 145.793L159.9 141ZM176.2 97.5L181.16 98.1348L181.164 98.0976L181.169 98.0604L176.2 97.5ZM180.7 57.6V52.6H176.232L175.731 57.0396L180.7 57.6ZM190 57.6L194.966 58.182L195.62 52.6H190V57.6ZM244.7 61.6L249.676 62.0921L250.219 56.6H244.7V61.6ZM243.8 70.7V75.7H248.33L248.776 71.1921L243.8 70.7ZM223.8 70.7V65.7H219.386L218.839 70.0798L223.8 70.7ZM222.4 81.9L217.439 81.2798L216.736 86.9H222.4V81.9ZM239.3 84.1L235.764 87.6355L235.806 87.6766L235.848 87.7168L239.3 84.1ZM241.1 90.4L246.063 91.0071L246.071 90.9407L246.077 90.874L241.1 90.4ZM237.1 123.1L242.047 123.827L242.056 123.767L242.063 123.707L237.1 123.1ZM234.5 128.3L231.246 124.504L231.2 124.543L231.155 124.584L234.5 128.3ZM224.2 129.7L223.35 134.627L223.433 134.642L223.517 134.653L224.2 129.7ZM219.4 128.4L214.416 128.004L214.129 131.606L217.46 133.008L219.4 128.4ZM220.1 119.6L221.782 114.891L215.633 112.695L215.116 119.204L220.1 119.6ZM226.3 121L225.716 125.966L226.007 126H226.3V121ZM227.6 120.7L224.6 116.7L224.316 116.913L224.064 117.164L227.6 120.7ZM228.3 119.5L233.043 121.081L233.199 120.616L233.26 120.129L228.3 119.5ZM231.9 91.1L236.86 91.7288L237.574 86.1H231.9V91.1ZM221.3 91.1V86.1H216.877L216.337 90.4904L221.3 91.1ZM214.9 143.2V148.2H219.323L219.863 143.81L214.9 143.2ZM205.3 143.2L200.337 142.59L199.648 148.2H205.3V143.2ZM211.7 91.1L216.663 91.7096L217.352 86.1H211.7V91.1ZM202.1 91.1V86.1H197.683L197.138 90.483L202.1 91.1ZM197.3 129.7V134.7H201.717L202.262 130.317L197.3 129.7ZM187.9 129.7L182.938 129.088L182.245 134.7H187.9V129.7ZM192.8 90L197.762 90.6125L197.767 90.575L197.771 90.5374L192.8 90ZM195.5 84.1L192.044 80.4868V80.4868L195.5 84.1ZM212.8 81.9V86.9H217.214L217.761 82.5202L212.8 81.9ZM214.2 70.7L219.161 71.3202L219.864 65.7H214.2V70.7ZM193.1 70.7L188.13 70.1538L187.52 75.7H193.1V70.7ZM194.1 61.6V56.6H189.619L189.13 61.0538L194.1 61.6ZM163.9 67.1V62.1H159.453L158.934 66.517L163.9 67.1ZM173.2 67.1L178.166 67.683L178.821 62.1H173.2V67.1ZM167.4 116.5V121.5H171.847L172.366 117.083L167.4 116.5ZM158.1 116.5L153.134 115.917L152.479 121.5H158.1V116.5ZM185.3 97.7L180.346 97.0228C179.119 106 177.19 114.201 174.581 121.646L179.3 123.3L184.019 124.954C186.876 116.799 188.948 107.934 190.254 98.3772L185.3 97.7ZM179.3 123.3L174.581 121.646C171.979 129.072 168.749 135.437 164.928 140.798L169 143.7L173.072 146.602C177.518 140.363 181.154 133.128 184.019 124.954L179.3 123.3ZM169 143.7L170.422 138.907L161.322 136.207L159.9 141L158.478 145.793L167.578 148.493L169 143.7ZM159.9 141L163.981 143.889C173.238 130.816 178.934 115.521 181.16 98.1348L176.2 97.5L171.24 96.8652C169.199 112.812 164.029 126.518 155.819 138.111L159.9 141ZM176.2 97.5L181.169 98.0604L185.669 58.1604L180.7 57.6L175.731 57.0396L171.232 96.9396L176.2 97.5ZM180.7 57.6V62.6H190V57.6V52.6H180.7V57.6ZM190 57.6L185.034 57.0179L180.334 97.1179L185.3 97.7L190.266 98.282L194.966 58.182L190 57.6ZM244.7 61.6L239.724 61.1079L238.824 70.2079L243.8 70.7L248.776 71.1921L249.676 62.0921L244.7 61.6ZM243.8 70.7V65.7H223.8V70.7V75.7H243.8V70.7ZM223.8 70.7L218.839 70.0798L217.439 81.2798L222.4 81.9L227.361 82.5202L228.761 71.3202L223.8 70.7ZM222.4 81.9V86.9H232.8V81.9V76.9H222.4V81.9ZM232.8 81.9V86.9C234.857 86.9 235.547 87.4177 235.764 87.6355L239.3 84.1L242.836 80.5645C240.12 77.849 236.476 76.9 232.8 76.9V81.9ZM239.3 84.1L235.848 87.7168C235.888 87.7556 235.967 87.8353 236.042 88.0986C236.13 88.4035 236.213 88.9766 236.123 89.926L241.1 90.4L246.077 90.874C246.43 87.1745 245.714 83.3101 242.752 80.4832L239.3 84.1ZM241.1 90.4L236.137 89.7929L232.137 122.493L237.1 123.1L242.063 123.707L246.063 91.0071L241.1 90.4ZM237.1 123.1L232.153 122.373C231.951 123.746 231.523 124.266 231.246 124.504L234.5 128.3L237.754 132.096C240.277 129.934 241.582 126.988 242.047 123.827L237.1 123.1ZM234.5 128.3L231.155 124.584C230.908 124.806 230.445 125.1 229.3 125.1V130.1V135.1C232.422 135.1 235.425 134.194 237.845 132.016L234.5 128.3ZM229.3 130.1V125.1C228.122 125.1 226.659 124.992 224.883 124.747L224.2 129.7L223.517 134.653C225.608 134.941 227.544 135.1 229.3 135.1V130.1ZM224.2 129.7L225.05 124.773C223.346 124.479 222.143 124.13 221.34 123.792L219.4 128.4L217.46 133.008C219.19 133.737 221.188 134.254 223.35 134.627L224.2 129.7ZM219.4 128.4L224.384 128.796L225.084 119.996L220.1 119.6L215.116 119.204L214.416 128.004L219.4 128.4ZM220.1 119.6L218.418 124.309C220.689 125.12 223.13 125.662 225.716 125.966L226.3 121L226.884 116.034C224.937 115.805 223.245 115.414 221.782 114.891L220.1 119.6ZM226.3 121V126H226.7V121V116H226.3V121ZM226.7 121V126C227.871 126 229.667 125.704 231.136 124.236L227.6 120.7L224.064 117.164C225.133 116.096 226.329 116 226.7 116V121ZM227.6 120.7L230.6 124.7C232.135 123.549 232.767 121.909 233.043 121.081L228.3 119.5L223.557 117.919C223.529 118.002 223.549 117.913 223.656 117.731C223.754 117.563 224.035 117.124 224.6 116.7L227.6 120.7ZM228.3 119.5L233.26 120.129L236.86 91.7288L231.9 91.1L226.94 90.4712L223.34 118.871L228.3 119.5ZM231.9 91.1V86.1H221.3V91.1V96.1H231.9V91.1ZM221.3 91.1L216.337 90.4904L209.937 142.59L214.9 143.2L219.863 143.81L226.263 91.7096L221.3 91.1ZM214.9 143.2V138.2H205.3V143.2V148.2H214.9V143.2ZM205.3 143.2L210.263 143.81L216.663 91.7096L211.7 91.1L206.737 90.4904L200.337 142.59L205.3 143.2ZM211.7 91.1V86.1H202.1V91.1V96.1H211.7V91.1ZM202.1 91.1L197.138 90.483L192.338 129.083L197.3 129.7L202.262 130.317L207.062 91.717L202.1 91.1ZM197.3 129.7V124.7H187.9V129.7V134.7H197.3V129.7ZM187.9 129.7L192.862 130.312L197.762 90.6125L192.8 90L187.838 89.3875L182.938 129.088L187.9 129.7ZM192.8 90L197.771 90.5374C197.934 89.0338 198.415 88.231 198.956 87.7132L195.5 84.1L192.044 80.4868C189.519 82.9023 188.2 86.0329 187.829 89.4626L192.8 90ZM195.5 84.1L198.956 87.7132C199.383 87.3048 200.088 86.9 201.6 86.9V81.9V76.9C198.045 76.9 194.684 77.9619 192.044 80.4868L195.5 84.1ZM201.6 81.9V86.9H212.8V81.9V76.9H201.6V81.9ZM212.8 81.9L217.761 82.5202L219.161 71.3202L214.2 70.7L209.239 70.0798L207.839 81.2798L212.8 81.9ZM214.2 70.7V65.7H193.1V70.7V75.7H214.2V70.7ZM193.1 70.7L198.07 71.2462L199.07 62.1462L194.1 61.6L189.13 61.0538L188.13 70.1538L193.1 70.7ZM194.1 61.6V66.6H244.7V61.6V56.6H194.1V61.6ZM163.9 67.1V72.1H173.2V67.1V62.1H163.9V67.1ZM173.2 67.1L168.234 66.517L162.434 115.917L167.4 116.5L172.366 117.083L178.166 67.683L173.2 67.1ZM167.4 116.5V111.5H158.1V116.5V121.5H167.4V116.5ZM158.1 116.5L163.066 117.083L168.866 67.683L163.9 67.1L158.934 66.517L153.134 115.917L158.1 116.5Z" fill="#4D256E" mask="url(#path-4-outside-1_15_2)"/>
</svg>
