<svg width="300" height="200" viewBox="0 0 300 200" fill="none" xmlns="http://www.w3.org/2000/svg">
<path d="M27.7578 167.87C27.7578 172.667 29.6483 177.21 33.0632 180.625C36.4781 184.041 41.0212 185.932 45.8197 185.932H253.536C258.332 185.932 262.877 184.041 266.292 180.625C269.707 177.21 271.597 172.666 271.597 167.87V32.4308C271.597 27.6323 269.707 23.0893 266.292 19.6744C262.876 16.2595 258.332 14.369 253.536 14.369H45.8197C41.0212 14.369 36.4781 16.2595 33.0632 19.6744C29.6483 23.0893 27.7578 27.6323 27.7578 32.4308V167.87Z" fill="#FCB48E"/>
<path d="M23.2832 31.1058V169.195C23.9754 181.002 33.8461 190.448 45.8186 190.448H253.535C265.952 190.448 276.112 180.287 276.112 167.87V32.4308C276.112 20.0134 265.952 9.85307 253.535 9.85307H45.8186C33.8461 9.85307 23.9754 19.2994 23.2832 31.1058ZM45.8186 14.369H253.535C258.331 14.369 262.876 16.2595 266.291 19.6744C269.706 23.0893 271.596 27.6323 271.596 32.4308V167.87C271.596 172.667 269.706 177.21 266.291 180.625C262.875 184.041 258.331 185.932 253.535 185.932H45.8186C41.0201 185.932 36.4771 184.041 33.0622 180.625C29.6473 177.21 27.7568 172.666 27.7568 167.87V32.4308C27.7568 27.6323 29.6473 23.0893 33.0622 19.6744C36.4771 16.2595 41.0201 14.369 45.8186 14.369Z" fill="#BF2510"/>
<path d="M253.448 179.779H44.8865C38.6787 179.779 33.5977 174.7 33.5977 168.49V32.6569C33.5977 26.4474 38.6787 21.3681 44.8865 21.3681H253.449C259.658 21.3681 264.738 26.4474 264.738 32.6569V168.49C264.737 174.699 259.657 179.779 253.448 179.779Z" fill="#CA2712"/>
<mask id="path-4-outside-1_17_12" maskUnits="userSpaceOnUse" x="51" y="52" width="201" height="96" fill="black">
<rect fill="white" x="51" y="52" width="201" height="96"/>
<path d="M106.5 94.4H134.8L133.8 103.8H105.4L102.1 130.1H140.2L139.1 139.6H57.2L58.3 130.1H91.7L94.9 103.8H67.5L68.6 94.4H96.1L98.7 72.9H66.2L67.3 63.4H140.6L139.5 72.9H109.2L106.5 94.4ZM170 65.6H194.4L195.6 57.2H205.9L204.8 65.6H221.4L220.4 74.1H203.6L202.4 83.6H212.1C219.7 78 226.233 71.1333 231.7 63H242.9C238.233 70.9333 232.8 77.8 226.6 83.6H243.2L242.2 92.5H215.3C212.167 94.5 209.9 95.9 208.5 96.7L205.6 98.3L202.6 99.9H223.3C225.5 99.9 227.233 100.5 228.5 101.7C229.767 102.833 230.4 104.4 230.4 106.4C230.4 107.067 230.367 107.567 230.3 107.9L226.3 142.4H168.5L172 112.5C170.467 113.033 167.067 113.967 161.8 115.3L159.4 115.9L155.2 107.5C171.733 103.567 185.867 98.5667 197.6 92.5H159.2L160.3 83.6H192L193.3 74.1H169L170 65.6ZM220 108.3H184.1L182.2 109.1L181.3 117.1H219.1L220 108.3ZM179.3 134H217.3L218.2 125.1H180.3L179.3 134Z"/>
</mask>
<path d="M106.5 94.4H134.8L133.8 103.8H105.4L102.1 130.1H140.2L139.1 139.6H57.2L58.3 130.1H91.7L94.9 103.8H67.5L68.6 94.4H96.1L98.7 72.9H66.2L67.3 63.4H140.6L139.5 72.9H109.2L106.5 94.4ZM170 65.6H194.4L195.6 57.2H205.9L204.8 65.6H221.4L220.4 74.1H203.6L202.4 83.6H212.1C219.7 78 226.233 71.1333 231.7 63H242.9C238.233 70.9333 232.8 77.8 226.6 83.6H243.2L242.2 92.5H215.3C212.167 94.5 209.9 95.9 208.5 96.7L205.6 98.3L202.6 99.9H223.3C225.5 99.9 227.233 100.5 228.5 101.7C229.767 102.833 230.4 104.4 230.4 106.4C230.4 107.067 230.367 107.567 230.3 107.9L226.3 142.4H168.5L172 112.5C170.467 113.033 167.067 113.967 161.8 115.3L159.4 115.9L155.2 107.5C171.733 103.567 185.867 98.5667 197.6 92.5H159.2L160.3 83.6H192L193.3 74.1H169L170 65.6ZM220 108.3H184.1L182.2 109.1L181.3 117.1H219.1L220 108.3ZM179.3 134H217.3L218.2 125.1H180.3L179.3 134Z" fill="#FDDBA7"/>
<path d="M106.5 94.4L101.539 93.777L100.833 99.4H106.5V94.4ZM134.8 94.4L139.772 94.9289L140.36 89.4H134.8V94.4ZM133.8 103.8V108.8H138.296L138.772 104.329L133.8 103.8ZM105.4 103.8V98.8H100.988L100.439 103.178L105.4 103.8ZM102.1 130.1L97.1389 129.478L96.4334 135.1H102.1V130.1ZM140.2 130.1L145.167 130.675L145.812 125.1H140.2V130.1ZM139.1 139.6V144.6H143.554L144.067 140.175L139.1 139.6ZM57.2 139.6L52.2332 139.025L51.5876 144.6H57.2V139.6ZM58.3 130.1V125.1H53.8455L53.3332 129.525L58.3 130.1ZM91.7 130.1V135.1H96.1285L96.6634 130.704L91.7 130.1ZM94.9 103.8L99.8634 104.404L100.545 98.8H94.9V103.8ZM67.5 103.8L62.5339 103.219L61.8808 108.8H67.5V103.8ZM68.6 94.4V89.4H64.151L63.6339 93.8189L68.6 94.4ZM96.1 94.4V99.4H100.532L101.064 95.0003L96.1 94.4ZM98.7 72.9L103.664 73.5003L104.341 67.9H98.7V72.9ZM66.2 72.9L61.2332 72.3249L60.5876 77.9H66.2V72.9ZM67.3 63.4V58.4H62.8455L62.3332 62.8249L67.3 63.4ZM140.6 63.4L145.567 63.9751L146.212 58.4H140.6V63.4ZM139.5 72.9V77.9H143.954L144.467 73.4751L139.5 72.9ZM109.2 72.9V67.9H104.789L104.239 72.277L109.2 72.9ZM106.5 94.4V99.4H134.8V94.4V89.4H106.5V94.4ZM134.8 94.4L129.828 93.8711L128.828 103.271L133.8 103.8L138.772 104.329L139.772 94.9289L134.8 94.4ZM133.8 103.8V98.8H105.4V103.8V108.8H133.8V103.8ZM105.4 103.8L100.439 103.178L97.1389 129.478L102.1 130.1L107.061 130.722L110.361 104.422L105.4 103.8ZM102.1 130.1V135.1H140.2V130.1V125.1H102.1V130.1ZM140.2 130.1L135.233 129.525L134.133 139.025L139.1 139.6L144.067 140.175L145.167 130.675L140.2 130.1ZM139.1 139.6V134.6H57.2V139.6V144.6H139.1V139.6ZM57.2 139.6L62.1668 140.175L63.2668 130.675L58.3 130.1L53.3332 129.525L52.2332 139.025L57.2 139.6ZM58.3 130.1V135.1H91.7V130.1V125.1H58.3V130.1ZM91.7 130.1L96.6634 130.704L99.8634 104.404L94.9 103.8L89.9366 103.196L86.7366 129.496L91.7 130.1ZM94.9 103.8V98.8H67.5V103.8V108.8H94.9V103.8ZM67.5 103.8L72.4661 104.381L73.5661 94.9811L68.6 94.4L63.6339 93.8189L62.5339 103.219L67.5 103.8ZM68.6 94.4V99.4H96.1V94.4V89.4H68.6V94.4ZM96.1 94.4L101.064 95.0003L103.664 73.5003L98.7 72.9L93.7362 72.2997L91.1362 93.7997L96.1 94.4ZM98.7 72.9V67.9H66.2V72.9V77.9H98.7V72.9ZM66.2 72.9L71.1668 73.4751L72.2668 63.9751L67.3 63.4L62.3332 62.8249L61.2332 72.3249L66.2 72.9ZM67.3 63.4V68.4H140.6V63.4V58.4H67.3V63.4ZM140.6 63.4L135.633 62.8249L134.533 72.3249L139.5 72.9L144.467 73.4751L145.567 63.9751L140.6 63.4ZM139.5 72.9V67.9H109.2V72.9V77.9H139.5V72.9ZM109.2 72.9L104.239 72.277L101.539 93.777L106.5 94.4L111.461 95.023L114.161 73.523L109.2 72.9ZM170 65.6V60.6H165.554L165.034 65.0158L170 65.6ZM194.4 65.6V70.6H198.736L199.35 66.3071L194.4 65.6ZM195.6 57.2V52.2H191.264L190.65 56.4929L195.6 57.2ZM205.9 57.2L210.858 57.8492L211.597 52.2H205.9V57.2ZM204.8 65.6L199.842 64.9508L199.103 70.6H204.8V65.6ZM221.4 65.6L226.366 66.1842L227.023 60.6H221.4V65.6ZM220.4 74.1V79.1H224.846L225.366 74.6842L220.4 74.1ZM203.6 74.1V69.1H199.192L198.639 73.4734L203.6 74.1ZM202.4 83.6L197.439 82.9734L196.729 88.6H202.4V83.6ZM212.1 83.6V88.6H213.743L215.066 87.6253L212.1 83.6ZM231.7 63V58H229.036L227.55 60.2108L231.7 63ZM242.9 63L247.21 65.5351L251.642 58H242.9V63ZM226.6 83.6L223.184 79.9486L213.936 88.6H226.6V83.6ZM243.2 83.6L248.169 84.1583L248.793 78.6H243.2V83.6ZM242.2 92.5V97.5H246.67L247.169 93.0583L242.2 92.5ZM215.3 92.5V87.5H213.84L212.61 88.2854L215.3 92.5ZM208.5 96.7L210.915 101.078L210.948 101.06L210.981 101.041L208.5 96.7ZM205.6 98.3L207.953 102.712L207.984 102.695L208.015 102.678L205.6 98.3ZM202.6 99.9L200.247 95.4882L202.6 104.9V99.9ZM228.5 101.7L225.061 105.33L225.113 105.379L225.166 105.426L228.5 101.7ZM230.3 107.9L225.397 106.919L225.357 107.12L225.333 107.324L230.3 107.9ZM226.3 142.4V147.4H230.754L231.267 142.976L226.3 142.4ZM168.5 142.4L163.534 141.819L162.881 147.4H168.5V142.4ZM172 112.5L176.966 113.081L177.894 105.156L170.357 107.778L172 112.5ZM161.8 115.3L163.013 120.151L163.02 120.149L163.027 120.147L161.8 115.3ZM159.4 115.9L154.928 118.136L156.722 121.723L160.613 120.751L159.4 115.9ZM155.2 107.5L154.043 102.636L147.908 104.095L150.728 109.736L155.2 107.5ZM197.6 92.5L199.896 96.9414L197.6 87.5V92.5ZM159.2 92.5L154.238 91.8867L153.544 97.5H159.2V92.5ZM160.3 83.6V78.6H155.88L155.338 82.9867L160.3 83.6ZM192 83.6V88.6H196.362L196.954 84.2779L192 83.6ZM193.3 74.1L198.254 74.7779L199.031 69.1H193.3V74.1ZM169 74.1L164.034 73.5158L163.377 79.1H169V74.1ZM220 108.3L224.974 108.809L225.537 103.3H220V108.3ZM184.1 108.3V103.3H183.09L182.16 103.692L184.1 108.3ZM182.2 109.1L180.26 104.492L177.559 105.629L177.231 108.541L182.2 109.1ZM181.3 117.1L176.331 116.541L175.706 122.1H181.3V117.1ZM219.1 117.1V122.1H223.615L224.074 117.609L219.1 117.1ZM179.3 134L174.331 133.442L173.707 139H179.3V134ZM217.3 134V139H221.82L222.275 134.503L217.3 134ZM218.2 125.1L223.175 125.603L223.731 120.1H218.2V125.1ZM180.3 125.1V120.1H175.83L175.331 124.542L180.3 125.1ZM170 65.6V70.6H194.4V65.6V60.6H170V65.6ZM194.4 65.6L199.35 66.3071L200.55 57.9071L195.6 57.2L190.65 56.4929L189.45 64.8929L194.4 65.6ZM195.6 57.2V62.2H205.9V57.2V52.2H195.6V57.2ZM205.9 57.2L200.942 56.5508L199.842 64.9508L204.8 65.6L209.758 66.2492L210.858 57.8492L205.9 57.2ZM204.8 65.6V70.6H221.4V65.6V60.6H204.8V65.6ZM221.4 65.6L216.434 65.0158L215.434 73.5158L220.4 74.1L225.366 74.6842L226.366 66.1842L221.4 65.6ZM220.4 74.1V69.1H203.6V74.1V79.1H220.4V74.1ZM203.6 74.1L198.639 73.4734L197.439 82.9734L202.4 83.6L207.361 84.2266L208.561 74.7266L203.6 74.1ZM202.4 83.6V88.6H212.1V83.6V78.6H202.4V83.6ZM212.1 83.6L215.066 87.6253C223.146 81.6714 230.075 74.3811 235.85 65.7892L231.7 63L227.55 60.2108C222.392 67.8855 216.254 74.3286 209.134 79.5747L212.1 83.6ZM231.7 63V68H242.9V63V58H231.7V63ZM242.9 63L238.59 60.4649C234.146 68.0198 229.006 74.5023 223.184 79.9486L226.6 83.6L230.016 87.2514C236.594 81.0977 242.32 73.8469 247.21 65.5351L242.9 63ZM226.6 83.6V88.6H243.2V83.6V78.6H226.6V83.6ZM243.2 83.6L238.231 83.0417L237.231 91.9417L242.2 92.5L247.169 93.0583L248.169 84.1583L243.2 83.6ZM242.2 92.5V87.5H215.3V92.5V97.5H242.2V92.5ZM215.3 92.5L212.61 88.2854C209.48 90.283 207.304 91.6249 206.019 92.3588L208.5 96.7L210.981 101.041C212.496 100.175 214.853 98.717 217.99 96.7146L215.3 92.5ZM208.5 96.7L206.085 92.3221L203.185 93.9221L205.6 98.3L208.015 102.678L210.915 101.078L208.5 96.7ZM205.6 98.3L203.247 93.8882L200.247 95.4882L202.6 99.9L204.953 104.312L207.953 102.712L205.6 98.3ZM202.6 99.9V104.9H223.3V99.9V94.9H202.6V99.9ZM223.3 99.9V104.9C224.569 104.9 224.949 105.223 225.061 105.33L228.5 101.7L231.939 98.0702C229.518 95.7768 226.431 94.9 223.3 94.9V99.9ZM228.5 101.7L225.166 105.426C225.233 105.486 225.261 105.529 225.289 105.599C225.326 105.688 225.4 105.927 225.4 106.4H230.4H235.4C235.4 103.253 234.35 100.225 231.834 97.9738L228.5 101.7ZM230.4 106.4H225.4C225.4 106.656 225.393 106.832 225.386 106.942C225.384 106.968 225.383 106.988 225.381 107.002C225.381 107.009 225.38 107.014 225.38 107.018C225.38 107.021 225.379 107.023 225.379 107.023C225.379 107.023 225.38 107.021 225.38 107.017C225.381 107.013 225.382 107.007 225.383 106.999C225.385 106.983 225.39 106.956 225.397 106.919L230.3 107.9L235.203 108.881C235.37 108.048 235.4 107.146 235.4 106.4H230.4ZM230.3 107.9L225.333 107.324L221.333 141.824L226.3 142.4L231.267 142.976L235.267 108.476L230.3 107.9ZM226.3 142.4V137.4H168.5V142.4V147.4H226.3V142.4ZM168.5 142.4L173.466 142.981L176.966 113.081L172 112.5L167.034 111.919L163.534 141.819L168.5 142.4ZM172 112.5L170.357 107.778C169.069 108.226 165.892 109.106 160.573 110.453L161.8 115.3L163.027 120.147C168.242 118.827 171.865 117.841 173.643 117.222L172 112.5ZM161.8 115.3L160.587 110.449L158.187 111.049L159.4 115.9L160.613 120.751L163.013 120.151L161.8 115.3ZM159.4 115.9L163.872 113.664L159.672 105.264L155.2 107.5L150.728 109.736L154.928 118.136L159.4 115.9ZM155.2 107.5L156.357 112.364C173.18 108.362 187.716 103.239 199.896 96.9414L197.6 92.5L195.304 88.0586C184.017 93.8941 170.287 98.7712 154.043 102.636L155.2 107.5ZM197.6 92.5V87.5H159.2V92.5V97.5H197.6V92.5ZM159.2 92.5L164.162 93.1133L165.262 84.2133L160.3 83.6L155.338 82.9867L154.238 91.8867L159.2 92.5ZM160.3 83.6V88.6H192V83.6V78.6H160.3V83.6ZM192 83.6L196.954 84.2779L198.254 74.7779L193.3 74.1L188.346 73.4221L187.046 82.9221L192 83.6ZM193.3 74.1V69.1H169V74.1V79.1H193.3V74.1ZM169 74.1L173.966 74.6842L174.966 66.1842L170 65.6L165.034 65.0158L164.034 73.5158L169 74.1ZM220 108.3V103.3H184.1V108.3V113.3H220V108.3ZM184.1 108.3L182.16 103.692L180.26 104.492L182.2 109.1L184.14 113.708L186.04 112.908L184.1 108.3ZM182.2 109.1L177.231 108.541L176.331 116.541L181.3 117.1L186.269 117.659L187.169 109.659L182.2 109.1ZM181.3 117.1V122.1H219.1V117.1V112.1H181.3V117.1ZM219.1 117.1L224.074 117.609L224.974 108.809L220 108.3L215.026 107.791L214.126 116.591L219.1 117.1ZM179.3 134V139H217.3V134V129H179.3V134ZM217.3 134L222.275 134.503L223.175 125.603L218.2 125.1L213.225 124.597L212.325 133.497L217.3 134ZM218.2 125.1V120.1H180.3V125.1V130.1H218.2V125.1ZM180.3 125.1L175.331 124.542L174.331 133.442L179.3 134L184.269 134.558L185.269 125.658L180.3 125.1Z" fill="#810300" mask="url(#path-4-outside-1_17_12)"/>
</svg>
