<svg width="300" height="200" viewBox="0 0 300 200" fill="none" xmlns="http://www.w3.org/2000/svg">
<path d="M45.8187 188.189C34.6138 188.189 25.498 179.073 25.498 167.87V32.4308C25.498 21.2259 34.6138 12.1101 45.8187 12.1101H253.535C264.738 12.1101 273.853 21.2259 273.853 32.4308V167.87C273.853 179.073 264.738 188.189 253.535 188.189H45.8187Z" fill="#C5CBCE"/>
<path d="M253.534 14.369C258.33 14.369 262.875 16.2595 266.29 19.6744C269.705 23.0893 271.596 27.6323 271.596 32.4308V167.87C271.596 172.667 269.705 177.21 266.29 180.625C262.875 184.041 258.33 185.932 253.534 185.932H45.818C41.0195 185.932 36.4764 184.041 33.0616 180.625C29.6467 177.21 27.7561 172.666 27.7561 167.87V32.4308C27.7561 27.6323 29.6467 23.0893 33.0616 19.6744C36.4764 16.2595 41.0195 14.369 45.818 14.369H253.534ZM253.534 9.85306H45.818C33.4006 9.85306 23.2402 20.0134 23.2402 32.4308V167.87C23.2402 180.287 33.4006 190.447 45.818 190.447H253.534C265.951 190.447 276.112 180.287 276.112 167.87V32.4308C276.112 20.0134 265.951 9.85306 253.534 9.85306Z" fill="#959A9D"/>
<path d="M253.448 179.779H44.8865C38.6787 179.779 33.5977 174.7 33.5977 168.49V32.6569C33.5977 26.4474 38.6787 21.3681 44.8865 21.3681H253.449C259.658 21.3681 264.738 26.4474 264.738 32.6569V168.49C264.737 174.699 259.657 179.779 253.448 179.779Z" fill="#899396"/>
<mask id="path-4-outside-1_14_29" maskUnits="userSpaceOnUse" x="55" y="52" width="198" height="99" fill="black">
<rect fill="white" x="55" y="52" width="198" height="99"/>
<path d="M128.1 142.4H60.8L68.8 78.5C69.6 72.9 72.6 70.1 77.8 70.1H91.1L96.4 57.9H107.6L102.2 70.1H127.5C133.3 70.1 136.2 72.8 136.2 78.2C136.2 78.6667 136.133 79.4333 136 80.5L128.1 142.4ZM125.8 79.5H79L76.2 100.2H123.1L125.8 79.5ZM71.9 133.1H119L122 109.3H75L71.9 133.1ZM193.8 66.2L192.8 75.2H166.1C165.033 75.2 164.2 74.9333 163.6 74.4C163 73.8 162.7 73.0333 162.7 72.1C162.7 71.5667 162.867 70.8667 163.2 70L167.4 59.1H177.1L174.8 66.2H193.8ZM217.5 105.2C218.567 108.467 219.867 111.7 221.4 114.9C226.933 112.833 232.433 110.5 237.9 107.9L236.9 117.4C233.7 118.933 229.933 120.467 225.6 122C227.733 125.133 230.2 128.033 233 130.7C235.867 133.367 239.3 136.1 243.3 138.9L234.4 144.2C228.133 139.267 222.9 133.667 218.7 127.4C214.567 121.133 211.1 113.733 208.3 105.2H203.4L200.8 131V131.9C200.8 132.5 200.967 132.8 201.3 132.8C201.7 132.8 202.267 132.667 203 132.4C203.933 132.2 204.9 131.9 205.9 131.5C206.633 131.3 207.733 130.933 209.2 130.4C210 130.133 212.033 129.467 215.3 128.4L215 138.5L208.6 140.6L204.6 141.8L200.5 143C199.1 143.4 197.833 143.6 196.7 143.6C193.033 143.6 191.2 141.367 191.2 136.9C191.2 136.433 191.267 135.6 191.4 134.4L197.6 70C198 66.9333 198.9 64.7667 200.3 63.5C201.767 62.2333 204.167 61.6 207.5 61.6H231.7C237.433 61.6 240.3 64.1 240.3 69.1C240.3 69.8333 240.267 70.4 240.2 70.8L237.1 105.2H217.5ZM231 70.3H207L206 79.4H230.2L231 70.3ZM190.5 105.9L189.5 114.9H176.5L174.7 130.2V130.7C174.7 131.233 174.8 131.567 175 131.7C175.2 131.833 175.567 131.833 176.1 131.7C181.767 129.7 185.433 128.333 187.1 127.6L186 137.7C182.867 138.9 180.267 139.833 178.2 140.5C176.2 141.167 173.933 141.7 171.4 142.1C171.067 142.167 170.6 142.2 170 142.2C168.333 142.2 167 141.667 166 140.6C165.067 139.533 164.6 138.067 164.6 136.2C164.6 135.533 164.633 135.033 164.7 134.7L167.1 114.9H157.9L158.9 105.9H168.2L169.6 94.4H160.1L161.1 85.4H191.5L190.5 94.4H179L177.6 105.9H190.5ZM229.4 87.4H205.2L204.3 96.5H228.6L229.4 87.4Z"/>
</mask>
<path d="M128.1 142.4H60.8L68.8 78.5C69.6 72.9 72.6 70.1 77.8 70.1H91.1L96.4 57.9H107.6L102.2 70.1H127.5C133.3 70.1 136.2 72.8 136.2 78.2C136.2 78.6667 136.133 79.4333 136 80.5L128.1 142.4ZM125.8 79.5H79L76.2 100.2H123.1L125.8 79.5ZM71.9 133.1H119L122 109.3H75L71.9 133.1ZM193.8 66.2L192.8 75.2H166.1C165.033 75.2 164.2 74.9333 163.6 74.4C163 73.8 162.7 73.0333 162.7 72.1C162.7 71.5667 162.867 70.8667 163.2 70L167.4 59.1H177.1L174.8 66.2H193.8ZM217.5 105.2C218.567 108.467 219.867 111.7 221.4 114.9C226.933 112.833 232.433 110.5 237.9 107.9L236.9 117.4C233.7 118.933 229.933 120.467 225.6 122C227.733 125.133 230.2 128.033 233 130.7C235.867 133.367 239.3 136.1 243.3 138.9L234.4 144.2C228.133 139.267 222.9 133.667 218.7 127.4C214.567 121.133 211.1 113.733 208.3 105.2H203.4L200.8 131V131.9C200.8 132.5 200.967 132.8 201.3 132.8C201.7 132.8 202.267 132.667 203 132.4C203.933 132.2 204.9 131.9 205.9 131.5C206.633 131.3 207.733 130.933 209.2 130.4C210 130.133 212.033 129.467 215.3 128.4L215 138.5L208.6 140.6L204.6 141.8L200.5 143C199.1 143.4 197.833 143.6 196.7 143.6C193.033 143.6 191.2 141.367 191.2 136.9C191.2 136.433 191.267 135.6 191.4 134.4L197.6 70C198 66.9333 198.9 64.7667 200.3 63.5C201.767 62.2333 204.167 61.6 207.5 61.6H231.7C237.433 61.6 240.3 64.1 240.3 69.1C240.3 69.8333 240.267 70.4 240.2 70.8L237.1 105.2H217.5ZM231 70.3H207L206 79.4H230.2L231 70.3ZM190.5 105.9L189.5 114.9H176.5L174.7 130.2V130.7C174.7 131.233 174.8 131.567 175 131.7C175.2 131.833 175.567 131.833 176.1 131.7C181.767 129.7 185.433 128.333 187.1 127.6L186 137.7C182.867 138.9 180.267 139.833 178.2 140.5C176.2 141.167 173.933 141.7 171.4 142.1C171.067 142.167 170.6 142.2 170 142.2C168.333 142.2 167 141.667 166 140.6C165.067 139.533 164.6 138.067 164.6 136.2C164.6 135.533 164.633 135.033 164.7 134.7L167.1 114.9H157.9L158.9 105.9H168.2L169.6 94.4H160.1L161.1 85.4H191.5L190.5 94.4H179L177.6 105.9H190.5ZM229.4 87.4H205.2L204.3 96.5H228.6L229.4 87.4Z" fill="#D3DADD"/>
<path d="M128.1 142.4V147.4H132.502L133.06 143.033L128.1 142.4ZM60.8 142.4L55.8387 141.779L55.135 147.4H60.8V142.4ZM68.8 78.5L63.8503 77.7929L63.8441 77.8358L63.8387 77.8789L68.8 78.5ZM91.1 70.1V75.1H94.3793L95.686 72.0923L91.1 70.1ZM96.4 57.9V52.9H93.1207L91.8141 55.9077L96.4 57.9ZM107.6 57.9L112.172 59.9237L115.281 52.9H107.6V57.9ZM102.2 70.1L97.6279 68.0763L94.519 75.1H102.2V70.1ZM136 80.5L140.96 81.133L140.961 81.1202L136 80.5ZM125.8 79.5L130.758 80.1467L131.495 74.5H125.8V79.5ZM79 79.5V74.5H74.6308L74.0451 78.8298L79 79.5ZM76.2 100.2L71.2451 99.5298L70.4781 105.2H76.2V100.2ZM123.1 100.2V105.2H127.49L128.058 100.847L123.1 100.2ZM71.9 133.1L66.9419 132.454L66.2065 138.1H71.9V133.1ZM119 133.1V138.1H123.409L123.961 133.725L119 133.1ZM122 109.3L126.961 109.925L127.67 104.3H122V109.3ZM75 109.3V104.3H70.609L70.0419 108.654L75 109.3ZM128.1 142.4V137.4H60.8V142.4V147.4H128.1V142.4ZM60.8 142.4L65.7613 143.021L73.7613 79.1211L68.8 78.5L63.8387 77.8789L55.8387 141.779L60.8 142.4ZM68.8 78.5L73.7497 79.2071C74.0489 77.1133 74.6621 76.2281 75.0616 75.8553C75.407 75.5329 76.1144 75.1 77.8 75.1V70.1V65.1C74.2856 65.1 70.893 66.0671 68.2384 68.5447C65.6379 70.9719 64.3511 74.2867 63.8503 77.7929L68.8 78.5ZM77.8 70.1V75.1H91.1V70.1V65.1H77.8V70.1ZM91.1 70.1L95.686 72.0923L100.986 59.8923L96.4 57.9L91.8141 55.9077L86.5141 68.1077L91.1 70.1ZM96.4 57.9V62.9H107.6V57.9V52.9H96.4V57.9ZM107.6 57.9L103.028 55.8763L97.6279 68.0763L102.2 70.1L106.772 72.1237L112.172 59.9237L107.6 57.9ZM102.2 70.1V75.1H127.5V70.1V65.1H102.2V70.1ZM127.5 70.1V75.1C129.715 75.1 130.444 75.6227 130.618 75.7845C130.724 75.8835 131.2 76.3659 131.2 78.2H136.2H141.2C141.2 74.6341 140.226 71.0665 137.432 68.4655C134.706 65.9273 131.085 65.1 127.5 65.1V70.1ZM136.2 78.2H131.2C131.2 78.1997 131.2 78.2109 131.199 78.2353C131.199 78.2594 131.197 78.2928 131.195 78.3364C131.19 78.4248 131.182 78.542 131.169 78.6919C131.143 78.9938 131.1 79.3864 131.039 79.8798L136 80.5L140.961 81.1202C141.096 80.0427 141.2 79.0057 141.2 78.2H136.2ZM136 80.5L131.04 79.867L123.14 141.767L128.1 142.4L133.06 143.033L140.96 81.133L136 80.5ZM125.8 79.5V74.5H79V79.5V84.5H125.8V79.5ZM79 79.5L74.0451 78.8298L71.2451 99.5298L76.2 100.2L81.1549 100.87L83.9549 80.1702L79 79.5ZM76.2 100.2V105.2H123.1V100.2V95.2H76.2V100.2ZM123.1 100.2L128.058 100.847L130.758 80.1467L125.8 79.5L120.842 78.8533L118.142 99.5533L123.1 100.2ZM71.9 133.1V138.1H119V133.1V128.1H71.9V133.1ZM119 133.1L123.961 133.725L126.961 109.925L122 109.3L117.039 108.675L114.039 132.475L119 133.1ZM122 109.3V104.3H75V109.3V114.3H122V109.3ZM75 109.3L70.0419 108.654L66.9419 132.454L71.9 133.1L76.8581 133.746L79.9581 109.946L75 109.3ZM193.8 66.2L198.769 66.7522L199.386 61.2H193.8V66.2ZM192.8 75.2V80.2H197.275L197.769 75.7522L192.8 75.2ZM163.6 74.4L160.064 77.9355L160.168 78.0394L160.278 78.137L163.6 74.4ZM163.2 70L158.534 68.2022L158.533 68.2051L163.2 70ZM167.4 59.1V54.1H163.968L162.734 57.3022L167.4 59.1ZM177.1 59.1L181.857 60.6409L183.976 54.1H177.1V59.1ZM174.8 66.2L170.043 64.6591L167.924 71.2H174.8V66.2ZM217.5 105.2V100.2H210.608L212.747 106.752L217.5 105.2ZM221.4 114.9L216.891 117.061L218.867 121.184L223.149 119.584L221.4 114.9ZM237.9 107.9L242.873 108.423L243.806 99.5543L235.752 103.385L237.9 107.9ZM236.9 117.4L239.061 121.909L241.58 120.702L241.873 117.923L236.9 117.4ZM225.6 122L223.932 117.286L217.815 119.451L221.467 124.814L225.6 122ZM233 130.7L229.552 134.321L229.573 134.341L229.594 134.361L233 130.7ZM243.3 138.9L245.858 143.196L252.503 139.239L246.167 134.804L243.3 138.9ZM234.4 144.2L231.307 148.129L234.007 150.254L236.958 148.496L234.4 144.2ZM218.7 127.4L214.526 130.153L214.536 130.168L214.547 130.184L218.7 127.4ZM208.3 105.2L213.051 103.641L211.922 100.2H208.3V105.2ZM203.4 105.2V100.2H198.879L198.425 104.699L203.4 105.2ZM200.8 131L195.825 130.499L195.8 130.749V131H200.8ZM203 132.4L201.952 127.511L201.615 127.583L201.291 127.701L203 132.4ZM205.9 131.5L204.584 126.676L204.309 126.751L204.043 126.858L205.9 131.5ZM209.2 130.4L207.619 125.657L207.555 125.678L207.491 125.701L209.2 130.4ZM215.3 128.4L220.298 128.548L220.509 121.439L213.748 123.647L215.3 128.4ZM215 138.5L216.559 143.251L219.894 142.157L219.998 138.648L215 138.5ZM208.6 140.6L210.037 145.389L210.098 145.371L210.159 145.351L208.6 140.6ZM204.6 141.8L206.005 146.599L206.021 146.594L206.037 146.589L204.6 141.8ZM200.5 143L201.874 147.808L201.889 147.803L201.904 147.799L200.5 143ZM191.4 134.4L196.369 134.952L196.373 134.916L196.377 134.879L191.4 134.4ZM197.6 70L192.642 69.3533L192.631 69.4369L192.623 69.5208L197.6 70ZM200.3 63.5L197.032 59.7159L196.988 59.7536L196.945 59.7923L200.3 63.5ZM240.2 70.8L235.268 69.978L235.237 70.1637L235.22 70.3512L240.2 70.8ZM237.1 105.2V110.2H241.67L242.08 105.649L237.1 105.2ZM231 70.3L235.981 70.7379L236.459 65.3H231V70.3ZM207 70.3V65.3H202.519L202.03 69.7538L207 70.3ZM206 79.4L201.03 78.8538L200.42 84.4H206V79.4ZM230.2 79.4V84.4H234.78L235.181 79.8379L230.2 79.4ZM190.5 105.9L195.469 106.452L196.086 100.9H190.5V105.9ZM189.5 114.9V119.9H193.975L194.469 115.452L189.5 114.9ZM176.5 114.9V109.9H172.054L171.534 114.316L176.5 114.9ZM174.7 130.2L169.734 129.616L169.7 129.907V130.2H174.7ZM175 131.7L177.774 127.54L177.773 127.54L175 131.7ZM176.1 131.7L177.313 136.551L177.542 136.493L177.764 136.415L176.1 131.7ZM187.1 127.6L192.071 128.141L193.008 119.538L185.086 123.023L187.1 127.6ZM186 137.7L187.788 142.369L190.64 141.277L190.971 138.241L186 137.7ZM178.2 140.5L176.665 135.741L176.642 135.749L176.619 135.757L178.2 140.5ZM171.4 142.1L170.62 137.161L170.519 137.177L170.419 137.197L171.4 142.1ZM166 140.6L162.237 143.893L162.294 143.957L162.352 144.02L166 140.6ZM164.7 134.7L169.603 135.681L169.641 135.492L169.664 135.302L164.7 134.7ZM167.1 114.9L172.064 115.502L172.743 109.9H167.1V114.9ZM157.9 114.9L152.931 114.348L152.314 119.9H157.9V114.9ZM158.9 105.9V100.9H154.425L153.931 105.348L158.9 105.9ZM168.2 105.9V110.9H172.628L173.163 106.504L168.2 105.9ZM169.6 94.4L174.563 95.0042L175.246 89.4H169.6V94.4ZM160.1 94.4L155.131 93.8478L154.514 99.4H160.1V94.4ZM161.1 85.4V80.4H156.625L156.131 84.8478L161.1 85.4ZM191.5 85.4L196.469 85.9522L197.086 80.4H191.5V85.4ZM190.5 94.4V99.4H194.975L195.469 94.9522L190.5 94.4ZM179 94.4V89.4H174.572L174.037 93.7958L179 94.4ZM177.6 105.9L172.637 105.296L171.954 110.9H177.6V105.9ZM229.4 87.4L234.381 87.8379L234.859 82.4H229.4V87.4ZM205.2 87.4V82.4H200.67L200.224 86.9079L205.2 87.4ZM204.3 96.5L199.324 96.0079L198.781 101.5H204.3V96.5ZM228.6 96.5V101.5H233.18L233.581 96.9379L228.6 96.5ZM193.8 66.2L188.831 65.6478L187.831 74.6478L192.8 75.2L197.769 75.7522L198.769 66.7522L193.8 66.2ZM192.8 75.2V70.2H166.1V75.2V80.2H192.8V75.2ZM166.1 75.2V70.2C165.975 70.2 166.029 70.1834 166.199 70.2379C166.386 70.2978 166.655 70.426 166.922 70.663L163.6 74.4L160.278 78.137C162.059 79.72 164.218 80.2 166.1 80.2V75.2ZM163.6 74.4L167.136 70.8645C167.308 71.0369 167.472 71.2741 167.581 71.553C167.687 71.8226 167.7 72.0259 167.7 72.1H162.7H157.7C157.7 74.2138 158.429 76.2997 160.064 77.9355L163.6 74.4ZM162.7 72.1H167.7C167.7 72.2239 167.691 72.3062 167.686 72.3383C167.682 72.3714 167.68 72.3711 167.689 72.3331C167.709 72.2511 167.758 72.0768 167.867 71.7949L163.2 70L158.533 68.2051C158.118 69.2844 157.7 70.659 157.7 72.1H162.7ZM163.2 70L167.866 71.7978L172.066 60.8978L167.4 59.1L162.734 57.3022L158.534 68.2022L163.2 70ZM167.4 59.1V64.1H177.1V59.1V54.1H167.4V59.1ZM177.1 59.1L172.343 57.5591L170.043 64.6591L174.8 66.2L179.557 67.7409L181.857 60.6409L177.1 59.1ZM174.8 66.2V71.2H193.8V66.2V61.2H174.8V66.2ZM217.5 105.2L212.747 106.752C213.884 110.233 215.266 113.67 216.891 117.061L221.4 114.9L225.909 112.739C224.467 109.73 223.25 106.7 222.253 103.648L217.5 105.2ZM221.4 114.9L223.149 119.584C228.821 117.466 234.454 115.076 240.048 112.415L237.9 107.9L235.752 103.385C230.413 105.924 225.046 108.201 219.651 110.216L221.4 114.9ZM237.9 107.9L232.927 107.377L231.927 116.877L236.9 117.4L241.873 117.923L242.873 108.423L237.9 107.9ZM236.9 117.4L234.739 112.891C231.739 114.329 228.144 115.796 223.932 117.286L225.6 122L227.268 126.714C231.723 125.137 235.661 123.538 239.061 121.909L236.9 117.4ZM225.6 122L221.467 124.814C223.803 128.245 226.501 131.415 229.552 134.321L233 130.7L236.448 127.079C233.899 124.652 231.663 122.021 229.733 119.186L225.6 122ZM233 130.7L229.594 134.361C232.666 137.218 236.288 140.095 240.433 142.996L243.3 138.9L246.167 134.804C242.312 132.105 239.068 129.516 236.406 127.039L233 130.7ZM243.3 138.9L240.742 134.604L231.842 139.904L234.4 144.2L236.958 148.496L245.858 143.196L243.3 138.9ZM234.4 144.2L237.493 140.271C231.614 135.643 226.746 130.424 222.853 124.616L218.7 127.4L214.547 130.184C219.054 136.909 224.653 142.89 231.307 148.129L234.4 144.2ZM218.7 127.4L222.874 124.647C219.027 118.815 215.739 111.832 213.051 103.641L208.3 105.2L203.549 106.759C206.461 115.634 210.106 123.451 214.526 130.153L218.7 127.4ZM208.3 105.2V100.2H203.4V105.2V110.2H208.3V105.2ZM203.4 105.2L198.425 104.699L195.825 130.499L200.8 131L205.775 131.501L208.375 105.701L203.4 105.2ZM200.8 131H195.8V131.9H200.8H205.8V131H200.8ZM200.8 131.9H195.8C195.8 132.499 195.855 133.744 196.554 135.003C196.946 135.708 197.57 136.468 198.509 137.031C199.455 137.599 200.443 137.8 201.3 137.8V132.8V127.8C201.99 127.8 202.833 127.964 203.654 128.456C204.467 128.944 204.987 129.592 205.296 130.147C205.588 130.673 205.701 131.13 205.748 131.383C205.796 131.647 205.8 131.833 205.8 131.9H200.8ZM201.3 132.8V137.8C202.605 137.8 203.846 137.413 204.709 137.099L203 132.4L201.291 127.701C201.176 127.743 201.083 127.774 201.011 127.796C200.938 127.818 200.896 127.829 200.88 127.833C200.863 127.837 200.887 127.83 200.948 127.822C200.979 127.818 201.024 127.812 201.082 127.808C201.138 127.804 201.212 127.8 201.3 127.8V132.8ZM203 132.4L204.048 137.289C205.29 137.023 206.527 136.634 207.757 136.142L205.9 131.5L204.043 126.858C203.273 127.166 202.577 127.377 201.952 127.511L203 132.4ZM205.9 131.5L207.216 136.324C208.157 136.067 209.417 135.641 210.909 135.099L209.2 130.4L207.491 125.701C206.049 126.225 205.109 126.533 204.584 126.676L205.9 131.5ZM209.2 130.4L210.781 135.143C211.563 134.883 213.58 134.222 216.852 133.153L215.3 128.4L213.748 123.647C210.487 124.712 208.437 125.384 207.619 125.657L209.2 130.4ZM215.3 128.4L210.302 128.252L210.002 138.352L215 138.5L219.998 138.648L220.298 128.548L215.3 128.4ZM215 138.5L213.441 133.749L207.041 135.849L208.6 140.6L210.159 145.351L216.559 143.251L215 138.5ZM208.6 140.6L207.163 135.811L203.163 137.011L204.6 141.8L206.037 146.589L210.037 145.389L208.6 140.6ZM204.6 141.8L203.196 137.001L199.096 138.201L200.5 143L201.904 147.799L206.005 146.599L204.6 141.8ZM200.5 143L199.126 138.192C198.053 138.499 197.259 138.6 196.7 138.6V143.6V148.6C198.408 148.6 200.147 148.301 201.874 147.808L200.5 143ZM196.7 143.6V138.6C196.281 138.6 196.142 138.535 196.175 138.549C196.238 138.574 196.354 138.648 196.44 138.753C196.508 138.836 196.447 138.806 196.366 138.512C196.283 138.206 196.2 137.691 196.2 136.9H191.2H186.2C186.2 139.691 186.753 142.713 188.71 145.097C190.823 147.671 193.807 148.6 196.7 148.6V143.6ZM191.2 136.9H196.2C196.2 136.9 196.2 136.897 196.2 136.889C196.2 136.882 196.2 136.871 196.201 136.857C196.202 136.828 196.203 136.789 196.206 136.737C196.211 136.634 196.22 136.497 196.234 136.324C196.262 135.975 196.306 135.521 196.369 134.952L191.4 134.4L186.431 133.848C186.299 135.033 186.2 136.121 186.2 136.9H191.2ZM191.4 134.4L196.377 134.879L202.577 70.4791L197.6 70L192.623 69.5208L186.423 133.921L191.4 134.4ZM197.6 70L202.558 70.6467C202.896 68.0581 203.547 67.3052 203.655 67.2077L200.3 63.5L196.945 59.7923C194.253 62.2281 193.104 65.8086 192.642 69.3533L197.6 70ZM200.3 63.5L203.568 67.2841C203.669 67.1973 204.577 66.6 207.5 66.6V61.6V56.6C203.756 56.6 199.865 57.2694 197.032 59.7159L200.3 63.5ZM207.5 61.6V66.6H231.7V61.6V56.6H207.5V61.6ZM231.7 61.6V66.6C233.951 66.6 234.706 67.1056 234.864 67.2433C234.891 67.267 235.3 67.5623 235.3 69.1H240.3H245.3C245.3 65.6377 244.276 62.183 241.436 59.7067C238.728 57.3444 235.182 56.6 231.7 56.6V61.6ZM240.3 69.1H235.3C235.3 69.3953 235.293 69.6191 235.284 69.7814C235.274 69.9517 235.263 70.0065 235.268 69.978L240.2 70.8L245.132 71.622C245.266 70.8158 245.3 69.9265 245.3 69.1H240.3ZM240.2 70.8L235.22 70.3512L232.12 104.751L237.1 105.2L242.08 105.649L245.18 71.2488L240.2 70.8ZM237.1 105.2V100.2H217.5V105.2V110.2H237.1V105.2ZM231 70.3V65.3H207V70.3V75.3H231V70.3ZM207 70.3L202.03 69.7538L201.03 78.8538L206 79.4L210.97 79.9462L211.97 70.8462L207 70.3ZM206 79.4V84.4H230.2V79.4V74.4H206V79.4ZM230.2 79.4L235.181 79.8379L235.981 70.7379L231 70.3L226.019 69.8621L225.219 78.9621L230.2 79.4ZM190.5 105.9L185.531 105.348L184.531 114.348L189.5 114.9L194.469 115.452L195.469 106.452L190.5 105.9ZM189.5 114.9V109.9H176.5V114.9V119.9H189.5V114.9ZM176.5 114.9L171.534 114.316L169.734 129.616L174.7 130.2L179.666 130.784L181.466 115.484L176.5 114.9ZM174.7 130.2H169.7V130.7H174.7H179.7V130.2H174.7ZM174.7 130.7H169.7C169.7 131.224 169.743 131.976 169.986 132.787C170.224 133.581 170.806 134.913 172.227 135.86L175 131.7L177.773 127.54C178.994 128.353 179.426 129.452 179.564 129.913C179.642 130.172 179.673 130.375 179.686 130.489C179.699 130.608 179.7 130.682 179.7 130.7H174.7ZM175 131.7L172.226 135.86C173.474 136.692 174.738 136.8 175.425 136.8C176.166 136.8 176.826 136.672 177.313 136.551L176.1 131.7L174.887 126.849C174.841 126.861 175.051 126.8 175.425 126.8C175.745 126.8 176.726 126.841 177.774 127.54L175 131.7ZM176.1 131.7L177.764 136.415C183.389 134.43 187.242 133 189.114 132.177L187.1 127.6L185.086 123.023C183.624 123.667 180.145 124.97 174.436 126.985L176.1 131.7ZM187.1 127.6L182.129 127.059L181.029 137.159L186 137.7L190.971 138.241L192.071 128.141L187.1 127.6ZM186 137.7L184.212 133.031C181.122 134.214 178.614 135.113 176.665 135.741L178.2 140.5L179.735 145.259C181.919 144.554 184.611 143.586 187.788 142.369L186 137.7ZM178.2 140.5L176.619 135.757C174.929 136.32 172.938 136.795 170.62 137.161L171.4 142.1L172.18 147.039C174.929 146.605 177.471 146.013 179.781 145.243L178.2 140.5ZM171.4 142.1L170.419 137.197C170.519 137.177 170.539 137.181 170.444 137.188C170.357 137.194 170.212 137.2 170 137.2V142.2V147.2C170.72 147.2 171.569 147.165 172.381 147.003L171.4 142.1ZM170 142.2V137.2C169.702 137.2 169.596 137.153 169.607 137.158C169.61 137.159 169.624 137.165 169.64 137.176C169.656 137.187 169.659 137.192 169.648 137.18L166 140.6L162.352 144.02C164.434 146.24 167.164 147.2 170 147.2V142.2ZM166 140.6L169.763 137.307C169.786 137.334 169.758 137.319 169.715 137.184C169.666 137.032 169.6 136.724 169.6 136.2H164.6H159.6C159.6 138.887 160.282 141.658 162.237 143.893L166 140.6ZM164.6 136.2H169.6C169.6 135.944 169.607 135.768 169.614 135.658C169.616 135.632 169.617 135.612 169.619 135.598C169.619 135.591 169.62 135.586 169.62 135.582C169.62 135.579 169.621 135.577 169.621 135.577C169.621 135.577 169.62 135.579 169.62 135.583C169.619 135.587 169.618 135.593 169.617 135.601C169.615 135.617 169.61 135.644 169.603 135.681L164.7 134.7L159.797 133.719C159.631 134.552 159.6 135.454 159.6 136.2H164.6ZM164.7 134.7L169.664 135.302L172.064 115.502L167.1 114.9L162.136 114.298L159.736 134.098L164.7 134.7ZM167.1 114.9V109.9H157.9V114.9V119.9H167.1V114.9ZM157.9 114.9L162.869 115.452L163.869 106.452L158.9 105.9L153.931 105.348L152.931 114.348L157.9 114.9ZM158.9 105.9V110.9H168.2V105.9V100.9H158.9V105.9ZM168.2 105.9L173.163 106.504L174.563 95.0042L169.6 94.4L164.637 93.7958L163.237 105.296L168.2 105.9ZM169.6 94.4V89.4H160.1V94.4V99.4H169.6V94.4ZM160.1 94.4L165.069 94.9522L166.069 85.9522L161.1 85.4L156.131 84.8478L155.131 93.8478L160.1 94.4ZM161.1 85.4V90.4H191.5V85.4V80.4H161.1V85.4ZM191.5 85.4L186.531 84.8478L185.531 93.8478L190.5 94.4L195.469 94.9522L196.469 85.9522L191.5 85.4ZM190.5 94.4V89.4H179V94.4V99.4H190.5V94.4ZM179 94.4L174.037 93.7958L172.637 105.296L177.6 105.9L182.563 106.504L183.963 95.0042L179 94.4ZM177.6 105.9V110.9H190.5V105.9V100.9H177.6V105.9ZM229.4 87.4V82.4H205.2V87.4V92.4H229.4V87.4ZM205.2 87.4L200.224 86.9079L199.324 96.0079L204.3 96.5L209.276 96.9921L210.176 87.8921L205.2 87.4ZM204.3 96.5V101.5H228.6V96.5V91.5H204.3V96.5ZM228.6 96.5L233.581 96.9379L234.381 87.8379L229.4 87.4L224.419 86.9621L223.619 96.0621L228.6 96.5Z" fill="#5D6466" mask="url(#path-4-outside-1_14_29)"/>
</svg>
