<svg width="300" height="200" viewBox="0 0 300 200" fill="none" xmlns="http://www.w3.org/2000/svg">
<path d="M45.8187 188.189C34.6138 188.189 25.498 179.073 25.498 167.87V32.4308C25.498 21.2259 34.6138 12.1101 45.8187 12.1101H253.535C264.738 12.1101 273.853 21.2259 273.853 32.4308V167.87C273.853 179.073 264.738 188.189 253.535 188.189H45.8187Z" fill="#B8F2FF"/>
<path d="M253.534 14.369C258.33 14.369 262.875 16.2595 266.29 19.6744C269.705 23.0893 271.596 27.6323 271.596 32.4308V167.87C271.596 172.667 269.705 177.21 266.29 180.625C262.875 184.041 258.33 185.932 253.534 185.932H45.818C41.0195 185.932 36.4764 184.041 33.0616 180.625C29.6467 177.21 27.7561 172.666 27.7561 167.87V32.4308C27.7561 27.6323 29.6467 23.0893 33.0616 19.6744C36.4764 16.2595 41.0195 14.369 45.818 14.369H253.534ZM253.534 9.85306H45.818C33.4006 9.85306 23.2402 20.0134 23.2402 32.4308V167.87C23.2402 180.287 33.4006 190.447 45.818 190.447H253.534C265.951 190.447 276.112 180.287 276.112 167.87V32.4308C276.112 20.0134 265.951 9.85306 253.534 9.85306Z" fill="#388DC6"/>
<path d="M253.448 179.779H44.8865C38.6787 179.779 33.5977 174.7 33.5977 168.49V32.6569C33.5977 26.4474 38.6787 21.3681 44.8865 21.3681H253.449C259.658 21.3681 264.738 26.4474 264.738 32.6569V168.49C264.737 174.699 259.657 179.779 253.448 179.779Z" fill="#63C3EA"/>
<mask id="path-4-outside-1_14_43" maskUnits="userSpaceOnUse" x="51" y="53" width="199" height="95" fill="black">
<rect fill="white" x="51" y="53" width="199" height="95"/>
<path d="M142.4 82.7H121.2L119.3 98.3H130.2C136.067 98.3 138.7 101.333 138.1 107.4L133.8 142.9H91L95.2 107.5C95.6 104.433 96.6 102.133 98.2 100.6C99.8 99.0667 102.1 98.3 105.1 98.3H109.7L114.6 58.3H124.2L122.3 73.9H143.5L142.4 82.7ZM96 66.5L95 75.6H66.6C64.5333 75.6 63.5 74.7667 63.5 73.1C63.5 72.3667 63.7 71.5667 64.1 70.7L69.2 58.9H79.5L76.5 66.5H96ZM91.6 104.6L90.7 113.6H76.8L74.9 129.4V129.7C74.9 130.9 75.4667 131.3 76.6 130.9L82.5 128.5C84.9667 127.567 87.1 126.633 88.9 125.7L87.6 135.9C81.4 138.767 75.9667 140.733 71.3 141.8C70.5 141.933 69.9333 142 69.6 142C68 142 66.7333 141.467 65.8 140.4C64.9333 139.333 64.5 137.9 64.5 136.1C64.5 135.5 64.5333 135.033 64.6 134.7L67.2 113.6H56.8L57.9 104.6H68.3L69.8 93.2H60.5L61.6 84.3H92.8L91.7 93.2H79.4L77.9 104.6H91.6ZM101.5 134.1H125.5L128.7 107H104.5L101.5 134.1ZM228.8 141.4H170.5L174.7 106.3C171.833 109.033 168.233 112.2 163.9 115.8L154.7 109.7C171.433 96.7 183.433 84.2 190.7 72.2H163.2L164.3 62.8H244.2L243.1 72.2H202.1C198.233 79.1333 193.5 85.8667 187.9 92.4H226C231.667 92.4 234.2 95.3333 233.6 101.2L228.8 141.4ZM181.7 132.2H219.6L223.5 101.6H185.4L181.7 132.2Z"/>
</mask>
<path d="M142.4 82.7H121.2L119.3 98.3H130.2C136.067 98.3 138.7 101.333 138.1 107.4L133.8 142.9H91L95.2 107.5C95.6 104.433 96.6 102.133 98.2 100.6C99.8 99.0667 102.1 98.3 105.1 98.3H109.7L114.6 58.3H124.2L122.3 73.9H143.5L142.4 82.7ZM96 66.5L95 75.6H66.6C64.5333 75.6 63.5 74.7667 63.5 73.1C63.5 72.3667 63.7 71.5667 64.1 70.7L69.2 58.9H79.5L76.5 66.5H96ZM91.6 104.6L90.7 113.6H76.8L74.9 129.4V129.7C74.9 130.9 75.4667 131.3 76.6 130.9L82.5 128.5C84.9667 127.567 87.1 126.633 88.9 125.7L87.6 135.9C81.4 138.767 75.9667 140.733 71.3 141.8C70.5 141.933 69.9333 142 69.6 142C68 142 66.7333 141.467 65.8 140.4C64.9333 139.333 64.5 137.9 64.5 136.1C64.5 135.5 64.5333 135.033 64.6 134.7L67.2 113.6H56.8L57.9 104.6H68.3L69.8 93.2H60.5L61.6 84.3H92.8L91.7 93.2H79.4L77.9 104.6H91.6ZM101.5 134.1H125.5L128.7 107H104.5L101.5 134.1ZM228.8 141.4H170.5L174.7 106.3C171.833 109.033 168.233 112.2 163.9 115.8L154.7 109.7C171.433 96.7 183.433 84.2 190.7 72.2H163.2L164.3 62.8H244.2L243.1 72.2H202.1C198.233 79.1333 193.5 85.8667 187.9 92.4H226C231.667 92.4 234.2 95.3333 233.6 101.2L228.8 141.4ZM181.7 132.2H219.6L223.5 101.6H185.4L181.7 132.2Z" fill="#D9F7FF"/>
<path d="M142.4 82.7V87.7H146.814L147.361 83.3202L142.4 82.7ZM121.2 82.7V77.7H116.772L116.237 82.0955L121.2 82.7ZM119.3 98.3L114.337 97.6955L113.654 103.3H119.3V98.3ZM138.1 107.4L143.064 108.001L143.07 107.947L143.076 107.892L138.1 107.4ZM133.8 142.9V147.9H138.231L138.764 143.501L133.8 142.9ZM91 142.9L86.0348 142.311L85.3717 147.9H91V142.9ZM95.2 107.5L90.242 106.853L90.2382 106.882L90.2348 106.911L95.2 107.5ZM98.2 100.6L94.7405 96.9901V96.9901L98.2 100.6ZM109.7 98.3V103.3H114.125L114.663 98.908L109.7 98.3ZM114.6 58.3V53.3H110.175L109.637 57.692L114.6 58.3ZM124.2 58.3L129.163 58.9045L129.846 53.3H124.2V58.3ZM122.3 73.9L117.337 73.2955L116.654 78.9H122.3V73.9ZM143.5 73.9L148.461 74.5202L149.164 68.9H143.5V73.9ZM96 66.5L100.97 67.0462L101.58 61.5H96V66.5ZM95 75.6V80.6H99.4806L99.9701 76.1462L95 75.6ZM64.1 70.7L68.6398 72.7953L68.6654 72.7398L68.6897 72.6837L64.1 70.7ZM69.2 58.9V53.9H65.914L64.6103 56.9163L69.2 58.9ZM79.5 58.9L84.1508 60.7358L86.8491 53.9H79.5V58.9ZM76.5 66.5L71.8492 64.6642L69.1509 71.5H76.5V66.5ZM91.6 104.6L96.5752 105.098L97.1249 99.6H91.6V104.6ZM90.7 113.6V118.6H95.2249L95.6752 114.098L90.7 113.6ZM76.8 113.6V108.6H72.3652L71.8358 113.003L76.8 113.6ZM74.9 129.4L69.9358 128.803L69.9 129.1V129.4H74.9ZM76.6 130.9L78.2641 135.615L78.375 135.576L78.484 135.531L76.6 130.9ZM82.5 128.5L80.7305 123.824L80.673 123.845L80.616 123.869L82.5 128.5ZM88.9 125.7L93.8599 126.332L95.0657 116.871L86.5984 121.261L88.9 125.7ZM87.6 135.9L89.6984 140.438L92.21 139.277L92.5599 136.532L87.6 135.9ZM71.3 141.8L72.122 146.732L72.2689 146.707L72.4141 146.674L71.3 141.8ZM65.8 140.4L61.9194 143.553L61.977 143.624L62.0371 143.693L65.8 140.4ZM64.6 134.7L69.5029 135.681L69.5396 135.497L69.5625 135.311L64.6 134.7ZM67.2 113.6L72.1625 114.211L72.8539 108.6H67.2V113.6ZM56.8 113.6L51.8369 112.993L51.1517 118.6H56.8V113.6ZM57.9 104.6V99.6H53.4739L52.9369 103.993L57.9 104.6ZM68.3 104.6V109.6H72.6852L73.2573 105.252L68.3 104.6ZM69.8 93.2L74.7573 93.8523L75.501 88.2H69.8V93.2ZM60.5 93.2L55.5378 92.5867L54.844 98.2H60.5V93.2ZM61.6 84.3V79.3H57.1799L56.6378 83.6867L61.6 84.3ZM92.8 84.3L97.7622 84.9133L98.456 79.3H92.8V84.3ZM91.7 93.2V98.2H96.1201L96.6622 93.8133L91.7 93.2ZM79.4 93.2V88.2H75.0148L74.4427 92.5477L79.4 93.2ZM77.9 104.6L72.9427 103.948L72.199 109.6H77.9V104.6ZM101.5 134.1L96.5304 133.55L95.916 139.1H101.5V134.1ZM125.5 134.1V139.1H129.944L130.466 134.686L125.5 134.1ZM128.7 107L133.666 107.586L134.325 102H128.7V107ZM104.5 107V102H100.023L99.5304 106.45L104.5 107ZM142.4 82.7V77.7H121.2V82.7V87.7H142.4V82.7ZM121.2 82.7L116.237 82.0955L114.337 97.6955L119.3 98.3L124.263 98.9045L126.163 83.3045L121.2 82.7ZM119.3 98.3V103.3H130.2V98.3V93.3H119.3V98.3ZM130.2 98.3V103.3C131.257 103.3 131.925 103.439 132.313 103.578C132.668 103.704 132.772 103.821 132.799 103.853C132.838 103.897 133.358 104.54 133.124 106.908L138.1 107.4L143.076 107.892C143.442 104.193 142.945 100.286 140.351 97.2972C137.714 94.2599 133.901 93.3 130.2 93.3V98.3ZM138.1 107.4L133.136 106.799L128.836 142.299L133.8 142.9L138.764 143.501L143.064 108.001L138.1 107.4ZM133.8 142.9V137.9H91V142.9V147.9H133.8V142.9ZM91 142.9L95.9652 143.489L100.165 108.089L95.2 107.5L90.2348 106.911L86.0348 142.311L91 142.9ZM95.2 107.5L100.158 108.147C100.468 105.769 101.154 104.695 101.66 104.21L98.2 100.6L94.7405 96.9901C92.0463 99.5719 90.7319 103.097 90.242 106.853L95.2 107.5ZM98.2 100.6L101.66 104.21C102.04 103.846 102.924 103.3 105.1 103.3V98.3V93.3C101.276 93.3 97.5605 94.2875 94.7405 96.9901L98.2 100.6ZM105.1 98.3V103.3H109.7V98.3V93.3H105.1V98.3ZM109.7 98.3L114.663 98.908L119.563 58.908L114.6 58.3L109.637 57.692L104.737 97.692L109.7 98.3ZM114.6 58.3V63.3H124.2V58.3V53.3H114.6V58.3ZM124.2 58.3L119.237 57.6955L117.337 73.2955L122.3 73.9L127.263 74.5045L129.163 58.9045L124.2 58.3ZM122.3 73.9V78.9H143.5V73.9V68.9H122.3V73.9ZM143.5 73.9L138.539 73.2798L137.439 82.0798L142.4 82.7L147.361 83.3202L148.461 74.5202L143.5 73.9ZM96 66.5L91.0299 65.9538L90.0299 75.0538L95 75.6L99.9701 76.1462L100.97 67.0462L96 66.5ZM95 75.6V70.6H66.6V75.6V80.6H95V75.6ZM66.6 75.6V70.6C66.108 70.6 66.6655 70.4795 67.4138 71.0829C67.8205 71.4109 68.13 71.8371 68.3146 72.2838C68.4866 72.6999 68.5 73.009 68.5 73.1H63.5H58.5C58.5 75.023 59.149 77.2645 61.1362 78.8671C62.9179 80.3039 65.0254 80.6 66.6 80.6V75.6ZM63.5 73.1H68.5C68.5 73.1892 68.4878 73.2145 68.5007 73.1627C68.5142 73.1089 68.5508 72.988 68.6398 72.7953L64.1 70.7L59.5602 68.6047C58.9447 69.9383 58.5 71.4596 58.5 73.1H63.5ZM64.1 70.7L68.6897 72.6837L73.7897 60.8837L69.2 58.9L64.6103 56.9163L59.5103 68.7163L64.1 70.7ZM69.2 58.9V63.9H79.5V58.9V53.9H69.2V58.9ZM79.5 58.9L74.8492 57.0642L71.8492 64.6642L76.5 66.5L81.1508 68.3358L84.1508 60.7358L79.5 58.9ZM76.5 66.5V71.5H96V66.5V61.5H76.5V66.5ZM91.6 104.6L86.6248 104.102L85.7248 113.102L90.7 113.6L95.6752 114.098L96.5752 105.098L91.6 104.6ZM90.7 113.6V108.6H76.8V113.6V118.6H90.7V113.6ZM76.8 113.6L71.8358 113.003L69.9358 128.803L74.9 129.4L79.8642 129.997L81.7642 114.197L76.8 113.6ZM74.9 129.4H69.9V129.7H74.9H79.9V129.4H74.9ZM74.9 129.7H69.9C69.9 130.757 70.1011 133.333 72.4416 134.985C74.7782 136.634 77.2699 135.966 78.2641 135.615L76.6 130.9L74.9359 126.185C74.9838 126.168 75.3203 126.05 75.8563 126.05C76.4402 126.05 77.3322 126.197 78.2084 126.815C79.0853 127.434 79.5233 128.227 79.7194 128.781C79.8992 129.289 79.9 129.648 79.9 129.7H74.9ZM76.6 130.9L78.484 135.531L84.384 133.131L82.5 128.5L80.616 123.869L74.716 126.269L76.6 130.9ZM82.5 128.5L84.2695 133.176C86.8672 132.194 89.1867 131.184 91.2016 130.139L88.9 125.7L86.5984 121.261C85.0133 122.083 83.0661 122.94 80.7305 123.824L82.5 128.5ZM88.9 125.7L83.9401 125.068L82.6401 135.268L87.6 135.9L92.5599 136.532L93.8599 126.332L88.9 125.7ZM87.6 135.9L85.5016 131.362C79.4954 134.139 74.4041 135.962 70.1859 136.926L71.3 141.8L72.4141 146.674C77.5293 145.505 83.3046 143.395 89.6984 140.438L87.6 135.9ZM71.3 141.8L70.478 136.868C70.1271 136.927 69.8693 136.963 69.6908 136.984C69.6029 136.995 69.5493 136.999 69.5244 137.001C69.495 137.003 69.5258 137 69.6 137V142V147C70.3915 147 71.3257 146.865 72.122 146.732L71.3 141.8ZM69.6 142V137C69.4774 137 69.4062 136.99 69.377 136.984C69.3494 136.979 69.3577 136.978 69.3903 136.992C69.424 137.006 69.4644 137.028 69.5034 137.056C69.5217 137.07 69.5362 137.082 69.547 137.092C69.5522 137.097 69.5562 137.1 69.5589 137.103C69.5616 137.106 69.5629 137.108 69.5629 137.107L65.8 140.4L62.0371 143.693C64.0483 145.991 66.7653 147 69.6 147V142ZM65.8 140.4L69.6806 137.247C69.736 137.315 69.5 137.111 69.5 136.1H64.5H59.5C59.5 138.689 60.1307 141.351 61.9194 143.553L65.8 140.4ZM64.5 136.1H69.5C69.5 135.888 69.5061 135.743 69.5123 135.656C69.5191 135.561 69.5229 135.581 69.5029 135.681L64.6 134.7L59.6971 133.719C59.5349 134.531 59.5 135.38 59.5 136.1H64.5ZM64.6 134.7L69.5625 135.311L72.1625 114.211L67.2 113.6L62.2375 112.989L59.6375 134.089L64.6 134.7ZM67.2 113.6V108.6H56.8V113.6V118.6H67.2V113.6ZM56.8 113.6L61.7631 114.207L62.8631 105.207L57.9 104.6L52.9369 103.993L51.8369 112.993L56.8 113.6ZM57.9 104.6V109.6H68.3V104.6V99.6H57.9V104.6ZM68.3 104.6L73.2573 105.252L74.7573 93.8523L69.8 93.2L64.8427 92.5477L63.3427 103.948L68.3 104.6ZM69.8 93.2V88.2H60.5V93.2V98.2H69.8V93.2ZM60.5 93.2L65.4622 93.8133L66.5622 84.9133L61.6 84.3L56.6378 83.6867L55.5378 92.5867L60.5 93.2ZM61.6 84.3V89.3H92.8V84.3V79.3H61.6V84.3ZM92.8 84.3L87.8378 83.6867L86.7378 92.5867L91.7 93.2L96.6622 93.8133L97.7622 84.9133L92.8 84.3ZM91.7 93.2V88.2H79.4V93.2V98.2H91.7V93.2ZM79.4 93.2L74.4427 92.5477L72.9427 103.948L77.9 104.6L82.8573 105.252L84.3573 93.8523L79.4 93.2ZM77.9 104.6V109.6H91.6V104.6V99.6H77.9V104.6ZM101.5 134.1V139.1H125.5V134.1V129.1H101.5V134.1ZM125.5 134.1L130.466 134.686L133.666 107.586L128.7 107L123.735 106.414L120.535 133.514L125.5 134.1ZM128.7 107V102H104.5V107V112H128.7V107ZM104.5 107L99.5304 106.45L96.5304 133.55L101.5 134.1L106.47 134.65L109.47 107.55L104.5 107ZM228.8 141.4V146.4H233.238L233.765 141.993L228.8 141.4ZM170.5 141.4L165.535 140.806L164.866 146.4H170.5V141.4ZM174.7 106.3L179.665 106.894L181.317 93.0819L171.25 102.681L174.7 106.3ZM163.9 115.8L161.137 119.967L164.235 122.022L167.095 119.646L163.9 115.8ZM154.7 109.7L151.632 105.752L146.137 110.021L151.937 113.867L154.7 109.7ZM190.7 72.2L194.977 74.7899L199.573 67.2H190.7V72.2ZM163.2 72.2L158.234 71.6189L157.581 77.2H163.2V72.2ZM164.3 62.8V57.8H159.851L159.334 62.2189L164.3 62.8ZM244.2 62.8L249.166 63.3811L249.819 57.8H244.2V62.8ZM243.1 72.2V77.2H247.549L248.066 72.7811L243.1 72.2ZM202.1 72.2V67.2H199.163L197.733 69.7647L202.1 72.2ZM187.9 92.4L184.104 89.146L177.029 97.4H187.9V92.4ZM233.6 101.2L238.565 101.793L238.57 101.751L238.574 101.709L233.6 101.2ZM181.7 132.2L176.736 131.6L176.059 137.2H181.7V132.2ZM219.6 132.2V137.2H224.003L224.56 132.832L219.6 132.2ZM223.5 101.6L228.46 102.232L229.178 96.6H223.5V101.6ZM185.4 101.6V96.6H180.968L180.436 101L185.4 101.6ZM228.8 141.4V136.4H170.5V141.4V146.4H228.8V141.4ZM170.5 141.4L175.465 141.994L179.665 106.894L174.7 106.3L169.735 105.706L165.535 140.806L170.5 141.4ZM174.7 106.3L171.25 102.681C168.492 105.311 164.984 108.399 160.705 111.954L163.9 115.8L167.095 119.646C171.483 116.001 175.175 112.756 178.15 109.919L174.7 106.3ZM163.9 115.8L166.663 111.633L157.463 105.533L154.7 109.7L151.937 113.867L161.137 119.967L163.9 115.8ZM154.7 109.7L157.768 113.648C174.762 100.446 187.275 87.5087 194.977 74.7899L190.7 72.2L186.423 69.6101C179.592 80.8913 168.105 92.9544 151.632 105.752L154.7 109.7ZM190.7 72.2V67.2H163.2V72.2V77.2H190.7V72.2ZM163.2 72.2L168.166 72.7811L169.266 63.3811L164.3 62.8L159.334 62.2189L158.234 71.6189L163.2 72.2ZM164.3 62.8V67.8H244.2V62.8V57.8H164.3V62.8ZM244.2 62.8L239.234 62.2189L238.134 71.6189L243.1 72.2L248.066 72.7811L249.166 63.3811L244.2 62.8ZM243.1 72.2V67.2H202.1V72.2V77.2H243.1V72.2ZM202.1 72.2L197.733 69.7647C194.042 76.3836 189.505 82.8449 184.104 89.146L187.9 92.4L191.696 95.654C197.495 88.8884 202.425 81.883 206.467 74.6353L202.1 72.2ZM187.9 92.4V97.4H226V92.4V87.4H187.9V92.4ZM226 92.4V97.4C227.006 97.4 227.629 97.5329 227.978 97.6578C228.293 97.7704 228.364 97.8654 228.366 97.8681C228.374 97.8772 228.487 98.0022 228.579 98.4229C228.678 98.8717 228.738 99.5994 228.626 100.691L233.6 101.2L238.574 101.709C238.942 98.1142 238.478 94.2779 235.934 91.3319C233.346 88.3351 229.6 87.4 226 87.4V92.4ZM233.6 101.2L228.635 100.607L223.835 140.807L228.8 141.4L233.765 141.993L238.565 101.793L233.6 101.2ZM181.7 132.2V137.2H219.6V132.2V127.2H181.7V132.2ZM219.6 132.2L224.56 132.832L228.46 102.232L223.5 101.6L218.54 100.968L214.64 131.568L219.6 132.2ZM223.5 101.6V96.6H185.4V101.6V106.6H223.5V101.6ZM185.4 101.6L180.436 101L176.736 131.6L181.7 132.2L186.664 132.8L190.364 102.2L185.4 101.6Z" fill="#2F758E" mask="url(#path-4-outside-1_14_43)"/>
</svg>
