<svg width="300" height="200" viewBox="0 0 300 200" fill="none" xmlns="http://www.w3.org/2000/svg">
<path d="M45.8187 188.189C34.6138 188.189 25.498 179.073 25.498 167.87V32.4308C25.498 21.2259 34.6138 12.1101 45.8187 12.1101H253.535C264.738 12.1101 273.853 21.2259 273.853 32.4308V167.87C273.853 179.073 264.738 188.189 253.535 188.189H45.8187Z" fill="#DCF2FF"/>
<path d="M253.534 14.369C258.33 14.369 262.875 16.2595 266.29 19.6744C269.705 23.0893 271.596 27.6323 271.596 32.4308V167.87C271.596 172.667 269.705 177.21 266.29 180.625C262.875 184.041 258.33 185.932 253.534 185.932H45.818C41.0195 185.932 36.4764 184.041 33.0616 180.625C29.6467 177.21 27.7561 172.666 27.7561 167.87V32.4308C27.7561 27.6323 29.6467 23.0893 33.0616 19.6744C36.4764 16.2595 41.0195 14.369 45.818 14.369H253.534ZM253.534 9.85307H45.818C33.4006 9.85307 23.2402 20.0134 23.2402 32.4308V167.87C23.2402 180.287 33.4006 190.448 45.818 190.448H253.534C265.951 190.448 276.112 180.287 276.112 167.87V32.4308C276.112 20.0134 265.951 9.85307 253.534 9.85307Z" fill="#899BA3"/>
<path d="M253.448 179.779H44.8865C38.6787 179.779 33.5977 174.7 33.5977 168.49V32.6569C33.5977 26.4474 38.6787 21.3681 44.8865 21.3681H253.449C259.658 21.3681 264.738 26.4474 264.738 32.6569V168.49C264.737 174.699 259.657 179.779 253.448 179.779Z" fill="#A3B8C4"/>
<mask id="path-4-outside-1_14_2" maskUnits="userSpaceOnUse" x="51" y="53" width="203" height="96" fill="black">
<rect fill="white" x="51" y="53" width="203" height="96"/>
<path d="M133.4 142.9H90.2L98.2 75.4C98.9333 71.0667 101.4 68.9 105.6 68.9H111.3L114.9 58.6H124.8L121 68.9H133.9C136.233 68.9 138.067 69.5 139.4 70.7C140.733 71.9 141.4 73.6667 141.4 76C141.4 76.6667 141.367 77.1667 141.3 77.5L133.4 142.9ZM95.2 66.1L93.6 75.2H65.5C63.5 75.2 62.5 74.3667 62.5 72.7C62.5 72.1 62.6667 71.3 63 70.3L67.4 59.1H77.2L74.9 66.1H95.2ZM132 77.7H107L104.3 100.3H129.3L132 77.7ZM71.3 143C70.9667 143.067 70.5 143.1 69.9 143.1C68.2333 143.1 66.9333 142.567 66 141.5C65.0667 140.433 64.6 139.033 64.6 137.3C64.6 136.7 64.6333 136.233 64.7 135.9L67.5 113.9H57.5L58.5 104.9H68.6L70 93.9H61.1L62.1 84.9H91.3L90.1 93.9H79.6L78.2 104.9H90.2L89 113.9H77.1L75 130.7V131.1C75 131.833 75.2667 132.2 75.8 132.2C76.2 132.2 77.1 131.9 78.5 131.3C79.9667 130.7 80.9667 130.3 81.5 130.1C84.1 128.967 86.2 127.9 87.8 126.9L86.5 137.2C80.4333 140.333 75.3667 142.267 71.3 143ZM103.3 108.9L100.4 134.1H125.2L128.2 108.9H103.3ZM237.2 133.6L236.1 142.8H156.3L157.3 133.6H191.2L193.6 109.9H164.9L165.9 101H194.6L195.7 90.6H178.7L179.6 82.7L167.7 96.6L155.7 95.2L184.3 61.9C185.3 60.6333 186.3 59.7333 187.3 59.2C188.3 58.6667 189.567 58.4333 191.1 58.5H214.5C215.9 58.4333 217.1 58.7 218.1 59.3C219.1 59.8333 220.067 60.8 221 62.2L244.4 94.2L232.3 95.6L223 82.3L222.1 90.6H205.8L204.7 101H234.1L233.1 109.9H203.7L201.3 133.6H237.2ZM213 67.8H192.3L180.2 82H222.8L213 67.8ZM173.9 129.9L170 113.9H179.4L183.6 129.9H173.9ZM210.6 130L217.6 113.9H227.2L220.6 130H210.6Z"/>
</mask>
<path d="M133.4 142.9H90.2L98.2 75.4C98.9333 71.0667 101.4 68.9 105.6 68.9H111.3L114.9 58.6H124.8L121 68.9H133.9C136.233 68.9 138.067 69.5 139.4 70.7C140.733 71.9 141.4 73.6667 141.4 76C141.4 76.6667 141.367 77.1667 141.3 77.5L133.4 142.9ZM95.2 66.1L93.6 75.2H65.5C63.5 75.2 62.5 74.3667 62.5 72.7C62.5 72.1 62.6667 71.3 63 70.3L67.4 59.1H77.2L74.9 66.1H95.2ZM132 77.7H107L104.3 100.3H129.3L132 77.7ZM71.3 143C70.9667 143.067 70.5 143.1 69.9 143.1C68.2333 143.1 66.9333 142.567 66 141.5C65.0667 140.433 64.6 139.033 64.6 137.3C64.6 136.7 64.6333 136.233 64.7 135.9L67.5 113.9H57.5L58.5 104.9H68.6L70 93.9H61.1L62.1 84.9H91.3L90.1 93.9H79.6L78.2 104.9H90.2L89 113.9H77.1L75 130.7V131.1C75 131.833 75.2667 132.2 75.8 132.2C76.2 132.2 77.1 131.9 78.5 131.3C79.9667 130.7 80.9667 130.3 81.5 130.1C84.1 128.967 86.2 127.9 87.8 126.9L86.5 137.2C80.4333 140.333 75.3667 142.267 71.3 143ZM103.3 108.9L100.4 134.1H125.2L128.2 108.9H103.3ZM237.2 133.6L236.1 142.8H156.3L157.3 133.6H191.2L193.6 109.9H164.9L165.9 101H194.6L195.7 90.6H178.7L179.6 82.7L167.7 96.6L155.7 95.2L184.3 61.9C185.3 60.6333 186.3 59.7333 187.3 59.2C188.3 58.6667 189.567 58.4333 191.1 58.5H214.5C215.9 58.4333 217.1 58.7 218.1 59.3C219.1 59.8333 220.067 60.8 221 62.2L244.4 94.2L232.3 95.6L223 82.3L222.1 90.6H205.8L204.7 101H234.1L233.1 109.9H203.7L201.3 133.6H237.2ZM213 67.8H192.3L180.2 82H222.8L213 67.8ZM173.9 129.9L170 113.9H179.4L183.6 129.9H173.9ZM210.6 130L217.6 113.9H227.2L220.6 130H210.6Z" fill="#E6F5FF"/>
<path d="M133.4 142.9V147.9H137.832L138.364 143.5L133.4 142.9ZM90.2 142.9L85.2348 142.312L84.5724 147.9H90.2V142.9ZM98.2 75.4L93.2701 74.5657L93.2494 74.6882L93.2348 74.8115L98.2 75.4ZM111.3 68.9V73.9H114.849L116.02 70.5497L111.3 68.9ZM114.9 58.6V53.6H111.351L110.18 56.9503L114.9 58.6ZM124.8 58.6L129.491 60.3306L131.974 53.6H124.8V58.6ZM121 68.9L116.309 67.1694L113.826 73.9H121V68.9ZM141.3 77.5L136.397 76.5194L136.359 76.7087L136.336 76.9004L141.3 77.5ZM95.2 66.1L100.124 66.9658L101.156 61.1H95.2V66.1ZM93.6 75.2V80.2H97.7976L98.5245 76.0658L93.6 75.2ZM63 70.3L58.3462 68.4717L58.2982 68.5941L58.2566 68.7189L63 70.3ZM67.4 59.1V54.1H63.9923L62.7462 57.2717L67.4 59.1ZM77.2 59.1L81.9502 60.6608L84.1058 54.1H77.2V59.1ZM74.9 66.1L70.1498 64.5392L67.9942 71.1H74.9V66.1ZM132 77.7L136.965 78.2931L137.633 72.7H132V77.7ZM107 77.7V72.7H102.562L102.035 77.1069L107 77.7ZM104.3 100.3L99.3353 99.7069L98.6671 105.3H104.3V100.3ZM129.3 100.3V105.3H133.738L134.265 100.893L129.3 100.3ZM71.3 143L70.4127 138.079L70.366 138.088L70.3194 138.097L71.3 143ZM66 141.5L62.2371 144.793H62.2371L66 141.5ZM64.7 135.9L69.6029 136.881L69.6376 136.707L69.66 136.531L64.7 135.9ZM67.5 113.9L72.46 114.531L73.1767 108.9H67.5V113.9ZM57.5 113.9L52.5306 113.348L51.9137 118.9H57.5V113.9ZM58.5 104.9V99.9H54.0248L53.5306 104.348L58.5 104.9ZM68.6 104.9V109.9H73.004L73.56 105.531L68.6 104.9ZM70 93.9L74.96 94.5313L75.6767 88.9H70V93.9ZM61.1 93.9L56.1306 93.3478L55.5137 98.9H61.1V93.9ZM62.1 84.9V79.9H57.6248L57.1306 84.3478L62.1 84.9ZM91.3 84.9L96.2561 85.5608L97.0109 79.9H91.3V84.9ZM90.1 93.9V98.9H94.4776L95.0561 94.5608L90.1 93.9ZM79.6 93.9V88.9H75.196L74.64 93.2687L79.6 93.9ZM78.2 104.9L73.24 104.269L72.5233 109.9H78.2V104.9ZM90.2 104.9L95.1561 105.561L95.9109 99.9H90.2V104.9ZM89 113.9V118.9H93.3776L93.9561 114.561L89 113.9ZM77.1 113.9V108.9H72.6861L72.1386 113.28L77.1 113.9ZM75 130.7L70.0386 130.08L70 130.389V130.7H75ZM78.5 131.3L76.6068 126.672L76.5685 126.688L76.5304 126.704L78.5 131.3ZM81.5 130.1L83.2556 134.782L83.3781 134.736L83.4979 134.683L81.5 130.1ZM87.8 126.9L92.7606 127.526L94.0792 117.079L85.15 122.66L87.8 126.9ZM86.5 137.2L88.7945 141.642L91.1313 140.436L91.4606 137.826L86.5 137.2ZM103.3 108.9V103.9H98.8424L98.3328 108.328L103.3 108.9ZM100.4 134.1L95.4328 133.528L94.7916 139.1H100.4V134.1ZM125.2 134.1V139.1H129.64L130.165 134.691L125.2 134.1ZM128.2 108.9L133.165 109.491L133.831 103.9H128.2V108.9ZM133.4 142.9V137.9H90.2V142.9V147.9H133.4V142.9ZM90.2 142.9L95.1653 143.488L103.165 75.9885L98.2 75.4L93.2348 74.8115L85.2348 142.312L90.2 142.9ZM98.2 75.4L103.13 76.2343C103.37 74.8159 103.782 74.3846 103.9 74.2816C103.989 74.2033 104.366 73.9 105.6 73.9V68.9V63.9C102.634 63.9 99.6778 64.6801 97.3003 66.7684C94.9509 68.8321 93.7634 71.6507 93.2701 74.5657L98.2 75.4ZM105.6 68.9V73.9H111.3V68.9V63.9H105.6V68.9ZM111.3 68.9L116.02 70.5497L119.62 60.2497L114.9 58.6L110.18 56.9503L106.58 67.2503L111.3 68.9ZM114.9 58.6V63.6H124.8V58.6V53.6H114.9V58.6ZM124.8 58.6L120.109 56.8694L116.309 67.1694L121 68.9L125.691 70.6306L129.491 60.3306L124.8 58.6ZM121 68.9V73.9H133.9V68.9V63.9H121V68.9ZM133.9 68.9V73.9C135.379 73.9 135.889 74.2665 136.055 74.4165L139.4 70.7L142.745 66.9835C140.245 64.7335 137.087 63.9 133.9 63.9V68.9ZM139.4 70.7L136.055 74.4165C136.097 74.4537 136.155 74.514 136.222 74.6903C136.299 74.8939 136.4 75.2992 136.4 76H141.4H146.4C146.4 72.7011 145.426 69.397 142.745 66.9835L139.4 70.7ZM141.4 76H136.4C136.4 76.2561 136.393 76.4323 136.386 76.5424C136.384 76.5683 136.383 76.588 136.381 76.602C136.381 76.6089 136.38 76.6141 136.38 76.6177C136.38 76.6213 136.379 76.623 136.379 76.623C136.379 76.623 136.38 76.621 136.38 76.617C136.381 76.6131 136.382 76.6069 136.383 76.5987C136.385 76.5826 136.39 76.5557 136.397 76.5194L141.3 77.5L146.203 78.4806C146.37 77.6476 146.4 76.7458 146.4 76H141.4ZM141.3 77.5L136.336 76.9004L128.436 142.3L133.4 142.9L138.364 143.5L146.264 78.0996L141.3 77.5ZM95.2 66.1L90.2755 65.2342L88.6755 74.3342L93.6 75.2L98.5245 76.0658L100.124 66.9658L95.2 66.1ZM93.6 75.2V70.2H65.5V75.2V80.2H93.6V75.2ZM65.5 75.2V70.2C65.0712 70.2 65.6804 70.0918 66.4509 70.7339C66.861 71.0756 67.1575 71.5059 67.3299 71.9368C67.49 72.3371 67.5 72.627 67.5 72.7H62.5H57.5C57.5 74.568 58.104 76.7952 60.0491 78.4161C61.8196 79.8915 63.9288 80.2 65.5 80.2V75.2ZM62.5 72.7H67.5C67.5 72.8404 67.4832 72.8459 67.5199 72.6698C67.5543 72.5048 67.6215 72.2468 67.7434 71.8811L63 70.3L58.2566 68.7189C57.8614 69.9044 57.5 71.3032 57.5 72.7H62.5ZM63 70.3L67.6538 72.1283L72.0538 60.9283L67.4 59.1L62.7462 57.2717L58.3462 68.4717L63 70.3ZM67.4 59.1V64.1H77.2V59.1V54.1H67.4V59.1ZM77.2 59.1L72.4498 57.5392L70.1498 64.5392L74.9 66.1L79.6502 67.6608L81.9502 60.6608L77.2 59.1ZM74.9 66.1V71.1H95.2V66.1V61.1H74.9V66.1ZM132 77.7V72.7H107V77.7V82.7H132V77.7ZM107 77.7L102.035 77.1069L99.3353 99.7069L104.3 100.3L109.265 100.893L111.965 78.2931L107 77.7ZM104.3 100.3V105.3H129.3V100.3V95.3H104.3V100.3ZM129.3 100.3L134.265 100.893L136.965 78.2931L132 77.7L127.035 77.1069L124.335 99.7069L129.3 100.3ZM71.3 143L70.3194 138.097C70.4192 138.077 70.4393 138.081 70.3438 138.088C70.2565 138.094 70.1124 138.1 69.9 138.1V143.1V148.1C70.6204 148.1 71.4694 148.065 72.2806 147.903L71.3 143ZM69.9 143.1V138.1C69.5987 138.1 69.5196 138.052 69.5728 138.074C69.5982 138.085 69.6375 138.105 69.6807 138.135C69.7237 138.166 69.7512 138.194 69.7629 138.207L66 141.5L62.2371 144.793C64.2895 147.138 67.0707 148.1 69.9 148.1V143.1ZM66 141.5L69.7629 138.207C69.7514 138.194 69.7256 138.165 69.6934 138.069C69.6567 137.959 69.6 137.721 69.6 137.3H64.6H59.6C59.6 139.963 60.3385 142.623 62.2371 144.793L66 141.5ZM64.6 137.3H69.6C69.6 137.088 69.6061 136.943 69.6123 136.856C69.6191 136.761 69.6229 136.781 69.6029 136.881L64.7 135.9L59.7971 134.919C59.6349 135.731 59.6 136.58 59.6 137.3H64.6ZM64.7 135.9L69.66 136.531L72.46 114.531L67.5 113.9L62.54 113.269L59.74 135.269L64.7 135.9ZM67.5 113.9V108.9H57.5V113.9V118.9H67.5V113.9ZM57.5 113.9L62.4694 114.452L63.4694 105.452L58.5 104.9L53.5306 104.348L52.5306 113.348L57.5 113.9ZM58.5 104.9V109.9H68.6V104.9V99.9H58.5V104.9ZM68.6 104.9L73.56 105.531L74.96 94.5313L70 93.9L65.04 93.2687L63.64 104.269L68.6 104.9ZM70 93.9V88.9H61.1V93.9V98.9H70V93.9ZM61.1 93.9L66.0694 94.4522L67.0694 85.4522L62.1 84.9L57.1306 84.3478L56.1306 93.3478L61.1 93.9ZM62.1 84.9V89.9H91.3V84.9V79.9H62.1V84.9ZM91.3 84.9L86.3439 84.2392L85.1439 93.2392L90.1 93.9L95.0561 94.5608L96.2561 85.5608L91.3 84.9ZM90.1 93.9V88.9H79.6V93.9V98.9H90.1V93.9ZM79.6 93.9L74.64 93.2687L73.24 104.269L78.2 104.9L83.16 105.531L84.56 94.5313L79.6 93.9ZM78.2 104.9V109.9H90.2V104.9V99.9H78.2V104.9ZM90.2 104.9L85.2439 104.239L84.0439 113.239L89 113.9L93.9561 114.561L95.1561 105.561L90.2 104.9ZM89 113.9V108.9H77.1V113.9V118.9H89V113.9ZM77.1 113.9L72.1386 113.28L70.0386 130.08L75 130.7L79.9614 131.32L82.0614 114.52L77.1 113.9ZM75 130.7H70V131.1H75H80V130.7H75ZM75 131.1H70C70 131.924 70.1232 133.445 71.1563 134.866C72.4046 136.582 74.2546 137.2 75.8 137.2V132.2V127.2C76.2361 127.2 76.8561 127.276 77.5333 127.586C78.238 127.909 78.8215 128.404 79.2437 128.984C80.0101 130.038 80 131.009 80 131.1H75ZM75.8 132.2V137.2C76.8919 137.2 77.9042 136.869 78.3561 136.718C78.9917 136.507 79.7084 136.222 80.4696 135.896L78.5 131.3L76.5304 126.704C75.8916 126.978 75.4583 127.143 75.1939 127.232C75.062 127.276 75.0286 127.281 75.0695 127.272C75.0928 127.266 75.1616 127.251 75.2663 127.236C75.3644 127.222 75.5515 127.2 75.8 127.2V132.2ZM78.5 131.3L80.3932 135.928C81.8673 135.325 82.8016 134.952 83.2556 134.782L81.5 130.1L79.7444 125.418C79.1317 125.648 78.066 126.075 76.6068 126.672L78.5 131.3ZM81.5 130.1L83.4979 134.683C86.2233 133.496 88.5656 132.318 90.45 131.14L87.8 126.9L85.15 122.66C83.8344 123.482 81.9767 124.438 79.5021 125.517L81.5 130.1ZM87.8 126.9L82.8394 126.274L81.5394 136.574L86.5 137.2L91.4606 137.826L92.7606 127.526L87.8 126.9ZM86.5 137.2L84.2055 132.758C78.333 135.791 73.7742 137.473 70.4127 138.079L71.3 143L72.1873 147.921C76.9592 147.06 82.5336 144.876 88.7945 141.642L86.5 137.2ZM103.3 108.9L98.3328 108.328L95.4328 133.528L100.4 134.1L105.367 134.672L108.267 109.472L103.3 108.9ZM100.4 134.1V139.1H125.2V134.1V129.1H100.4V134.1ZM125.2 134.1L130.165 134.691L133.165 109.491L128.2 108.9L123.235 108.309L120.235 133.509L125.2 134.1ZM128.2 108.9V103.9H103.3V108.9V113.9H128.2V108.9ZM237.2 133.6L242.165 134.194L242.833 128.6H237.2V133.6ZM236.1 142.8V147.8H240.538L241.065 143.394L236.1 142.8ZM156.3 142.8L151.329 142.26L150.727 147.8H156.3V142.8ZM157.3 133.6V128.6H152.814L152.329 133.06L157.3 133.6ZM191.2 133.6V138.6H195.719L196.175 134.104L191.2 133.6ZM193.6 109.9L198.575 110.404L199.132 104.9H193.6V109.9ZM164.9 109.9L159.931 109.342L159.307 114.9H164.9V109.9ZM165.9 101V96H161.43L160.931 100.442L165.9 101ZM194.6 101V106H199.099L199.572 101.526L194.6 101ZM195.7 90.6L200.672 91.1259L201.257 85.6H195.7V90.6ZM178.7 90.6L173.732 90.034L173.098 95.6H178.7V90.6ZM179.6 82.7L184.568 83.266L186.415 67.0512L175.802 79.4483L179.6 82.7ZM167.7 96.6L167.121 101.566L169.766 101.875L171.498 99.8517L167.7 96.6ZM155.7 95.2L151.907 91.9423L145.78 99.0765L155.121 100.166L155.7 95.2ZM184.3 61.9L188.093 65.1577L188.16 65.0793L188.224 64.9982L184.3 61.9ZM187.3 59.2L184.947 54.7882L184.947 54.7882L187.3 59.2ZM191.1 58.5L190.883 63.4953L190.991 63.5H191.1V58.5ZM214.5 58.5V63.5H214.619L214.738 63.4943L214.5 58.5ZM218.1 59.3L215.528 63.5875L215.636 63.6524L215.747 63.7118L218.1 59.3ZM221 62.2L216.84 64.9735L216.9 65.0638L216.964 65.1513L221 62.2ZM244.4 94.2L244.975 99.1669L253.505 98.1799L248.436 91.2486L244.4 94.2ZM232.3 95.6L228.202 98.4652L229.912 100.91L232.875 100.567L232.3 95.6ZM223 82.3L227.098 79.4347L219.465 68.5193L218.029 81.761L223 82.3ZM222.1 90.6V95.6H226.587L227.071 91.139L222.1 90.6ZM205.8 90.6V85.6H201.301L200.828 90.0741L205.8 90.6ZM204.7 101L199.728 100.474L199.143 106H204.7V101ZM234.1 101L239.069 101.558L239.693 96H234.1V101ZM233.1 109.9V114.9H237.57L238.069 110.458L233.1 109.9ZM203.7 109.9V104.9H199.181L198.725 109.396L203.7 109.9ZM201.3 133.6L196.325 133.096L195.768 138.6H201.3V133.6ZM213 67.8L217.115 64.96L215.624 62.8H213V67.8ZM192.3 67.8V62.8H189.992L188.494 64.5571L192.3 67.8ZM180.2 82L176.394 78.7571L169.37 87H180.2V82ZM222.8 82V87H232.326L226.915 79.16L222.8 82ZM173.9 129.9L169.042 131.084L169.972 134.9H173.9V129.9ZM170 113.9V108.9H163.635L165.142 115.084L170 113.9ZM179.4 113.9L184.236 112.631L183.257 108.9H179.4V113.9ZM183.6 129.9V134.9H190.082L188.436 128.631L183.6 129.9ZM210.6 130L206.015 128.006L202.974 135H210.6V130ZM217.6 113.9V108.9H214.322L213.015 111.906L217.6 113.9ZM227.2 113.9L231.826 115.797L234.654 108.9H227.2V113.9ZM220.6 130V135H223.954L225.226 131.897L220.6 130ZM237.2 133.6L232.235 133.006L231.135 142.206L236.1 142.8L241.065 143.394L242.165 134.194L237.2 133.6ZM236.1 142.8V137.8H156.3V142.8V147.8H236.1V142.8ZM156.3 142.8L161.271 143.34L162.271 134.14L157.3 133.6L152.329 133.06L151.329 142.26L156.3 142.8ZM157.3 133.6V138.6H191.2V133.6V128.6H157.3V133.6ZM191.2 133.6L196.175 134.104L198.575 110.404L193.6 109.9L188.625 109.396L186.225 133.096L191.2 133.6ZM193.6 109.9V104.9H164.9V109.9V114.9H193.6V109.9ZM164.9 109.9L169.869 110.458L170.869 101.558L165.9 101L160.931 100.442L159.931 109.342L164.9 109.9ZM165.9 101V106H194.6V101V96H165.9V101ZM194.6 101L199.572 101.526L200.672 91.1259L195.7 90.6L190.728 90.0741L189.628 100.474L194.6 101ZM195.7 90.6V85.6H178.7V90.6V95.6H195.7V90.6ZM178.7 90.6L183.668 91.166L184.568 83.266L179.6 82.7L174.632 82.134L173.732 90.034L178.7 90.6ZM179.6 82.7L175.802 79.4483L163.902 93.3483L167.7 96.6L171.498 99.8517L183.398 85.9517L179.6 82.7ZM167.7 96.6L168.279 91.6337L156.279 90.2337L155.7 95.2L155.121 100.166L167.121 101.566L167.7 96.6ZM155.7 95.2L159.493 98.4577L188.093 65.1577L184.3 61.9L180.507 58.6423L151.907 91.9423L155.7 95.2ZM184.3 61.9L188.224 64.9982C188.965 64.0605 189.462 63.7134 189.653 63.6118L187.3 59.2L184.947 54.7882C183.138 55.7533 181.635 57.2061 180.376 58.8018L184.3 61.9ZM187.3 59.2L189.653 63.6118C189.632 63.6228 189.938 63.4542 190.883 63.4953L191.1 58.5L191.317 53.5047C189.195 53.4125 186.968 53.7105 184.947 54.7882L187.3 59.2ZM191.1 58.5V63.5H214.5V58.5V53.5H191.1V58.5ZM214.5 58.5L214.738 63.4943C215.055 63.4792 215.255 63.5064 215.365 63.5309C215.469 63.554 215.513 63.5786 215.528 63.5875L218.1 59.3L220.672 55.0125C218.668 53.8098 216.446 53.4016 214.262 53.5057L214.5 58.5ZM218.1 59.3L215.747 63.7118C215.733 63.7042 215.836 63.7566 216.039 63.9605C216.244 64.165 216.516 64.4874 216.84 64.9735L221 62.2L225.16 59.4265C223.974 57.6472 222.45 55.9531 220.453 54.8882L218.1 59.3ZM221 62.2L216.964 65.1513L240.364 97.1513L244.4 94.2L248.436 91.2486L225.036 59.2486L221 62.2ZM244.4 94.2L243.825 89.2331L231.725 90.6331L232.3 95.6L232.875 100.567L244.975 99.1669L244.4 94.2ZM232.3 95.6L236.398 92.7348L227.098 79.4347L223 82.3L218.902 85.1652L228.202 98.4652L232.3 95.6ZM223 82.3L218.029 81.761L217.129 90.061L222.1 90.6L227.071 91.139L227.971 82.839L223 82.3ZM222.1 90.6V85.6H205.8V90.6V95.6H222.1V90.6ZM205.8 90.6L200.828 90.0741L199.728 100.474L204.7 101L209.672 101.526L210.772 91.1259L205.8 90.6ZM204.7 101V106H234.1V101V96H204.7V101ZM234.1 101L229.131 100.442L228.131 109.342L233.1 109.9L238.069 110.458L239.069 101.558L234.1 101ZM233.1 109.9V104.9H203.7V109.9V114.9H233.1V109.9ZM203.7 109.9L198.725 109.396L196.325 133.096L201.3 133.6L206.275 134.104L208.675 110.404L203.7 109.9ZM201.3 133.6V138.6H237.2V133.6V128.6H201.3V133.6ZM213 67.8V62.8H192.3V67.8V72.8H213V67.8ZM192.3 67.8L188.494 64.5571L176.394 78.7571L180.2 82L184.006 85.2429L196.106 71.0429L192.3 67.8ZM180.2 82V87H222.8V82V77H180.2V82ZM222.8 82L226.915 79.16L217.115 64.96L213 67.8L208.885 70.64L218.685 84.84L222.8 82ZM173.9 129.9L178.758 128.716L174.858 112.716L170 113.9L165.142 115.084L169.042 131.084L173.9 129.9ZM170 113.9V118.9H179.4V113.9V108.9H170V113.9ZM179.4 113.9L174.564 115.169L178.764 131.169L183.6 129.9L188.436 128.631L184.236 112.631L179.4 113.9ZM183.6 129.9V124.9H173.9V129.9V134.9H183.6V129.9ZM210.6 130L215.185 131.994L222.185 115.894L217.6 113.9L213.015 111.906L206.015 128.006L210.6 130ZM217.6 113.9V118.9H227.2V113.9V108.9H217.6V113.9ZM227.2 113.9L222.574 112.003L215.974 128.103L220.6 130L225.226 131.897L231.826 115.797L227.2 113.9ZM220.6 130V125H210.6V130V135H220.6V130Z" fill="#607072" mask="url(#path-4-outside-1_14_2)"/>
</svg>
