<svg width="300" height="200" viewBox="0 0 300 200" fill="none" xmlns="http://www.w3.org/2000/svg">
<path d="M27.7578 167.87C27.7578 172.667 29.6483 177.21 33.0632 180.625C36.4781 184.041 41.0212 185.932 45.8197 185.932H253.536C258.332 185.932 262.877 184.041 266.292 180.625C269.707 177.21 271.597 172.666 271.597 167.87V32.4308C271.597 27.6323 269.707 23.0893 266.292 19.6744C262.876 16.2595 258.332 14.369 253.536 14.369H45.8197C41.0212 14.369 36.4781 16.2595 33.0632 19.6744C29.6483 23.0893 27.7578 27.6323 27.7578 32.4308V167.87Z" fill="#EEAF8B"/>
<path d="M23.2832 31.1058V169.195C23.9754 181.002 33.8461 190.448 45.8186 190.448H253.535C265.952 190.448 276.112 180.287 276.112 167.87V32.4308C276.112 20.0134 265.952 9.85307 253.535 9.85307H45.8186C33.8461 9.85307 23.9754 19.2994 23.2832 31.1058ZM45.8186 14.369H253.535C258.331 14.369 262.876 16.2595 266.291 19.6744C269.706 23.0893 271.596 27.6323 271.596 32.4308V167.87C271.596 172.667 269.706 177.21 266.291 180.625C262.875 184.041 258.331 185.932 253.535 185.932H45.8186C41.0201 185.932 36.4771 184.041 33.0622 180.625C29.6473 177.21 27.7568 172.666 27.7568 167.87V32.4308C27.7568 27.6323 29.6473 23.0893 33.0622 19.6744C36.4771 16.2595 41.0201 14.369 45.8186 14.369Z" fill="#B95A24"/>
<path d="M253.448 179.779H44.8865C38.6787 179.779 33.5977 174.7 33.5977 168.49V32.6569C33.5977 26.4474 38.6787 21.3681 44.8865 21.3681H253.449C259.658 21.3681 264.738 26.4474 264.738 32.6569V168.49C264.737 174.699 259.657 179.779 253.448 179.779Z" fill="#994A2B"/>
<mask id="path-4-outside-1_14_21" maskUnits="userSpaceOnUse" x="53" y="53" width="197" height="97" fill="black">
<rect fill="white" x="53" y="53" width="197" height="97"/>
<path d="M135.8 76.9L134.9 84.2H107.4L106.9 89.3H142.8L141.9 96.8H59.6L60.5 89.3H96.8L97.3 84.2H70L70.9 76.9H98.1L98.6 72.1H66.9L67.8 64.7H99.4L100.2 58.1H110.3L109.5 64.7H140.9L140 72.1H108.7L108.2 76.9H135.8ZM124.1 100.6C126.967 100.6 129.067 101.3 130.4 102.7C131.8 104.1 132.367 106.167 132.1 108.9L129 137C128.667 139.467 127.8 141.367 126.4 142.7C125.067 144.033 123.367 144.7 121.3 144.7C115.167 144.7 109.267 144.033 103.6 142.7L104.5 134.3C110.033 135.633 114.333 136.4 117.4 136.6H117.7C118.433 136.6 118.933 136.467 119.2 136.2C119.467 135.867 119.667 135.3 119.8 134.5L120.1 131.4H75.9L74.6 144.2H64.9L68.9 108.4C69.1667 106 70.0333 104.1 71.5 102.7C72.9667 101.3 74.9667 100.6 77.5 100.6H124.1ZM122.6 108.5H78.4L77.9 113.1H122.1L122.6 108.5ZM121.4 119.8H77.2L76.7 124.4H120.9L121.4 119.8ZM190.9 66.8L189.9 75.2H166.1C164.967 75.2 164.1 74.9333 163.5 74.4C162.9 73.8667 162.6 73.1333 162.6 72.2C162.6 71.6 162.767 70.8667 163.1 70L167.8 59.3H178.3L174.8 66.8H190.9ZM236 61.7C238.667 61.7 240.7 62.3 242.1 63.5C243.5 64.7 244.2 66.5 244.2 68.9C244.2 69.5667 244.167 70.1 244.1 70.5L236.9 137.1C236.633 139.567 235.767 141.4 234.3 142.6C232.833 143.867 231.033 144.433 228.9 144.3C224.167 144.033 219.533 143.267 215 142L216.1 133.3C220.1 134.233 223.467 134.867 226.2 135.2C226.4 135.267 226.667 135.3 227 135.3C227.4 135.3 227.667 135.2 227.8 135C227.933 134.733 228.067 134.3 228.2 133.7L234.9 70.3H203.5L194.8 143.1H185.6L194.4 70.1C194.733 67.4333 195.633 65.3667 197.1 63.9C198.633 62.4333 200.733 61.7 203.4 61.7H236ZM205.7 79.1H230.7L229.7 87.1H204.8L205.7 79.1ZM187.4 104.5L186.5 112.8H175.3L173.5 128V128.3C173.5 129.367 174 129.767 175 129.5C176.667 128.967 178.167 128.4 179.5 127.8C180.9 127.133 182.667 126.233 184.8 125.1L183.9 135C181.3 136.267 179.033 137.267 177.1 138C175.167 138.733 172.967 139.367 170.5 139.9C169.7 140.033 169.1 140.1 168.7 140.1C167.1 140.1 165.867 139.6 165 138.6C164.133 137.6 163.7 136.233 163.7 134.5C163.7 133.833 163.733 133.333 163.8 133L166.2 112.8H156.7L157.7 104.5H167.2L168.6 93.3H160.3L161.3 85.1H187.8L186.8 93.3H177.6L176.3 104.5H187.4ZM224.5 125.1H201.5L204.5 100.2C204.833 98 205.6 96.4333 206.8 95.5C208.067 94.5667 209.967 94.1 212.5 94.1H219.8C225.333 94.1 227.8 96.7 227.2 101.9L224.5 125.1ZM210.1 117.3H217.8L219.5 101.9H211.8L210.1 117.3Z"/>
</mask>
<path d="M135.8 76.9L134.9 84.2H107.4L106.9 89.3H142.8L141.9 96.8H59.6L60.5 89.3H96.8L97.3 84.2H70L70.9 76.9H98.1L98.6 72.1H66.9L67.8 64.7H99.4L100.2 58.1H110.3L109.5 64.7H140.9L140 72.1H108.7L108.2 76.9H135.8ZM124.1 100.6C126.967 100.6 129.067 101.3 130.4 102.7C131.8 104.1 132.367 106.167 132.1 108.9L129 137C128.667 139.467 127.8 141.367 126.4 142.7C125.067 144.033 123.367 144.7 121.3 144.7C115.167 144.7 109.267 144.033 103.6 142.7L104.5 134.3C110.033 135.633 114.333 136.4 117.4 136.6H117.7C118.433 136.6 118.933 136.467 119.2 136.2C119.467 135.867 119.667 135.3 119.8 134.5L120.1 131.4H75.9L74.6 144.2H64.9L68.9 108.4C69.1667 106 70.0333 104.1 71.5 102.7C72.9667 101.3 74.9667 100.6 77.5 100.6H124.1ZM122.6 108.5H78.4L77.9 113.1H122.1L122.6 108.5ZM121.4 119.8H77.2L76.7 124.4H120.9L121.4 119.8ZM190.9 66.8L189.9 75.2H166.1C164.967 75.2 164.1 74.9333 163.5 74.4C162.9 73.8667 162.6 73.1333 162.6 72.2C162.6 71.6 162.767 70.8667 163.1 70L167.8 59.3H178.3L174.8 66.8H190.9ZM236 61.7C238.667 61.7 240.7 62.3 242.1 63.5C243.5 64.7 244.2 66.5 244.2 68.9C244.2 69.5667 244.167 70.1 244.1 70.5L236.9 137.1C236.633 139.567 235.767 141.4 234.3 142.6C232.833 143.867 231.033 144.433 228.9 144.3C224.167 144.033 219.533 143.267 215 142L216.1 133.3C220.1 134.233 223.467 134.867 226.2 135.2C226.4 135.267 226.667 135.3 227 135.3C227.4 135.3 227.667 135.2 227.8 135C227.933 134.733 228.067 134.3 228.2 133.7L234.9 70.3H203.5L194.8 143.1H185.6L194.4 70.1C194.733 67.4333 195.633 65.3667 197.1 63.9C198.633 62.4333 200.733 61.7 203.4 61.7H236ZM205.7 79.1H230.7L229.7 87.1H204.8L205.7 79.1ZM187.4 104.5L186.5 112.8H175.3L173.5 128V128.3C173.5 129.367 174 129.767 175 129.5C176.667 128.967 178.167 128.4 179.5 127.8C180.9 127.133 182.667 126.233 184.8 125.1L183.9 135C181.3 136.267 179.033 137.267 177.1 138C175.167 138.733 172.967 139.367 170.5 139.9C169.7 140.033 169.1 140.1 168.7 140.1C167.1 140.1 165.867 139.6 165 138.6C164.133 137.6 163.7 136.233 163.7 134.5C163.7 133.833 163.733 133.333 163.8 133L166.2 112.8H156.7L157.7 104.5H167.2L168.6 93.3H160.3L161.3 85.1H187.8L186.8 93.3H177.6L176.3 104.5H187.4ZM224.5 125.1H201.5L204.5 100.2C204.833 98 205.6 96.4333 206.8 95.5C208.067 94.5667 209.967 94.1 212.5 94.1H219.8C225.333 94.1 227.8 96.7 227.2 101.9L224.5 125.1ZM210.1 117.3H217.8L219.5 101.9H211.8L210.1 117.3Z" fill="#FFD2BB"/>
<path d="M135.8 76.9L140.762 77.5118L141.454 71.9H135.8V76.9ZM134.9 84.2V89.2H139.321L139.862 84.8118L134.9 84.2ZM107.4 84.2V79.2H102.866L102.424 83.7121L107.4 84.2ZM106.9 89.3L101.924 88.8121L101.386 94.3H106.9V89.3ZM142.8 89.3L147.764 89.8957L148.436 84.3H142.8V89.3ZM141.9 96.8V101.8H146.336L146.864 97.3957L141.9 96.8ZM59.6 96.8L54.6356 96.2043L53.9641 101.8H59.6V96.8ZM60.5 89.3V84.3H56.0641L55.5356 88.7043L60.5 89.3ZM96.8 89.3V94.3H101.334L101.776 89.7879L96.8 89.3ZM97.3 84.2L102.276 84.6879L102.814 79.2H97.3V84.2ZM70 84.2L65.0376 83.5882L64.3457 89.2H70V84.2ZM70.9 76.9V71.9H66.4786L65.9376 76.2882L70.9 76.9ZM98.1 76.9V81.9H102.606L103.073 77.418L98.1 76.9ZM98.6 72.1L103.573 72.618L104.148 67.1H98.6V72.1ZM66.9 72.1L61.9366 71.4963L61.2551 77.1H66.9V72.1ZM67.8 64.7V59.7H63.3713L62.8366 64.0963L67.8 64.7ZM99.4 64.7V69.7H103.831L104.364 65.3017L99.4 64.7ZM100.2 58.1V53.1H95.7695L95.2363 57.4983L100.2 58.1ZM110.3 58.1L115.264 58.7017L115.943 53.1H110.3V58.1ZM109.5 64.7L104.536 64.0983L103.857 69.7H109.5V64.7ZM140.9 64.7L145.863 65.3037L146.545 59.7H140.9V64.7ZM140 72.1V77.1H144.429L144.963 72.7037L140 72.1ZM108.7 72.1V67.1H104.194L103.727 71.582L108.7 72.1ZM108.2 76.9L103.227 76.382L102.652 81.9H108.2V76.9ZM130.4 102.7L126.779 106.148L126.821 106.192L126.864 106.236L130.4 102.7ZM132.1 108.9L137.07 109.448L137.073 109.417L137.076 109.385L132.1 108.9ZM129 137L133.955 137.67L133.963 137.609L133.97 137.548L129 137ZM126.4 142.7L122.952 139.079L122.908 139.121L122.864 139.164L126.4 142.7ZM103.6 142.7L98.6285 142.167L98.1582 146.556L102.455 147.567L103.6 142.7ZM104.5 134.3L105.671 129.439L100.135 128.105L99.5285 133.767L104.5 134.3ZM117.4 136.6L117.075 141.589L117.237 141.6H117.4V136.6ZM119.2 136.2L122.736 139.736L122.931 139.54L123.104 139.323L119.2 136.2ZM119.8 134.5L124.732 135.322L124.76 135.153L124.777 134.982L119.8 134.5ZM120.1 131.4L125.077 131.882L125.607 126.4H120.1V131.4ZM75.9 131.4V126.4H71.3821L70.9256 130.895L75.9 131.4ZM74.6 144.2V149.2H79.1179L79.5744 144.705L74.6 144.2ZM64.9 144.2L59.9309 143.645L59.3102 149.2H64.9V144.2ZM68.9 108.4L73.8691 108.955L73.8694 108.952L68.9 108.4ZM71.5 102.7L68.0476 99.0832V99.0832L71.5 102.7ZM122.6 108.5L127.571 109.04L128.173 103.5H122.6V108.5ZM78.4 108.5V103.5H73.914L73.4293 107.96L78.4 108.5ZM77.9 113.1L72.9293 112.56L72.3271 118.1H77.9V113.1ZM122.1 113.1V118.1H126.586L127.071 113.64L122.1 113.1ZM121.4 119.8L126.371 120.34L126.973 114.8H121.4V119.8ZM77.2 119.8V114.8H72.714L72.2293 119.26L77.2 119.8ZM76.7 124.4L71.7293 123.86L71.1271 129.4H76.7V124.4ZM120.9 124.4V129.4H125.386L125.871 124.94L120.9 124.4ZM135.8 76.9L130.838 76.2882L129.938 83.5882L134.9 84.2L139.862 84.8118L140.762 77.5118L135.8 76.9ZM134.9 84.2V79.2H107.4V84.2V89.2H134.9V84.2ZM107.4 84.2L102.424 83.7121L101.924 88.8121L106.9 89.3L111.876 89.7879L112.376 84.6879L107.4 84.2ZM106.9 89.3V94.3H142.8V89.3V84.3H106.9V89.3ZM142.8 89.3L137.836 88.7043L136.936 96.2043L141.9 96.8L146.864 97.3957L147.764 89.8957L142.8 89.3ZM141.9 96.8V91.8H59.6V96.8V101.8H141.9V96.8ZM59.6 96.8L64.5644 97.3957L65.4644 89.8957L60.5 89.3L55.5356 88.7043L54.6356 96.2043L59.6 96.8ZM60.5 89.3V94.3H96.8V89.3V84.3H60.5V89.3ZM96.8 89.3L101.776 89.7879L102.276 84.6879L97.3 84.2L92.3239 83.7121L91.8239 88.8121L96.8 89.3ZM97.3 84.2V79.2H70V84.2V89.2H97.3V84.2ZM70 84.2L74.9624 84.8118L75.8624 77.5118L70.9 76.9L65.9376 76.2882L65.0376 83.5882L70 84.2ZM70.9 76.9V81.9H98.1V76.9V71.9H70.9V76.9ZM98.1 76.9L103.073 77.418L103.573 72.618L98.6 72.1L93.6269 71.582L93.1269 76.382L98.1 76.9ZM98.6 72.1V67.1H66.9V72.1V77.1H98.6V72.1ZM66.9 72.1L71.8634 72.7037L72.7634 65.3037L67.8 64.7L62.8366 64.0963L61.9366 71.4963L66.9 72.1ZM67.8 64.7V69.7H99.4V64.7V59.7H67.8V64.7ZM99.4 64.7L104.364 65.3017L105.164 58.7017L100.2 58.1L95.2363 57.4983L94.4363 64.0983L99.4 64.7ZM100.2 58.1V63.1H110.3V58.1V53.1H100.2V58.1ZM110.3 58.1L105.336 57.4983L104.536 64.0983L109.5 64.7L114.464 65.3017L115.264 58.7017L110.3 58.1ZM109.5 64.7V69.7H140.9V64.7V59.7H109.5V64.7ZM140.9 64.7L135.937 64.0963L135.037 71.4963L140 72.1L144.963 72.7037L145.863 65.3037L140.9 64.7ZM140 72.1V67.1H108.7V72.1V77.1H140V72.1ZM108.7 72.1L103.727 71.582L103.227 76.382L108.2 76.9L113.173 77.418L113.673 72.618L108.7 72.1ZM108.2 76.9V81.9H135.8V76.9V71.9H108.2V76.9ZM124.1 100.6V105.6C126.259 105.6 126.765 106.133 126.779 106.148L130.4 102.7L134.021 99.2517C131.369 96.467 127.674 95.6 124.1 95.6V100.6ZM130.4 102.7L126.864 106.236C126.901 106.272 126.98 106.355 127.053 106.622C127.137 106.928 127.214 107.492 127.124 108.414L132.1 108.9L137.076 109.385C137.429 105.77 136.759 101.988 133.936 99.1645L130.4 102.7ZM132.1 108.9L127.13 108.352L124.03 136.452L129 137L133.97 137.548L137.07 109.448L132.1 108.9ZM129 137L124.045 136.33C123.82 137.999 123.317 138.731 122.952 139.079L126.4 142.7L129.848 146.321C132.283 144.002 133.514 140.934 133.955 137.67L129 137ZM126.4 142.7L122.864 139.164C122.563 139.466 122.181 139.7 121.3 139.7V144.7V149.7C124.553 149.7 127.57 148.601 129.936 146.236L126.4 142.7ZM121.3 144.7V139.7C115.532 139.7 110.017 139.073 104.745 137.833L103.6 142.7L102.455 147.567C108.516 148.993 114.802 149.7 121.3 149.7V144.7ZM103.6 142.7L108.572 143.233L109.472 134.833L104.5 134.3L99.5285 133.767L98.6285 142.167L103.6 142.7ZM104.5 134.3L103.329 139.161C108.948 140.515 113.577 141.361 117.075 141.589L117.4 136.6L117.725 131.611C115.09 131.439 111.119 130.752 105.671 129.439L104.5 134.3ZM117.4 136.6V141.6H117.7V136.6V131.6H117.4V136.6ZM117.7 136.6V141.6C118.657 141.6 120.966 141.505 122.736 139.736L119.2 136.2L115.664 132.664C116.343 131.986 117.039 131.748 117.337 131.669C117.641 131.588 117.797 131.6 117.7 131.6V136.6ZM119.2 136.2L123.104 139.323C124.197 137.957 124.564 136.332 124.732 135.322L119.8 134.5L114.868 133.678C114.834 133.884 114.812 133.927 114.835 133.861C114.849 133.823 114.883 133.732 114.949 133.605C115.014 133.479 115.124 133.291 115.296 133.077L119.2 136.2ZM119.8 134.5L124.777 134.982L125.077 131.882L120.1 131.4L115.123 130.918L114.823 134.018L119.8 134.5ZM120.1 131.4V126.4H75.9V131.4V136.4H120.1V131.4ZM75.9 131.4L70.9256 130.895L69.6256 143.695L74.6 144.2L79.5744 144.705L80.8744 131.905L75.9 131.4ZM74.6 144.2V139.2H64.9V144.2V149.2H74.6V144.2ZM64.9 144.2L69.8691 144.755L73.8691 108.955L68.9 108.4L63.9309 107.845L59.9309 143.645L64.9 144.2ZM68.9 108.4L73.8694 108.952C74.0322 107.487 74.4914 106.757 74.9524 106.317L71.5 102.7L68.0476 99.0832C65.5752 101.443 64.3011 104.513 63.9306 107.848L68.9 108.4ZM71.5 102.7L74.9524 106.317C75.2711 106.013 75.9161 105.6 77.5 105.6V100.6V95.6C74.0172 95.6 70.6622 96.5875 68.0476 99.0832L71.5 102.7ZM77.5 100.6V105.6H124.1V100.6V95.6H77.5V100.6ZM122.6 108.5V103.5H78.4V108.5V113.5H122.6V108.5ZM78.4 108.5L73.4293 107.96L72.9293 112.56L77.9 113.1L82.8707 113.64L83.3707 109.04L78.4 108.5ZM77.9 113.1V118.1H122.1V113.1V108.1H77.9V113.1ZM122.1 113.1L127.071 113.64L127.571 109.04L122.6 108.5L117.629 107.96L117.129 112.56L122.1 113.1ZM121.4 119.8V114.8H77.2V119.8V124.8H121.4V119.8ZM77.2 119.8L72.2293 119.26L71.7293 123.86L76.7 124.4L81.6707 124.94L82.1707 120.34L77.2 119.8ZM76.7 124.4V129.4H120.9V124.4V119.4H76.7V124.4ZM120.9 124.4L125.871 124.94L126.371 120.34L121.4 119.8L116.429 119.26L115.929 123.86L120.9 124.4ZM190.9 66.8L195.865 67.3911L196.531 61.8H190.9V66.8ZM189.9 75.2V80.2H194.34L194.865 75.7911L189.9 75.2ZM163.5 74.4L166.822 70.6629L166.822 70.6629L163.5 74.4ZM163.1 70L158.522 67.9892L158.475 68.0961L158.433 68.2051L163.1 70ZM167.8 59.3V54.3H164.535L163.222 57.2892L167.8 59.3ZM178.3 59.3L182.831 61.4144L186.151 54.3H178.3V59.3ZM174.8 66.8L170.269 64.6856L166.949 71.8H174.8V66.8ZM242.1 63.5L245.354 59.7037L245.354 59.7037L242.1 63.5ZM244.1 70.5L239.168 69.678L239.144 69.8197L239.129 69.9626L244.1 70.5ZM236.9 137.1L231.929 136.563L231.929 136.563L236.9 137.1ZM234.3 142.6L231.134 138.73L231.082 138.772L231.032 138.816L234.3 142.6ZM228.9 144.3L229.212 139.31L229.197 139.309L229.181 139.308L228.9 144.3ZM215 142L210.039 141.373L209.498 145.654L213.654 146.816L215 142ZM216.1 133.3L217.236 128.431L211.835 127.171L211.139 132.673L216.1 133.3ZM226.2 135.2L227.781 130.457L227.304 130.298L226.805 130.237L226.2 135.2ZM227.8 135L231.96 137.774L232.133 137.515L232.272 137.236L227.8 135ZM228.2 133.7L233.081 134.785L233.142 134.508L233.172 134.225L228.2 133.7ZM234.9 70.3L239.872 70.8255L240.456 65.3H234.9V70.3ZM203.5 70.3V65.3H199.062L198.535 69.7067L203.5 70.3ZM194.8 143.1V148.1H199.238L199.765 143.693L194.8 143.1ZM185.6 143.1L180.636 142.502L179.961 148.1H185.6V143.1ZM194.4 70.1L189.439 69.4798L189.437 69.4907L189.436 69.5016L194.4 70.1ZM197.1 63.9L193.644 60.2868L193.604 60.3252L193.564 60.3645L197.1 63.9ZM205.7 79.1V74.1H201.231L200.731 78.541L205.7 79.1ZM230.7 79.1L235.661 79.7202L236.364 74.1H230.7V79.1ZM229.7 87.1V92.1H234.114L234.661 87.7202L229.7 87.1ZM204.8 87.1L199.831 86.541L199.206 92.1H204.8V87.1ZM187.4 104.5L192.371 105.039L192.971 99.5H187.4V104.5ZM186.5 112.8V117.8H190.987L191.471 113.339L186.5 112.8ZM175.3 112.8V107.8H170.857L170.335 112.212L175.3 112.8ZM173.5 128L168.535 127.412L168.5 127.705V128H173.5ZM175 129.5L176.288 134.331L176.407 134.3L176.524 134.262L175 129.5ZM179.5 127.8L181.552 132.36L181.601 132.337L181.65 132.314L179.5 127.8ZM184.8 125.1L189.779 125.553L190.616 116.348L182.454 120.684L184.8 125.1ZM183.9 135L186.09 139.495L188.624 138.26L188.879 135.453L183.9 135ZM177.1 138L178.873 142.675V142.675L177.1 138ZM170.5 139.9L171.322 144.832L171.44 144.812L171.557 144.787L170.5 139.9ZM165 138.6L161.222 141.875L165 138.6ZM163.8 133L168.703 133.981L168.742 133.786L168.765 133.59L163.8 133ZM166.2 112.8L171.165 113.39L171.829 107.8H166.2V112.8ZM156.7 112.8L151.736 112.202L151.061 117.8H156.7V112.8ZM157.7 104.5V99.5H153.266L152.736 103.902L157.7 104.5ZM167.2 104.5V109.5H171.614L172.161 105.12L167.2 104.5ZM168.6 93.3L173.561 93.9202L174.264 88.3H168.6V93.3ZM160.3 93.3L155.337 92.6947L154.653 98.3H160.3V93.3ZM161.3 85.1V80.1H156.873L156.337 84.4947L161.3 85.1ZM187.8 85.1L192.763 85.7053L193.447 80.1H187.8V85.1ZM186.8 93.3V98.3H191.227L191.763 93.9053L186.8 93.3ZM177.6 93.3V88.3H173.147L172.633 92.7235L177.6 93.3ZM176.3 104.5L171.333 103.924L170.686 109.5H176.3V104.5ZM224.5 125.1V130.1H228.952L229.466 125.678L224.5 125.1ZM201.5 125.1L196.536 124.502L195.861 130.1H201.5V125.1ZM204.5 100.2L199.556 99.451L199.545 99.5263L199.536 99.6019L204.5 100.2ZM206.8 95.5L203.834 91.4747L203.782 91.5133L203.73 91.5532L206.8 95.5ZM227.2 101.9L232.166 102.478L232.167 102.473L227.2 101.9ZM210.1 117.3L205.13 116.751L204.518 122.3H210.1V117.3ZM217.8 117.3V122.3H222.278L222.77 117.849L217.8 117.3ZM219.5 101.9L224.47 102.449L225.082 96.9H219.5V101.9ZM211.8 101.9V96.9H207.322L206.83 101.351L211.8 101.9ZM190.9 66.8L185.935 66.2089L184.935 74.6089L189.9 75.2L194.865 75.7911L195.865 67.3911L190.9 66.8ZM189.9 75.2V70.2H166.1V75.2V80.2H189.9V75.2ZM166.1 75.2V70.2C165.913 70.2 165.926 70.1766 166.07 70.2211C166.233 70.2711 166.521 70.3956 166.822 70.6629L163.5 74.4L160.178 78.137C162.009 79.7647 164.243 80.2 166.1 80.2V75.2ZM163.5 74.4L166.822 70.6629C167.084 70.8963 167.31 71.2077 167.453 71.5568C167.588 71.888 167.6 72.131 167.6 72.2H162.6H157.6C157.6 74.3056 158.333 76.4972 160.178 78.1371L163.5 74.4ZM162.6 72.2H167.6C167.6 72.3527 167.58 72.3984 167.601 72.3081C167.62 72.2218 167.667 72.0542 167.767 71.7949L163.1 70L158.433 68.2051C157.987 69.3651 157.6 70.745 157.6 72.2H162.6ZM163.1 70L167.678 72.0108L172.378 61.3108L167.8 59.3L163.222 57.2892L158.522 67.9892L163.1 70ZM167.8 59.3V64.3H178.3V59.3V54.3H167.8V59.3ZM178.3 59.3L173.769 57.1856L170.269 64.6856L174.8 66.8L179.331 68.9144L182.831 61.4144L178.3 59.3ZM174.8 66.8V71.8H190.9V66.8V61.8H174.8V66.8ZM236 61.7V66.7C237.995 66.7 238.682 67.1561 238.846 67.2963L242.1 63.5L245.354 59.7037C242.717 57.4439 239.338 56.7 236 56.7V61.7ZM242.1 63.5L238.846 67.2963C238.891 67.3351 238.949 67.3916 239.015 67.5622C239.093 67.7631 239.2 68.1748 239.2 68.9H244.2H249.2C249.2 65.5107 248.175 62.1221 245.354 59.7037L242.1 63.5ZM244.2 68.9H239.2C239.2 69.1535 239.194 69.3469 239.185 69.4881C239.176 69.634 239.166 69.6902 239.168 69.678L244.1 70.5L249.032 71.322C249.163 70.5335 249.2 69.6908 249.2 68.9H244.2ZM244.1 70.5L239.129 69.9626L231.929 136.563L236.9 137.1L241.871 137.637L249.071 71.0374L244.1 70.5ZM236.9 137.1L231.929 136.563C231.758 138.143 231.3 138.594 231.134 138.73L234.3 142.6L237.466 146.47C240.233 144.206 241.509 140.99 241.871 137.637L236.9 137.1ZM234.3 142.6L231.032 138.816C230.661 139.136 230.187 139.371 229.212 139.31L228.9 144.3L228.588 149.29C231.88 149.496 235.006 148.597 237.568 146.384L234.3 142.6ZM228.9 144.3L229.181 139.308C224.805 139.061 220.529 138.353 216.346 137.184L215 142L213.654 146.816C218.538 148.18 223.528 149.005 228.619 149.292L228.9 144.3ZM215 142L219.961 142.627L221.061 133.927L216.1 133.3L211.139 132.673L210.039 141.373L215 142ZM216.1 133.3L214.964 138.169C219.063 139.126 222.619 139.8 225.595 140.163L226.2 135.2L226.805 130.237C224.314 129.933 221.137 129.341 217.236 128.431L216.1 133.3ZM226.2 135.2L224.619 139.943C225.536 140.249 226.404 140.3 227 140.3V135.3V130.3C227 130.3 227 130.3 227 130.3C227 130.3 227 130.3 227 130.3C227 130.3 227 130.3 227 130.3C227 130.3 227 130.3 227.001 130.3C227.001 130.3 227.002 130.3 227.002 130.3C227.004 130.3 227.006 130.3 227.01 130.3C227.016 130.3 227.026 130.301 227.04 130.301C227.066 130.303 227.111 130.306 227.17 130.314C227.279 130.327 227.497 130.362 227.781 130.457L226.2 135.2ZM227 135.3V140.3C227.948 140.3 230.414 140.093 231.96 137.774L227.8 135L223.64 132.226C224.256 131.302 225.082 130.792 225.744 130.543C226.35 130.316 226.824 130.3 227 130.3V135.3ZM227.8 135L232.272 137.236C232.694 136.392 232.932 135.456 233.081 134.785L228.2 133.7L223.319 132.615C223.296 132.718 223.276 132.802 223.259 132.869C223.241 132.937 223.228 132.981 223.221 133.005C223.213 133.029 223.215 133.022 223.228 132.989C223.234 132.971 223.245 132.944 223.261 132.908C223.276 132.872 223.298 132.823 223.328 132.764L227.8 135ZM228.2 133.7L233.172 134.225L239.872 70.8255L234.9 70.3L229.928 69.7745L223.228 133.175L228.2 133.7ZM234.9 70.3V65.3H203.5V70.3V75.3H234.9V70.3ZM203.5 70.3L198.535 69.7067L189.835 142.507L194.8 143.1L199.765 143.693L208.465 70.8933L203.5 70.3ZM194.8 143.1V138.1H185.6V143.1V148.1H194.8V143.1ZM185.6 143.1L190.564 143.698L199.364 70.6984L194.4 70.1L189.436 69.5016L180.636 142.502L185.6 143.1ZM194.4 70.1L199.361 70.7202C199.598 68.8282 200.161 67.9101 200.636 67.4355L197.1 63.9L193.564 60.3645C191.106 62.8232 189.869 66.0385 189.439 69.4798L194.4 70.1ZM197.1 63.9L200.556 67.5132C200.936 67.1502 201.675 66.7 203.4 66.7V61.7V56.7C199.792 56.7 196.331 57.7165 193.644 60.2868L197.1 63.9ZM203.4 61.7V66.7H236V61.7V56.7H203.4V61.7ZM205.7 79.1V84.1H230.7V79.1V74.1H205.7V79.1ZM230.7 79.1L225.739 78.4798L224.739 86.4798L229.7 87.1L234.661 87.7202L235.661 79.7202L230.7 79.1ZM229.7 87.1V82.1H204.8V87.1V92.1H229.7V87.1ZM204.8 87.1L209.769 87.659L210.669 79.659L205.7 79.1L200.731 78.541L199.831 86.541L204.8 87.1ZM187.4 104.5L182.429 103.961L181.529 112.261L186.5 112.8L191.471 113.339L192.371 105.039L187.4 104.5ZM186.5 112.8V107.8H175.3V112.8V117.8H186.5V112.8ZM175.3 112.8L170.335 112.212L168.535 127.412L173.5 128L178.465 128.588L180.265 113.388L175.3 112.8ZM173.5 128H168.5V128.3H173.5H178.5V128H173.5ZM173.5 128.3H168.5C168.5 129.361 168.713 131.673 170.752 133.304C172.85 134.983 175.207 134.62 176.288 134.331L175 129.5L173.712 124.669C173.793 124.647 175.4 124.217 176.998 125.496C177.76 126.105 178.147 126.834 178.326 127.362C178.494 127.852 178.5 128.209 178.5 128.3H173.5ZM175 129.5L176.524 134.262C178.336 133.682 180.017 133.05 181.552 132.36L179.5 127.8L177.448 123.24C176.316 123.75 174.997 124.251 173.476 124.738L175 129.5ZM179.5 127.8L181.65 132.314C183.141 131.604 184.979 130.667 187.146 129.516L184.8 125.1L182.454 120.684C180.354 121.8 178.659 122.663 177.35 123.286L179.5 127.8ZM184.8 125.1L179.821 124.647L178.921 134.547L183.9 135L188.879 135.453L189.779 125.553L184.8 125.1ZM183.9 135L181.71 130.505C179.197 131.729 177.075 132.662 175.327 133.325L177.1 138L178.873 142.675C180.991 141.872 183.403 140.804 186.09 139.495L183.9 135ZM177.1 138L175.327 133.325C173.671 133.953 171.717 134.521 169.443 135.013L170.5 139.9L171.557 144.787C174.216 144.212 176.662 143.514 178.873 142.675L177.1 138ZM170.5 139.9L169.678 134.968C169.339 135.024 169.083 135.06 168.898 135.081C168.699 135.103 168.648 135.1 168.7 135.1V140.1V145.1C169.531 145.1 170.467 144.974 171.322 144.832L170.5 139.9ZM168.7 140.1V135.1C168.417 135.1 168.366 135.056 168.454 135.091C168.497 135.109 168.558 135.14 168.625 135.188C168.692 135.235 168.743 135.285 168.778 135.325L165 138.6L161.222 141.875C163.235 144.198 165.981 145.1 168.7 145.1V140.1ZM165 138.6L168.778 135.325C168.827 135.381 168.819 135.403 168.791 135.314C168.758 135.209 168.7 134.957 168.7 134.5H163.7H158.7C158.7 137.057 159.35 139.715 161.222 141.875L165 138.6ZM163.7 134.5H168.7C168.7 134.244 168.707 134.068 168.714 133.958C168.716 133.932 168.717 133.912 168.719 133.898C168.719 133.891 168.72 133.886 168.72 133.882C168.72 133.879 168.721 133.877 168.721 133.877C168.721 133.877 168.72 133.879 168.72 133.883C168.719 133.887 168.718 133.893 168.717 133.901C168.715 133.917 168.71 133.944 168.703 133.981L163.8 133L158.897 132.019C158.73 132.852 158.7 133.754 158.7 134.5H163.7ZM163.8 133L168.765 133.59L171.165 113.39L166.2 112.8L161.235 112.21L158.835 132.41L163.8 133ZM166.2 112.8V107.8H156.7V112.8V117.8H166.2V112.8ZM156.7 112.8L161.664 113.398L162.664 105.098L157.7 104.5L152.736 103.902L151.736 112.202L156.7 112.8ZM157.7 104.5V109.5H167.2V104.5V99.5H157.7V104.5ZM167.2 104.5L172.161 105.12L173.561 93.9202L168.6 93.3L163.639 92.6798L162.239 103.88L167.2 104.5ZM168.6 93.3V88.3H160.3V93.3V98.3H168.6V93.3ZM160.3 93.3L165.263 93.9053L166.263 85.7053L161.3 85.1L156.337 84.4947L155.337 92.6947L160.3 93.3ZM161.3 85.1V90.1H187.8V85.1V80.1H161.3V85.1ZM187.8 85.1L182.837 84.4947L181.837 92.6947L186.8 93.3L191.763 93.9053L192.763 85.7053L187.8 85.1ZM186.8 93.3V88.3H177.6V93.3V98.3H186.8V93.3ZM177.6 93.3L172.633 92.7235L171.333 103.924L176.3 104.5L181.267 105.076L182.567 93.8765L177.6 93.3ZM176.3 104.5V109.5H187.4V104.5V99.5H176.3V104.5ZM224.5 125.1V120.1H201.5V125.1V130.1H224.5V125.1ZM201.5 125.1L206.464 125.698L209.464 100.798L204.5 100.2L199.536 99.6019L196.536 124.502L201.5 125.1ZM204.5 100.2L209.444 100.949C209.673 99.4342 210.065 99.2946 209.87 99.4468L206.8 95.5L203.73 91.5532C201.135 93.5721 199.994 96.5658 199.556 99.451L204.5 100.2ZM206.8 95.5L209.766 99.5253C209.757 99.5322 209.907 99.4188 210.368 99.3057C210.832 99.1915 211.524 99.1 212.5 99.1V94.1V89.1C209.5 89.1 206.342 89.6266 203.834 91.4747L206.8 95.5ZM212.5 94.1V99.1H219.8V94.1V89.1H212.5V94.1ZM219.8 94.1V99.1C221.93 99.1 222.292 99.6167 222.173 99.4913C221.987 99.2959 222.444 99.5012 222.233 101.327L227.2 101.9L232.167 102.473C232.556 99.0988 232.079 95.4041 229.427 92.6087C226.842 89.8833 223.204 89.1 219.8 89.1V94.1ZM227.2 101.9L222.234 101.322L219.534 124.522L224.5 125.1L229.466 125.678L232.166 102.478L227.2 101.9ZM210.1 117.3V122.3H217.8V117.3V112.3H210.1V117.3ZM217.8 117.3L222.77 117.849L224.47 102.449L219.5 101.9L214.53 101.351L212.83 116.751L217.8 117.3ZM219.5 101.9V96.9H211.8V101.9V106.9H219.5V101.9ZM211.8 101.9L206.83 101.351L205.13 116.751L210.1 117.3L215.07 117.849L216.77 102.449L211.8 101.9Z" fill="#5E2106" mask="url(#path-4-outside-1_14_21)"/>
</svg>
