<svg width="300" height="200" viewBox="0 0 300 200" fill="none" xmlns="http://www.w3.org/2000/svg">
<path d="M27.7578 167.87C27.7578 172.667 29.6483 177.21 33.0632 180.625C36.4781 184.041 41.0212 185.932 45.8197 185.932H253.536C258.332 185.932 262.877 184.041 266.292 180.625C269.707 177.21 271.597 172.666 271.597 167.87V32.4308C271.597 27.6323 269.707 23.0893 266.292 19.6744C262.876 16.2595 258.332 14.369 253.536 14.369H45.8197C41.0212 14.369 36.4781 16.2595 33.0632 19.6744C29.6483 23.0893 27.7578 27.6323 27.7578 32.4308V167.87Z" fill="#EFD25B"/>
<path d="M23.2832 31.1058V169.195C23.9754 181.002 33.8461 190.448 45.8186 190.448H253.535C265.952 190.448 276.112 180.287 276.112 167.87V32.4308C276.112 20.0134 265.952 9.85307 253.535 9.85307H45.8186C33.8461 9.85307 23.9754 19.2994 23.2832 31.1058ZM45.8186 14.369H253.535C258.331 14.369 262.876 16.2595 266.291 19.6744C269.706 23.0893 271.596 27.6323 271.596 32.4308V167.87C271.596 172.667 269.706 177.21 266.291 180.625C262.875 184.041 258.331 185.932 253.535 185.932H45.8186C41.0201 185.932 36.4771 184.041 33.0622 180.625C29.6473 177.21 27.7568 172.666 27.7568 167.87V32.4308C27.7568 27.6323 29.6473 23.0893 33.0622 19.6744C36.4771 16.2595 41.0201 14.369 45.8186 14.369Z" fill="#BD8C53"/>
<path d="M253.448 179.779H44.8865C38.6787 179.779 33.5977 174.7 33.5977 168.49V32.6569C33.5977 26.4474 38.6787 21.3681 44.8865 21.3681H253.449C259.658 21.3681 264.738 26.4474 264.738 32.6569V168.49C264.737 174.699 259.657 179.779 253.448 179.779Z" fill="#BD6A08"/>
<mask id="path-4-outside-1_14_13" maskUnits="userSpaceOnUse" x="41" y="52" width="214" height="97" fill="black">
<rect fill="white" x="41" y="52" width="214" height="97"/>
<path d="M139 72.7H122L121 79.8H143.1L142.1 87.4H106.5L105.8 92.5H126.1C129.033 92.5 131.167 92.9333 132.5 93.8C133.833 94.6667 134.5 96.1667 134.5 98.3C134.5 98.9667 134.467 99.5 134.4 99.9L131.3 125.6H64.8L68.1 98.7C68.5 94.5667 71 92.5 75.6 92.5H96.9L97.6 87.4H61.3L62.3 79.8H82.2L83.1 72.7H66.7L67.6 65.3H84L85 57.7H94.4L93.4 65.3H113.7L114.8 57.7H124.1L123 65.3H139.9L139 72.7ZM112.7 72.7H92.5L91.7 79.8H111.8L112.7 72.7ZM96.1 99.7H77.1L76.4 105.5H95.4L96.1 99.7ZM124.2 105.5L124.9 99.7H105L104.3 105.5H124.2ZM94.6 112.3H75.6L74.9 118.3H93.9L94.6 112.3ZM102.8 118.3H122.6L123.3 112.3H103.5L102.8 118.3ZM90.7 128.7L72 143.5H56.7L76.1 128.7H90.7ZM120.1 128.8L139 143.5H123.8L105.6 128.8H120.1ZM238.2 132.6L237.1 141.8H157.3L158.3 132.6H192.2L194.6 108.9H165.9L166.9 100H195.6L196.7 89.6H179.7L180.6 81.7L168.7 95.6L156.7 94.2L185.3 60.9C186.3 59.6333 187.3 58.7333 188.3 58.2C189.3 57.6667 190.567 57.4333 192.1 57.5H215.5C216.9 57.4333 218.1 57.7 219.1 58.3C220.1 58.8333 221.067 59.8 222 61.2L245.4 93.2L233.3 94.6L224 81.3L223.1 89.6H206.8L205.7 100H235.1L234.1 108.9H204.7L202.3 132.6H238.2ZM214 66.8H193.3L181.2 81H223.8L214 66.8ZM174.9 128.9L171 112.9H180.4L184.6 128.9H174.9ZM211.6 129L218.6 112.9H228.2L221.6 129H211.6Z"/>
</mask>
<path d="M139 72.7H122L121 79.8H143.1L142.1 87.4H106.5L105.8 92.5H126.1C129.033 92.5 131.167 92.9333 132.5 93.8C133.833 94.6667 134.5 96.1667 134.5 98.3C134.5 98.9667 134.467 99.5 134.4 99.9L131.3 125.6H64.8L68.1 98.7C68.5 94.5667 71 92.5 75.6 92.5H96.9L97.6 87.4H61.3L62.3 79.8H82.2L83.1 72.7H66.7L67.6 65.3H84L85 57.7H94.4L93.4 65.3H113.7L114.8 57.7H124.1L123 65.3H139.9L139 72.7ZM112.7 72.7H92.5L91.7 79.8H111.8L112.7 72.7ZM96.1 99.7H77.1L76.4 105.5H95.4L96.1 99.7ZM124.2 105.5L124.9 99.7H105L104.3 105.5H124.2ZM94.6 112.3H75.6L74.9 118.3H93.9L94.6 112.3ZM102.8 118.3H122.6L123.3 112.3H103.5L102.8 118.3ZM90.7 128.7L72 143.5H56.7L76.1 128.7H90.7ZM120.1 128.8L139 143.5H123.8L105.6 128.8H120.1ZM238.2 132.6L237.1 141.8H157.3L158.3 132.6H192.2L194.6 108.9H165.9L166.9 100H195.6L196.7 89.6H179.7L180.6 81.7L168.7 95.6L156.7 94.2L185.3 60.9C186.3 59.6333 187.3 58.7333 188.3 58.2C189.3 57.6667 190.567 57.4333 192.1 57.5H215.5C216.9 57.4333 218.1 57.7 219.1 58.3C220.1 58.8333 221.067 59.8 222 61.2L245.4 93.2L233.3 94.6L224 81.3L223.1 89.6H206.8L205.7 100H235.1L234.1 108.9H204.7L202.3 132.6H238.2ZM214 66.8H193.3L181.2 81H223.8L214 66.8ZM174.9 128.9L171 112.9H180.4L184.6 128.9H174.9ZM211.6 129L218.6 112.9H228.2L221.6 129H211.6Z" fill="#F9EA91"/>
<path d="M139 72.7V77.7H143.429L143.963 73.3037L139 72.7ZM122 72.7V67.7H117.655L117.049 72.0027L122 72.7ZM121 79.8L116.049 79.1027L115.246 84.8H121V79.8ZM143.1 79.8L148.057 80.4523L148.801 74.8H143.1V79.8ZM142.1 87.4V92.4H146.485L147.057 88.0523L142.1 87.4ZM106.5 87.4V82.4H102.139L101.546 86.7201L106.5 87.4ZM105.8 92.5L100.846 91.8201L100.067 97.5H105.8V92.5ZM134.4 99.9L129.468 99.078L129.449 99.1893L129.436 99.3012L134.4 99.9ZM131.3 125.6V130.6H135.733L136.264 126.199L131.3 125.6ZM64.8 125.6L59.8372 124.991L59.1491 130.6H64.8V125.6ZM68.1 98.7L73.0628 99.3088L73.0706 99.2453L73.0768 99.1816L68.1 98.7ZM96.9 92.5V97.5H101.261L101.854 93.1799L96.9 92.5ZM97.6 87.4L102.554 88.0799L103.333 82.4H97.6V87.4ZM61.3 87.4L56.3427 86.7477L55.599 92.4H61.3V87.4ZM62.3 79.8V74.8H57.9148L57.3427 79.1477L62.3 79.8ZM82.2 79.8V84.8H86.6062L87.1603 80.4288L82.2 79.8ZM83.1 72.7L88.0603 73.3288L88.7738 67.7H83.1V72.7ZM66.7 72.7L61.7366 72.0963L61.055 77.7H66.7V72.7ZM67.6 65.3V60.3H63.1713L62.6366 64.6963L67.6 65.3ZM84 65.3V70.3H88.3852L88.9573 65.9523L84 65.3ZM85 57.7V52.7H80.6148L80.0427 57.0477L85 57.7ZM94.4 57.7L99.3573 58.3523L100.101 52.7H94.4V57.7ZM93.4 65.3L88.4427 64.6477L87.699 70.3H93.4V65.3ZM113.7 65.3V70.3H118.028L118.648 66.0162L113.7 65.3ZM114.8 57.7V52.7H110.472L109.852 56.9838L114.8 57.7ZM124.1 57.7L129.048 58.4162L129.876 52.7H124.1V57.7ZM123 65.3L118.052 64.5838L117.224 70.3H123V65.3ZM139.9 65.3L144.863 65.9037L145.545 60.3H139.9V65.3ZM112.7 72.7L117.66 73.3288L118.374 67.7H112.7V72.7ZM92.5 72.7V67.7H88.0317L87.5314 72.1402L92.5 72.7ZM91.7 79.8L86.7314 79.2402L86.105 84.8H91.7V79.8ZM111.8 79.8V84.8H116.206L116.76 80.4288L111.8 79.8ZM96.1 99.7L101.064 100.299L101.74 94.7H96.1V99.7ZM77.1 99.7V94.7H72.6672L72.136 99.1009L77.1 99.7ZM76.4 105.5L71.436 104.901L70.7603 110.5H76.4V105.5ZM95.4 105.5V110.5H99.8328L100.364 106.099L95.4 105.5ZM124.2 105.5V110.5H128.633L129.164 106.099L124.2 105.5ZM124.9 99.7L129.864 100.299L130.54 94.7H124.9V99.7ZM105 99.7V94.7H100.567L100.036 99.1009L105 99.7ZM104.3 105.5L99.336 104.901L98.6603 110.5H104.3V105.5ZM94.6 112.3L99.5663 112.879L100.217 107.3H94.6V112.3ZM75.6 112.3V107.3H71.1494L70.6337 111.721L75.6 112.3ZM74.9 118.3L69.9337 117.721L69.2828 123.3H74.9V118.3ZM93.9 118.3V123.3H98.3506L98.8663 118.879L93.9 118.3ZM102.8 118.3L97.8337 117.721L97.1828 123.3H102.8V118.3ZM122.6 118.3V123.3H127.051L127.566 118.879L122.6 118.3ZM123.3 112.3L128.266 112.879L128.917 107.3H123.3V112.3ZM103.5 112.3V107.3H99.0494L98.5337 111.721L103.5 112.3ZM90.7 128.7L93.803 132.621L105.074 123.7H90.7V128.7ZM72 143.5V148.5H73.7392L75.103 147.421L72 143.5ZM56.7 143.5L53.6673 139.525L41.9024 148.5H56.7V143.5ZM76.1 128.7V123.7H74.4105L73.0673 124.725L76.1 128.7ZM120.1 128.8L123.17 124.853L121.816 123.8H120.1V128.8ZM139 143.5V148.5H153.573L142.07 139.553L139 143.5ZM123.8 143.5L120.658 147.39L122.033 148.5H123.8V143.5ZM105.6 128.8V123.8H91.452L102.458 132.69L105.6 128.8ZM139 72.7V67.7H122V72.7V77.7H139V72.7ZM122 72.7L117.049 72.0027L116.049 79.1027L121 79.8L125.951 80.4973L126.951 73.3973L122 72.7ZM121 79.8V84.8H143.1V79.8V74.8H121V79.8ZM143.1 79.8L138.143 79.1477L137.143 86.7477L142.1 87.4L147.057 88.0523L148.057 80.4523L143.1 79.8ZM142.1 87.4V82.4H106.5V87.4V92.4H142.1V87.4ZM106.5 87.4L101.546 86.7201L100.846 91.8201L105.8 92.5L110.754 93.1799L111.454 88.0799L106.5 87.4ZM105.8 92.5V97.5H126.1V92.5V87.5H105.8V92.5ZM126.1 92.5V97.5C127.339 97.5 128.256 97.5932 128.905 97.7249C129.568 97.8596 129.791 98.0024 129.775 97.9922L132.5 93.8L135.225 89.6078C132.645 87.9309 129.301 87.5 126.1 87.5V92.5ZM132.5 93.8L129.775 97.9922C129.709 97.9496 129.63 97.8834 129.556 97.796C129.483 97.7096 129.445 97.6373 129.431 97.6057C129.409 97.5555 129.5 97.7323 129.5 98.3H134.5H139.5C139.5 95.1164 138.443 91.6992 135.225 89.6078L132.5 93.8ZM134.5 98.3H129.5C129.5 98.5535 129.494 98.7469 129.485 98.8881C129.476 99.034 129.466 99.0902 129.468 99.078L134.4 99.9L139.332 100.722C139.463 99.9335 139.5 99.0908 139.5 98.3H134.5ZM134.4 99.9L129.436 99.3012L126.336 125.001L131.3 125.6L136.264 126.199L139.364 100.499L134.4 99.9ZM131.3 125.6V120.6H64.8V125.6V130.6H131.3V125.6ZM64.8 125.6L69.7628 126.209L73.0628 99.3088L68.1 98.7L63.1372 98.0912L59.8372 124.991L64.8 125.6ZM68.1 98.7L73.0768 99.1816C73.1332 98.5983 73.247 98.268 73.3228 98.1059C73.3892 97.9639 73.4378 97.9227 73.4607 97.9037C73.5046 97.8674 73.9849 97.5 75.6 97.5V92.5V87.5C72.6151 87.5 69.5454 88.1659 67.0893 90.1963C64.5551 92.2912 63.4133 95.2214 63.1233 98.2184L68.1 98.7ZM75.6 92.5V97.5H96.9V92.5V87.5H75.6V92.5ZM96.9 92.5L101.854 93.1799L102.554 88.0799L97.6 87.4L92.6464 86.7201L91.9464 91.8201L96.9 92.5ZM97.6 87.4V82.4H61.3V87.4V92.4H97.6V87.4ZM61.3 87.4L66.2573 88.0523L67.2573 80.4523L62.3 79.8L57.3427 79.1477L56.3427 86.7477L61.3 87.4ZM62.3 79.8V84.8H82.2V79.8V74.8H62.3V79.8ZM82.2 79.8L87.1603 80.4288L88.0603 73.3288L83.1 72.7L78.1397 72.0712L77.2397 79.1712L82.2 79.8ZM83.1 72.7V67.7H66.7V72.7V77.7H83.1V72.7ZM66.7 72.7L71.6634 73.3037L72.5634 65.9037L67.6 65.3L62.6366 64.6963L61.7366 72.0963L66.7 72.7ZM67.6 65.3V70.3H84V65.3V60.3H67.6V65.3ZM84 65.3L88.9573 65.9523L89.9573 58.3523L85 57.7L80.0427 57.0477L79.0427 64.6477L84 65.3ZM85 57.7V62.7H94.4V57.7V52.7H85V57.7ZM94.4 57.7L89.4427 57.0477L88.4427 64.6477L93.4 65.3L98.3573 65.9523L99.3573 58.3523L94.4 57.7ZM93.4 65.3V70.3H113.7V65.3V60.3H93.4V65.3ZM113.7 65.3L118.648 66.0162L119.748 58.4162L114.8 57.7L109.852 56.9838L108.752 64.5838L113.7 65.3ZM114.8 57.7V62.7H124.1V57.7V52.7H114.8V57.7ZM124.1 57.7L119.152 56.9838L118.052 64.5838L123 65.3L127.948 66.0162L129.048 58.4162L124.1 57.7ZM123 65.3V70.3H139.9V65.3V60.3H123V65.3ZM139.9 65.3L134.937 64.6963L134.037 72.0963L139 72.7L143.963 73.3037L144.863 65.9037L139.9 65.3ZM112.7 72.7V67.7H92.5V72.7V77.7H112.7V72.7ZM92.5 72.7L87.5314 72.1402L86.7314 79.2402L91.7 79.8L96.6686 80.3598L97.4686 73.2598L92.5 72.7ZM91.7 79.8V84.8H111.8V79.8V74.8H91.7V79.8ZM111.8 79.8L116.76 80.4288L117.66 73.3288L112.7 72.7L107.74 72.0712L106.84 79.1712L111.8 79.8ZM96.1 99.7V94.7H77.1V99.7V104.7H96.1V99.7ZM77.1 99.7L72.136 99.1009L71.436 104.901L76.4 105.5L81.364 106.099L82.064 100.299L77.1 99.7ZM76.4 105.5V110.5H95.4V105.5V100.5H76.4V105.5ZM95.4 105.5L100.364 106.099L101.064 100.299L96.1 99.7L91.136 99.1009L90.436 104.901L95.4 105.5ZM124.2 105.5L129.164 106.099L129.864 100.299L124.9 99.7L119.936 99.1009L119.236 104.901L124.2 105.5ZM124.9 99.7V94.7H105V99.7V104.7H124.9V99.7ZM105 99.7L100.036 99.1009L99.336 104.901L104.3 105.5L109.264 106.099L109.964 100.299L105 99.7ZM104.3 105.5V110.5H124.2V105.5V100.5H104.3V105.5ZM94.6 112.3V107.3H75.6V112.3V117.3H94.6V112.3ZM75.6 112.3L70.6337 111.721L69.9337 117.721L74.9 118.3L79.8663 118.879L80.5663 112.879L75.6 112.3ZM74.9 118.3V123.3H93.9V118.3V113.3H74.9V118.3ZM93.9 118.3L98.8663 118.879L99.5663 112.879L94.6 112.3L89.6337 111.721L88.9337 117.721L93.9 118.3ZM102.8 118.3V123.3H122.6V118.3V113.3H102.8V118.3ZM122.6 118.3L127.566 118.879L128.266 112.879L123.3 112.3L118.334 111.721L117.634 117.721L122.6 118.3ZM123.3 112.3V107.3H103.5V112.3V117.3H123.3V112.3ZM103.5 112.3L98.5337 111.721L97.8337 117.721L102.8 118.3L107.766 118.879L108.466 112.879L103.5 112.3ZM90.7 128.7L87.597 124.779L68.897 139.579L72 143.5L75.103 147.421L93.803 132.621L90.7 128.7ZM72 143.5V138.5H56.7V143.5V148.5H72V143.5ZM56.7 143.5L59.7327 147.475L79.1327 132.675L76.1 128.7L73.0673 124.725L53.6673 139.525L56.7 143.5ZM76.1 128.7V133.7H90.7V128.7V123.7H76.1V128.7ZM120.1 128.8L117.03 132.747L135.93 147.447L139 143.5L142.07 139.553L123.17 124.853L120.1 128.8ZM139 143.5V138.5H123.8V143.5V148.5H139V143.5ZM123.8 143.5L126.942 139.61L108.742 124.91L105.6 128.8L102.458 132.69L120.658 147.39L123.8 143.5ZM105.6 128.8V133.8H120.1V128.8V123.8H105.6V128.8ZM238.2 132.6L243.165 133.194L243.833 127.6H238.2V132.6ZM237.1 141.8V146.8H241.538L242.065 142.394L237.1 141.8ZM157.3 141.8L152.329 141.26L151.727 146.8H157.3V141.8ZM158.3 132.6V127.6H153.814L153.329 132.06L158.3 132.6ZM192.2 132.6V137.6H196.719L197.175 133.104L192.2 132.6ZM194.6 108.9L199.575 109.404L200.132 103.9H194.6V108.9ZM165.9 108.9L160.931 108.342L160.307 113.9H165.9V108.9ZM166.9 100V95H162.43L161.931 99.4417L166.9 100ZM195.6 100V105H200.099L200.572 100.526L195.6 100ZM196.7 89.6L201.672 90.1259L202.257 84.6H196.7V89.6ZM179.7 89.6L174.732 89.034L174.098 94.6H179.7V89.6ZM180.6 81.7L185.568 82.266L187.415 66.0512L176.802 78.4483L180.6 81.7ZM168.7 95.6L168.121 100.566L170.766 100.875L172.498 98.8517L168.7 95.6ZM156.7 94.2L152.907 90.9423L146.78 98.0765L156.121 99.1663L156.7 94.2ZM185.3 60.9L189.093 64.1577L189.16 64.0793L189.224 63.9982L185.3 60.9ZM188.3 58.2L185.947 53.7882L185.947 53.7882L188.3 58.2ZM192.1 57.5L191.883 62.4953L191.991 62.5H192.1V57.5ZM215.5 57.5V62.5H215.619L215.738 62.4943L215.5 57.5ZM219.1 58.3L216.528 62.5875L216.636 62.6524L216.747 62.7118L219.1 58.3ZM222 61.2L217.84 63.9735L217.9 64.0638L217.964 64.1513L222 61.2ZM245.4 93.2L245.975 98.1669L254.505 97.1799L249.436 90.2486L245.4 93.2ZM233.3 94.6L229.202 97.4652L230.912 99.9097L233.875 99.5669L233.3 94.6ZM224 81.3L228.098 78.4347L220.465 67.5193L219.029 80.761L224 81.3ZM223.1 89.6V94.6H227.587L228.071 90.139L223.1 89.6ZM206.8 89.6V84.6H202.301L201.828 89.0741L206.8 89.6ZM205.7 100L200.728 99.4741L200.143 105H205.7V100ZM235.1 100L240.069 100.558L240.693 95H235.1V100ZM234.1 108.9V113.9H238.57L239.069 109.458L234.1 108.9ZM204.7 108.9V103.9H200.181L199.725 108.396L204.7 108.9ZM202.3 132.6L197.325 132.096L196.768 137.6H202.3V132.6ZM214 66.8L218.115 63.96L216.624 61.8H214V66.8ZM193.3 66.8V61.8H190.992L189.494 63.5571L193.3 66.8ZM181.2 81L177.394 77.7571L170.37 86H181.2V81ZM223.8 81V86H233.326L227.915 78.16L223.8 81ZM174.9 128.9L170.042 130.084L170.972 133.9H174.9V128.9ZM171 112.9V107.9H164.635L166.142 114.084L171 112.9ZM180.4 112.9L185.236 111.631L184.257 107.9H180.4V112.9ZM184.6 128.9V133.9H191.082L189.436 127.631L184.6 128.9ZM211.6 129L207.015 127.006L203.974 134H211.6V129ZM218.6 112.9V107.9H215.322L214.015 110.906L218.6 112.9ZM228.2 112.9L232.826 114.797L235.654 107.9H228.2V112.9ZM221.6 129V134H224.954L226.226 130.897L221.6 129ZM238.2 132.6L233.235 132.006L232.135 141.206L237.1 141.8L242.065 142.394L243.165 133.194L238.2 132.6ZM237.1 141.8V136.8H157.3V141.8V146.8H237.1V141.8ZM157.3 141.8L162.271 142.34L163.271 133.14L158.3 132.6L153.329 132.06L152.329 141.26L157.3 141.8ZM158.3 132.6V137.6H192.2V132.6V127.6H158.3V132.6ZM192.2 132.6L197.175 133.104L199.575 109.404L194.6 108.9L189.625 108.396L187.225 132.096L192.2 132.6ZM194.6 108.9V103.9H165.9V108.9V113.9H194.6V108.9ZM165.9 108.9L170.869 109.458L171.869 100.558L166.9 100L161.931 99.4417L160.931 108.342L165.9 108.9ZM166.9 100V105H195.6V100V95H166.9V100ZM195.6 100L200.572 100.526L201.672 90.1259L196.7 89.6L191.728 89.0741L190.628 99.4741L195.6 100ZM196.7 89.6V84.6H179.7V89.6V94.6H196.7V89.6ZM179.7 89.6L184.668 90.166L185.568 82.266L180.6 81.7L175.632 81.134L174.732 89.034L179.7 89.6ZM180.6 81.7L176.802 78.4483L164.902 92.3483L168.7 95.6L172.498 98.8517L184.398 84.9517L180.6 81.7ZM168.7 95.6L169.279 90.6337L157.279 89.2337L156.7 94.2L156.121 99.1663L168.121 100.566L168.7 95.6ZM156.7 94.2L160.493 97.4577L189.093 64.1577L185.3 60.9L181.507 57.6423L152.907 90.9423L156.7 94.2ZM185.3 60.9L189.224 63.9982C189.965 63.0605 190.462 62.7134 190.653 62.6118L188.3 58.2L185.947 53.7882C184.138 54.7533 182.635 56.2061 181.376 57.8018L185.3 60.9ZM188.3 58.2L190.653 62.6118C190.632 62.6228 190.938 62.4542 191.883 62.4953L192.1 57.5L192.317 52.5047C190.195 52.4125 187.968 52.7105 185.947 53.7882L188.3 58.2ZM192.1 57.5V62.5H215.5V57.5V52.5H192.1V57.5ZM215.5 57.5L215.738 62.4943C216.055 62.4792 216.255 62.5064 216.365 62.5309C216.469 62.554 216.513 62.5786 216.528 62.5875L219.1 58.3L221.672 54.0125C219.668 52.8098 217.446 52.4016 215.262 52.5057L215.5 57.5ZM219.1 58.3L216.747 62.7118C216.733 62.7042 216.836 62.7566 217.039 62.9605C217.244 63.165 217.516 63.4874 217.84 63.9735L222 61.2L226.16 58.4265C224.974 56.6472 223.45 54.9531 221.453 53.8882L219.1 58.3ZM222 61.2L217.964 64.1513L241.364 96.1513L245.4 93.2L249.436 90.2486L226.036 58.2486L222 61.2ZM245.4 93.2L244.825 88.2331L232.725 89.6331L233.3 94.6L233.875 99.5669L245.975 98.1669L245.4 93.2ZM233.3 94.6L237.398 91.7348L228.098 78.4347L224 81.3L219.902 84.1652L229.202 97.4652L233.3 94.6ZM224 81.3L219.029 80.761L218.129 89.061L223.1 89.6L228.071 90.139L228.971 81.839L224 81.3ZM223.1 89.6V84.6H206.8V89.6V94.6H223.1V89.6ZM206.8 89.6L201.828 89.0741L200.728 99.4741L205.7 100L210.672 100.526L211.772 90.1259L206.8 89.6ZM205.7 100V105H235.1V100V95H205.7V100ZM235.1 100L230.131 99.4417L229.131 108.342L234.1 108.9L239.069 109.458L240.069 100.558L235.1 100ZM234.1 108.9V103.9H204.7V108.9V113.9H234.1V108.9ZM204.7 108.9L199.725 108.396L197.325 132.096L202.3 132.6L207.275 133.104L209.675 109.404L204.7 108.9ZM202.3 132.6V137.6H238.2V132.6V127.6H202.3V132.6ZM214 66.8V61.8H193.3V66.8V71.8H214V66.8ZM193.3 66.8L189.494 63.5571L177.394 77.7571L181.2 81L185.006 84.2429L197.106 70.0429L193.3 66.8ZM181.2 81V86H223.8V81V76H181.2V81ZM223.8 81L227.915 78.16L218.115 63.96L214 66.8L209.885 69.64L219.685 83.84L223.8 81ZM174.9 128.9L179.758 127.716L175.858 111.716L171 112.9L166.142 114.084L170.042 130.084L174.9 128.9ZM171 112.9V117.9H180.4V112.9V107.9H171V112.9ZM180.4 112.9L175.564 114.169L179.764 130.169L184.6 128.9L189.436 127.631L185.236 111.631L180.4 112.9ZM184.6 128.9V123.9H174.9V128.9V133.9H184.6V128.9ZM211.6 129L216.185 130.994L223.185 114.894L218.6 112.9L214.015 110.906L207.015 127.006L211.6 129ZM218.6 112.9V117.9H228.2V112.9V107.9H218.6V112.9ZM228.2 112.9L223.574 111.003L216.974 127.103L221.6 129L226.226 130.897L232.826 114.797L228.2 112.9ZM221.6 129V124H211.6V129V134H221.6V129Z" fill="#965E1C" mask="url(#path-4-outside-1_14_13)"/>
</svg>
