<svg width="300" height="200" viewBox="0 0 300 200" fill="none" xmlns="http://www.w3.org/2000/svg">
<path d="M27.7578 167.87C27.7578 172.667 29.6483 177.21 33.0632 180.625C36.4781 184.041 41.0212 185.932 45.8197 185.932H253.536C258.332 185.932 262.877 184.041 266.292 180.625C269.707 177.21 271.597 172.666 271.597 167.87V32.4308C271.597 27.6323 269.707 23.0893 266.292 19.6744C262.876 16.2595 258.332 14.369 253.536 14.369H45.8197C41.0212 14.369 36.4781 16.2595 33.0632 19.6744C29.6483 23.0893 27.7578 27.6323 27.7578 32.4308V167.87Z" fill="#ABA7A7"/>
<path d="M23.2832 31.1058V169.195C23.9754 181.002 33.8461 190.448 45.8186 190.448H253.535C265.952 190.448 276.112 180.287 276.112 167.87V32.4308C276.112 20.0134 265.952 9.85307 253.535 9.85307H45.8186C33.8461 9.85307 23.9754 19.2994 23.2832 31.1058ZM45.8186 14.369H253.535C258.331 14.369 262.876 16.2595 266.291 19.6744C269.706 23.0893 271.596 27.6323 271.596 32.4308V167.87C271.596 172.667 269.706 177.21 266.291 180.625C262.875 184.041 258.331 185.932 253.535 185.932H45.8186C41.0201 185.932 36.4771 184.041 33.0622 180.625C29.6473 177.21 27.7568 172.666 27.7568 167.87V32.4308C27.7568 27.6323 29.6473 23.0893 33.0622 19.6744C36.4771 16.2595 41.0201 14.369 45.8186 14.369Z" fill="#484343"/>
<path d="M253.448 179.779H44.8865C38.6787 179.779 33.5977 174.7 33.5977 168.49V32.6569C33.5977 26.4474 38.6787 21.3681 44.8865 21.3681H253.449C259.658 21.3681 264.738 26.4474 264.738 32.6569V168.49C264.737 174.699 259.657 179.779 253.448 179.779Z" fill="#56504F"/>
<mask id="path-4-outside-1_14_62" maskUnits="userSpaceOnUse" x="47" y="53" width="205" height="98" fill="black">
<rect fill="white" x="47" y="53" width="205" height="98"/>
<path d="M133.9 107.8H103.9L103.1 114.4H139.2L138.2 122.5H58L59.1 114.4H94L94.8 107.8H65.5L66.5 100.3H95.7L96.5 94.1H66.3L69.3 68.3C69.9667 63.6333 72.8 61.3 77.8 61.3H130.5C136.433 61.3 139.2 63.8667 138.8 69L135.9 94.1H105.7L104.9 100.3H134.9L133.9 107.8ZM99.6 69.1H78.7L76.6 86.3H97.4L99.6 69.1ZM106.6 86.3H127.1L129.3 69.1H108.8L106.6 86.3ZM82.3 71.7H90.1L93.4 83.5H85.5L82.3 71.7ZM111.1 83.5L116.6 72.1H124.7L119.5 83.5H111.1ZM107.1 143.6L102.2 126.6H111.4L116.8 143.6H107.1ZM56.2 143.6L65.5 126.7H75.6L67 143.6H56.2ZM85.3 143.6L82.7 126.7H92.4L94.9 143.6H85.3ZM129.4 143.6L122.5 126.7H132.3L140 143.6H129.4ZM240.7 82.5H224.6L223.9 89.7C223.5 92.9667 223.067 95.8 222.6 98.2H243.3L242.1 107.5H222.7C226.767 119.967 233.567 131 243.1 140.6L233.7 144.9C230.5 141.367 227.433 137.1 224.5 132.1C221.567 127.033 219.1 121.8 217.1 116.4C214.5 122.667 211.133 128.233 207 133.1C203.533 137.167 199.6 141.033 195.2 144.7L185.8 140.4C191.733 136.267 196.8 131.533 201 126.2C205.2 120.8 208.533 114.567 211 107.5H193.4L194.4 98.2H213.5C213.9 96.6667 214.367 93.8333 214.9 89.7L215.5 82.5H205.5L202.3 92.6H192.8C197.2 80.6667 200.3 70.9 202.1 63.3H210.7C210.1 65.9667 209.233 69.3 208.1 73.3H216.4L217.8 58.5H227.2L225.6 73.3H241.9L240.7 82.5ZM194.9 67L193.3 75.7H168.3C166.1 75.7 165 74.9 165 73.3C165 72.5667 165.133 71.8333 165.4 71.1L169.9 58.6H179.8L177.4 67H194.9ZM190.8 104.9L189.8 113.6H177.6L175.8 128.7V129C175.8 129.933 176.1 130.4 176.7 130.4L177.5 130.2C180.833 129 184.333 127.567 188 125.9L186.9 135.8C182.433 137.733 177.7 139.367 172.7 140.7C172.033 140.9 171.367 141 170.7 141C169.033 141 167.733 140.367 166.8 139.1C165.933 137.9 165.633 136.233 165.9 134.1L168.4 113.6H158.5L159.5 104.9H169.4L170.8 94.1H161.5L162.5 85.5H191.4L190.4 94.1H180L178.7 104.9H190.8Z"/>
</mask>
<path d="M133.9 107.8H103.9L103.1 114.4H139.2L138.2 122.5H58L59.1 114.4H94L94.8 107.8H65.5L66.5 100.3H95.7L96.5 94.1H66.3L69.3 68.3C69.9667 63.6333 72.8 61.3 77.8 61.3H130.5C136.433 61.3 139.2 63.8667 138.8 69L135.9 94.1H105.7L104.9 100.3H134.9L133.9 107.8ZM99.6 69.1H78.7L76.6 86.3H97.4L99.6 69.1ZM106.6 86.3H127.1L129.3 69.1H108.8L106.6 86.3ZM82.3 71.7H90.1L93.4 83.5H85.5L82.3 71.7ZM111.1 83.5L116.6 72.1H124.7L119.5 83.5H111.1ZM107.1 143.6L102.2 126.6H111.4L116.8 143.6H107.1ZM56.2 143.6L65.5 126.7H75.6L67 143.6H56.2ZM85.3 143.6L82.7 126.7H92.4L94.9 143.6H85.3ZM129.4 143.6L122.5 126.7H132.3L140 143.6H129.4ZM240.7 82.5H224.6L223.9 89.7C223.5 92.9667 223.067 95.8 222.6 98.2H243.3L242.1 107.5H222.7C226.767 119.967 233.567 131 243.1 140.6L233.7 144.9C230.5 141.367 227.433 137.1 224.5 132.1C221.567 127.033 219.1 121.8 217.1 116.4C214.5 122.667 211.133 128.233 207 133.1C203.533 137.167 199.6 141.033 195.2 144.7L185.8 140.4C191.733 136.267 196.8 131.533 201 126.2C205.2 120.8 208.533 114.567 211 107.5H193.4L194.4 98.2H213.5C213.9 96.6667 214.367 93.8333 214.9 89.7L215.5 82.5H205.5L202.3 92.6H192.8C197.2 80.6667 200.3 70.9 202.1 63.3H210.7C210.1 65.9667 209.233 69.3 208.1 73.3H216.4L217.8 58.5H227.2L225.6 73.3H241.9L240.7 82.5ZM194.9 67L193.3 75.7H168.3C166.1 75.7 165 74.9 165 73.3C165 72.5667 165.133 71.8333 165.4 71.1L169.9 58.6H179.8L177.4 67H194.9ZM190.8 104.9L189.8 113.6H177.6L175.8 128.7V129C175.8 129.933 176.1 130.4 176.7 130.4L177.5 130.2C180.833 129 184.333 127.567 188 125.9L186.9 135.8C182.433 137.733 177.7 139.367 172.7 140.7C172.033 140.9 171.367 141 170.7 141C169.033 141 167.733 140.367 166.8 139.1C165.933 137.9 165.633 136.233 165.9 134.1L168.4 113.6H158.5L159.5 104.9H169.4L170.8 94.1H161.5L162.5 85.5H191.4L190.4 94.1H180L178.7 104.9H190.8Z" fill="#D3D2D2"/>
<path d="M133.9 107.8V112.8H138.278L138.856 108.461L133.9 107.8ZM103.9 107.8V102.8H99.4695L98.9363 107.198L103.9 107.8ZM103.1 114.4L98.1363 113.798L97.4573 119.4H103.1V114.4ZM139.2 114.4L144.162 115.013L144.855 109.4H139.2V114.4ZM138.2 122.5V127.5H142.621L143.162 123.113L138.2 122.5ZM58 122.5L53.0455 121.827L52.2751 127.5H58V122.5ZM59.1 114.4V109.4H54.7331L54.1455 113.727L59.1 114.4ZM94 114.4V119.4H98.4305L98.9637 115.002L94 114.4ZM94.8 107.8L99.7637 108.402L100.443 102.8H94.8V107.8ZM65.5 107.8L60.5439 107.139L59.7891 112.8H65.5V107.8ZM66.5 100.3V95.3H62.1224L61.5439 99.6392L66.5 100.3ZM95.7 100.3V105.3H100.096L100.659 100.94L95.7 100.3ZM96.5 94.1L101.459 94.7399L102.187 89.1H96.5V94.1ZM66.3 94.1L61.3335 93.5225L60.6849 99.1H66.3V94.1ZM69.3 68.3L64.3503 67.5929L64.341 67.6576L64.3335 67.7225L69.3 68.3ZM138.8 69L143.767 69.5739L143.778 69.4813L143.785 69.3884L138.8 69ZM135.9 94.1V99.1H140.356L140.867 94.6739L135.9 94.1ZM105.7 94.1V89.1H101.304L100.741 93.4601L105.7 94.1ZM104.9 100.3L99.9411 99.6601L99.2134 105.3H104.9V100.3ZM134.9 100.3L139.856 100.961L140.611 95.3H134.9V100.3ZM99.6 69.1L104.56 69.7344L105.28 64.1H99.6V69.1ZM78.7 69.1V64.1H74.2733L73.7369 68.494L78.7 69.1ZM76.6 86.3L71.6369 85.694L70.9524 91.3H76.6V86.3ZM97.4 86.3V91.3H101.801L102.36 86.9344L97.4 86.3ZM106.6 86.3L101.64 85.6656L100.92 91.3H106.6V86.3ZM127.1 86.3V91.3H131.501L132.06 86.9344L127.1 86.3ZM129.3 69.1L134.26 69.7344L134.98 64.1H129.3V69.1ZM108.8 69.1V64.1H104.399L103.84 68.4656L108.8 69.1ZM82.3 71.7V66.7H75.7635L77.4743 73.0087L82.3 71.7ZM90.1 71.7L94.9152 70.3534L93.8935 66.7H90.1V71.7ZM93.4 83.5V88.5H99.9902L98.2152 82.1534L93.4 83.5ZM85.5 83.5L80.6743 84.8087L81.6753 88.5H85.5V83.5ZM111.1 83.5L106.597 81.3274L103.136 88.5H111.1V83.5ZM116.6 72.1V67.1H113.461L112.097 69.9274L116.6 72.1ZM124.7 72.1L129.249 74.175L132.476 67.1H124.7V72.1ZM119.5 83.5V88.5H122.715L124.049 85.575L119.5 83.5ZM107.1 143.6L102.296 144.985L103.338 148.6H107.1V143.6ZM102.2 126.6V121.6H95.5553L97.3956 127.985L102.2 126.6ZM111.4 126.6L116.165 125.086L115.058 121.6H111.4V126.6ZM116.8 143.6V148.6H123.634L121.565 142.086L116.8 143.6ZM56.2 143.6L51.8195 141.189L47.7415 148.6H56.2V143.6ZM65.5 126.7V121.7H62.5444L61.1195 124.289L65.5 126.7ZM75.6 126.7L80.0562 128.968L83.7545 121.7H75.6V126.7ZM67 143.6V148.6H70.0658L71.4562 145.868L67 143.6ZM85.3 143.6L80.3581 144.36L81.0104 148.6H85.3V143.6ZM82.7 126.7V121.7H76.8719L77.7581 127.46L82.7 126.7ZM92.4 126.7L97.3462 125.968L96.7148 121.7H92.4V126.7ZM94.9 143.6V148.6H100.694L99.8462 142.868L94.9 143.6ZM129.4 143.6L124.771 145.49L126.041 148.6H129.4V143.6ZM122.5 126.7V121.7H115.058L117.871 128.59L122.5 126.7ZM132.3 126.7L136.85 124.627L135.516 121.7H132.3V126.7ZM140 143.6V148.6H147.773L144.55 141.527L140 143.6ZM133.9 107.8V102.8H103.9V107.8V112.8H133.9V107.8ZM103.9 107.8L98.9363 107.198L98.1363 113.798L103.1 114.4L108.064 115.002L108.864 108.402L103.9 107.8ZM103.1 114.4V119.4H139.2V114.4V109.4H103.1V114.4ZM139.2 114.4L134.238 113.787L133.238 121.887L138.2 122.5L143.162 123.113L144.162 115.013L139.2 114.4ZM138.2 122.5V117.5H58V122.5V127.5H138.2V122.5ZM58 122.5L62.9545 123.173L64.0545 115.073L59.1 114.4L54.1455 113.727L53.0455 121.827L58 122.5ZM59.1 114.4V119.4H94V114.4V109.4H59.1V114.4ZM94 114.4L98.9637 115.002L99.7637 108.402L94.8 107.8L89.8363 107.198L89.0363 113.798L94 114.4ZM94.8 107.8V102.8H65.5V107.8V112.8H94.8V107.8ZM65.5 107.8L70.4561 108.461L71.4561 100.961L66.5 100.3L61.5439 99.6392L60.5439 107.139L65.5 107.8ZM66.5 100.3V105.3H95.7V100.3V95.3H66.5V100.3ZM95.7 100.3L100.659 100.94L101.459 94.7399L96.5 94.1L91.5411 93.4601L90.7411 99.6601L95.7 100.3ZM96.5 94.1V89.1H66.3V94.1V99.1H96.5V94.1ZM66.3 94.1L71.2665 94.6775L74.2665 68.8775L69.3 68.3L64.3335 67.7225L61.3335 93.5225L66.3 94.1ZM69.3 68.3L74.2497 69.0071C74.4584 67.5462 74.8995 67.0777 75.1035 66.9096C75.3477 66.7086 76.0408 66.3 77.8 66.3V61.3V56.3C74.5592 56.3 71.3357 57.0581 68.7465 59.1903C66.1172 61.3556 64.8082 64.3871 64.3503 67.5929L69.3 68.3ZM77.8 61.3V66.3H130.5V61.3V56.3H77.8V61.3ZM130.5 61.3V66.3C132.897 66.3 133.572 66.8416 133.624 66.8905C133.628 66.8937 133.671 66.9198 133.727 67.1002C133.795 67.3205 133.879 67.788 133.815 68.6116L138.8 69L143.785 69.3884C144.057 65.8901 143.301 62.2267 140.426 59.5595C137.712 57.0418 134.036 56.3 130.5 56.3V61.3ZM138.8 69L133.833 68.4261L130.933 93.5261L135.9 94.1L140.867 94.6739L143.767 69.5739L138.8 69ZM135.9 94.1V89.1H105.7V94.1V99.1H135.9V94.1ZM105.7 94.1L100.741 93.4601L99.9411 99.6601L104.9 100.3L109.859 100.94L110.659 94.7399L105.7 94.1ZM104.9 100.3V105.3H134.9V100.3V95.3H104.9V100.3ZM134.9 100.3L129.944 99.6392L128.944 107.139L133.9 107.8L138.856 108.461L139.856 100.961L134.9 100.3ZM99.6 69.1V64.1H78.7V69.1V74.1H99.6V69.1ZM78.7 69.1L73.7369 68.494L71.6369 85.694L76.6 86.3L81.5631 86.906L83.6631 69.706L78.7 69.1ZM76.6 86.3V91.3H97.4V86.3V81.3H76.6V86.3ZM97.4 86.3L102.36 86.9344L104.56 69.7344L99.6 69.1L94.6404 68.4656L92.4404 85.6656L97.4 86.3ZM106.6 86.3V91.3H127.1V86.3V81.3H106.6V86.3ZM127.1 86.3L132.06 86.9344L134.26 69.7344L129.3 69.1L124.34 68.4656L122.14 85.6656L127.1 86.3ZM129.3 69.1V64.1H108.8V69.1V74.1H129.3V69.1ZM108.8 69.1L103.84 68.4656L101.64 85.6656L106.6 86.3L111.56 86.9344L113.76 69.7344L108.8 69.1ZM82.3 71.7V76.7H90.1V71.7V66.7H82.3V71.7ZM90.1 71.7L85.2848 73.0466L88.5848 84.8466L93.4 83.5L98.2152 82.1534L94.9152 70.3534L90.1 71.7ZM93.4 83.5V78.5H85.5V83.5V88.5H93.4V83.5ZM85.5 83.5L90.3257 82.1913L87.1257 70.3913L82.3 71.7L77.4743 73.0087L80.6743 84.8087L85.5 83.5ZM111.1 83.5L115.603 85.6726L121.103 74.2726L116.6 72.1L112.097 69.9274L106.597 81.3274L111.1 83.5ZM116.6 72.1V77.1H124.7V72.1V67.1H116.6V72.1ZM124.7 72.1L120.151 70.025L114.951 81.425L119.5 83.5L124.049 85.575L129.249 74.175L124.7 72.1ZM119.5 83.5V78.5H111.1V83.5V88.5H119.5V83.5ZM107.1 143.6L111.904 142.215L107.004 125.215L102.2 126.6L97.3956 127.985L102.296 144.985L107.1 143.6ZM102.2 126.6V131.6H111.4V126.6V121.6H102.2V126.6ZM111.4 126.6L106.635 128.114L112.035 145.114L116.8 143.6L121.565 142.086L116.165 125.086L111.4 126.6ZM116.8 143.6V138.6H107.1V143.6V148.6H116.8V143.6ZM56.2 143.6L60.5805 146.011L69.8805 129.111L65.5 126.7L61.1195 124.289L51.8195 141.189L56.2 143.6ZM65.5 126.7V131.7H75.6V126.7V121.7H65.5V126.7ZM75.6 126.7L71.1438 124.432L62.5438 141.332L67 143.6L71.4562 145.868L80.0562 128.968L75.6 126.7ZM67 143.6V138.6H56.2V143.6V148.6H67V143.6ZM85.3 143.6L90.2419 142.84L87.6419 125.94L82.7 126.7L77.7581 127.46L80.3581 144.36L85.3 143.6ZM82.7 126.7V131.7H92.4V126.7V121.7H82.7V126.7ZM92.4 126.7L87.4538 127.432L89.9538 144.332L94.9 143.6L99.8462 142.868L97.3462 125.968L92.4 126.7ZM94.9 143.6V138.6H85.3V143.6V148.6H94.9V143.6ZM129.4 143.6L134.029 141.71L127.129 124.81L122.5 126.7L117.871 128.59L124.771 145.49L129.4 143.6ZM122.5 126.7V131.7H132.3V126.7V121.7H122.5V126.7ZM132.3 126.7L127.75 128.773L135.45 145.673L140 143.6L144.55 141.527L136.85 124.627L132.3 126.7ZM140 143.6V138.6H129.4V143.6V148.6H140V143.6ZM240.7 82.5V87.5H245.09L245.658 83.1467L240.7 82.5ZM224.6 82.5V77.5H220.063L219.623 82.0162L224.6 82.5ZM223.9 89.7L228.863 90.3077L228.871 90.2458L228.877 90.1838L223.9 89.7ZM222.6 98.2L217.692 97.2456L216.534 103.2H222.6V98.2ZM243.3 98.2L248.259 98.8399L248.987 93.2H243.3V98.2ZM242.1 107.5V112.5H246.496L247.059 108.14L242.1 107.5ZM222.7 107.5V102.5H215.81L217.947 109.051L222.7 107.5ZM243.1 140.6L245.18 145.147L251.7 142.164L246.648 137.077L243.1 140.6ZM233.7 144.9L229.994 148.256L232.451 150.97L235.78 149.447L233.7 144.9ZM224.5 132.1L220.173 134.605L220.18 134.618L220.187 134.63L224.5 132.1ZM217.1 116.4L221.789 114.663L217.364 102.716L212.482 114.484L217.1 116.4ZM207 133.1L210.805 136.344L210.811 136.337L207 133.1ZM195.2 144.7L193.12 149.247L195.983 150.556L198.401 148.541L195.2 144.7ZM185.8 140.4L182.942 136.297L175.756 141.304L183.72 144.947L185.8 140.4ZM201 126.2L204.928 129.293L204.938 129.282L204.947 129.27L201 126.2ZM211 107.5L215.721 109.148L218.041 102.5H211V107.5ZM193.4 107.5L188.429 106.965L187.834 112.5H193.4V107.5ZM194.4 98.2V93.2H189.909L189.429 97.6654L194.4 98.2ZM213.5 98.2V103.2H217.363L218.338 99.4621L213.5 98.2ZM214.9 89.7L219.859 90.3399L219.873 90.2278L219.883 90.1152L214.9 89.7ZM215.5 82.5L220.483 82.9152L220.934 77.5H215.5V82.5ZM205.5 82.5V77.5H201.839L200.734 80.9898L205.5 82.5ZM202.3 92.6V97.6H205.961L207.066 94.1102L202.3 92.6ZM192.8 92.6L188.109 90.8703L185.627 97.6H192.8V92.6ZM202.1 63.3V58.3H198.146L197.235 62.1477L202.1 63.3ZM210.7 63.3L215.578 64.3976L216.95 58.3H210.7V63.3ZM208.1 73.3L203.289 71.937L201.487 78.3H208.1V73.3ZM216.4 73.3V78.3H220.949L221.378 73.7709L216.4 73.3ZM217.8 58.5V53.5H213.251L212.822 58.0291L217.8 58.5ZM227.2 58.5L232.171 59.0374L232.77 53.5H227.2V58.5ZM225.6 73.3L220.629 72.7626L220.03 78.3H225.6V73.3ZM241.9 73.3L246.858 73.9467L247.595 68.3H241.9V73.3ZM194.9 67L199.818 67.9044L200.903 62H194.9V67ZM193.3 75.7V80.7H197.464L198.218 76.6044L193.3 75.7ZM165.4 71.1L170.099 72.8087L170.102 72.8012L170.104 72.7936L165.4 71.1ZM169.9 58.6V53.6H166.386L165.196 56.9064L169.9 58.6ZM179.8 58.6L184.608 59.9736L186.429 53.6H179.8V58.6ZM177.4 67L172.592 65.6264L170.771 72H177.4V67ZM190.8 104.9L195.767 105.471L196.408 99.9H190.8V104.9ZM189.8 113.6V118.6H194.258L194.767 114.171L189.8 113.6ZM177.6 113.6V108.6H173.161L172.635 113.008L177.6 113.6ZM175.8 128.7L170.835 128.108L170.8 128.403V128.7H175.8ZM176.7 130.4V135.4H177.316L177.913 135.251L176.7 130.4ZM177.5 130.2L178.713 135.051L178.957 134.99L179.194 134.904L177.5 130.2ZM188 125.9L192.969 126.452L193.941 117.707L185.931 121.348L188 125.9ZM186.9 135.8L188.886 140.389L191.549 139.236L191.869 136.352L186.9 135.8ZM172.7 140.7L171.412 135.869L171.337 135.889L171.263 135.911L172.7 140.7ZM166.8 139.1L162.747 142.027L162.761 142.047L162.775 142.066L166.8 139.1ZM165.9 134.1L170.861 134.72L170.862 134.713L170.863 134.705L165.9 134.1ZM168.4 113.6L173.363 114.205L174.047 108.6H168.4V113.6ZM158.5 113.6L153.533 113.029L152.892 118.6H158.5V113.6ZM159.5 104.9V99.9H155.042L154.533 104.329L159.5 104.9ZM169.4 104.9V109.9H173.794L174.359 105.543L169.4 104.9ZM170.8 94.1L175.759 94.7428L176.49 89.1H170.8V94.1ZM161.5 94.1L156.533 93.5225L155.885 99.1H161.5V94.1ZM162.5 85.5V80.5H158.048L157.533 84.9225L162.5 85.5ZM191.4 85.5L196.367 86.0775L197.015 80.5H191.4V85.5ZM190.4 94.1V99.1H194.852L195.367 94.6775L190.4 94.1ZM180 94.1V89.1H175.566L175.036 93.5025L180 94.1ZM178.7 104.9L173.736 104.302L173.062 109.9H178.7V104.9ZM240.7 82.5V77.5H224.6V82.5V87.5H240.7V82.5ZM224.6 82.5L219.623 82.0162L218.923 89.2162L223.9 89.7L228.877 90.1838L229.577 82.9838L224.6 82.5ZM223.9 89.7L218.937 89.0923C218.547 92.2796 218.13 94.9919 217.692 97.2456L222.6 98.2L227.508 99.1544C228.003 96.6081 228.453 93.6537 228.863 90.3077L223.9 89.7ZM222.6 98.2V103.2H243.3V98.2V93.2H222.6V98.2ZM243.3 98.2L238.341 97.5601L237.141 106.86L242.1 107.5L247.059 108.14L248.259 98.8399L243.3 98.2ZM242.1 107.5V102.5H222.7V107.5V112.5H242.1V107.5ZM222.7 107.5L217.947 109.051C222.263 122.284 229.486 133.987 239.552 144.123L243.1 140.6L246.648 137.077C237.647 128.013 231.27 117.649 227.453 105.949L222.7 107.5ZM243.1 140.6L241.02 136.053L231.62 140.353L233.7 144.9L235.78 149.447L245.18 145.147L243.1 140.6ZM233.7 144.9L237.406 141.544C234.479 138.312 231.608 134.335 228.813 129.57L224.5 132.1L220.187 134.63C223.258 139.865 226.521 144.422 229.994 148.256L233.7 144.9ZM224.5 132.1L228.827 129.595C226.034 124.77 223.689 119.793 221.789 114.663L217.1 116.4L212.411 118.137C214.511 123.807 217.1 129.297 220.173 134.605L224.5 132.1ZM217.1 116.4L212.482 114.484C210.068 120.301 206.966 125.416 203.189 129.863L207 133.1L210.811 136.337C215.301 131.05 218.932 125.032 221.718 118.316L217.1 116.4ZM207 133.1L203.195 129.856C199.925 133.692 196.197 137.361 191.999 140.859L195.2 144.7L198.401 148.541C203.003 144.706 207.142 140.641 210.805 136.344L207 133.1ZM195.2 144.7L197.28 140.153L187.88 135.853L185.8 140.4L183.72 144.947L193.12 149.247L195.2 144.7ZM185.8 140.4L188.658 144.503C194.97 140.106 200.404 135.039 204.928 129.293L201 126.2L197.072 123.107C193.196 128.028 188.497 132.427 182.942 136.297L185.8 140.4ZM201 126.2L204.947 129.27C209.51 123.402 213.092 116.679 215.721 109.148L211 107.5L206.279 105.852C203.975 112.454 200.89 118.198 197.053 123.13L201 126.2ZM211 107.5V102.5H193.4V107.5V112.5H211V107.5ZM193.4 107.5L198.371 108.035L199.371 98.7346L194.4 98.2L189.429 97.6654L188.429 106.965L193.4 107.5ZM194.4 98.2V103.2H213.5V98.2V93.2H194.4V98.2ZM213.5 98.2L218.338 99.4621C218.829 97.5812 219.328 94.4517 219.859 90.3399L214.9 89.7L209.941 89.0601C209.405 93.215 208.971 95.7521 208.662 96.9379L213.5 98.2ZM214.9 89.7L219.883 90.1152L220.483 82.9152L215.5 82.5L210.517 82.0848L209.917 89.2848L214.9 89.7ZM215.5 82.5V77.5H205.5V82.5V87.5H215.5V82.5ZM205.5 82.5L200.734 80.9898L197.534 91.0898L202.3 92.6L207.066 94.1102L210.266 84.0102L205.5 82.5ZM202.3 92.6V87.6H192.8V92.6V97.6H202.3V92.6ZM192.8 92.6L197.491 94.3297C201.924 82.309 205.099 72.3308 206.965 64.4523L202.1 63.3L197.235 62.1477C195.501 69.4692 192.476 79.0244 188.109 90.8703L192.8 92.6ZM202.1 63.3V68.3H210.7V63.3V58.3H202.1V63.3ZM210.7 63.3L205.822 62.2024C205.249 64.747 204.409 67.9847 203.289 71.937L208.1 73.3L212.911 74.663C214.057 70.6152 214.951 67.1863 215.578 64.3976L210.7 63.3ZM208.1 73.3V78.3H216.4V73.3V68.3H208.1V73.3ZM216.4 73.3L221.378 73.7709L222.778 58.9709L217.8 58.5L212.822 58.0291L211.422 72.8291L216.4 73.3ZM217.8 58.5V63.5H227.2V58.5V53.5H217.8V58.5ZM227.2 58.5L222.229 57.9626L220.629 72.7626L225.6 73.3L230.571 73.8374L232.171 59.0374L227.2 58.5ZM225.6 73.3V78.3H241.9V73.3V68.3H225.6V73.3ZM241.9 73.3L236.942 72.6533L235.742 81.8533L240.7 82.5L245.658 83.1467L246.858 73.9467L241.9 73.3ZM194.9 67L189.982 66.0956L188.382 74.7956L193.3 75.7L198.218 76.6044L199.818 67.9044L194.9 67ZM193.3 75.7V70.7H168.3V75.7V80.7H193.3V75.7ZM168.3 75.7V70.7C167.657 70.7 168.079 70.5566 168.766 71.0563C169.163 71.3452 169.52 71.762 169.752 72.2667C169.97 72.7439 170 73.1306 170 73.3H165H160C160 75.3788 160.801 77.6287 162.884 79.1437C164.671 80.4434 166.743 80.7 168.3 80.7V75.7ZM165 73.3H170C170 73.1859 170.019 73.0297 170.099 72.8087L165.4 71.1L160.701 69.3913C160.248 70.637 160 71.9475 160 73.3H165ZM165.4 71.1L170.104 72.7936L174.604 60.2936L169.9 58.6L165.196 56.9064L160.696 69.4064L165.4 71.1ZM169.9 58.6V63.6H179.8V58.6V53.6H169.9V58.6ZM179.8 58.6L174.992 57.2264L172.592 65.6264L177.4 67L182.208 68.3736L184.608 59.9736L179.8 58.6ZM177.4 67V72H194.9V67V62H177.4V67ZM190.8 104.9L185.833 104.329L184.833 113.029L189.8 113.6L194.767 114.171L195.767 105.471L190.8 104.9ZM189.8 113.6V108.6H177.6V113.6V118.6H189.8V113.6ZM177.6 113.6L172.635 113.008L170.835 128.108L175.8 128.7L180.765 129.292L182.565 114.192L177.6 113.6ZM175.8 128.7H170.8V129H175.8H180.8V128.7H175.8ZM175.8 129H170.8C170.8 129.842 170.906 131.334 171.819 132.754C172.975 134.552 174.864 135.4 176.7 135.4V130.4V125.4C177.204 125.4 177.89 125.501 178.608 125.874C179.343 126.255 179.879 126.799 180.231 127.346C180.561 127.859 180.691 128.314 180.745 128.565C180.8 128.82 180.8 128.981 180.8 129H175.8ZM176.7 130.4L177.913 135.251L178.713 135.051L177.5 130.2L176.287 125.349L175.487 125.549L176.7 130.4ZM177.5 130.2L179.194 134.904C182.67 133.653 186.296 132.167 190.069 130.452L188 125.9L185.931 121.348C182.371 122.966 178.997 124.347 175.806 125.496L177.5 130.2ZM188 125.9L183.031 125.348L181.931 135.248L186.9 135.8L191.869 136.352L192.969 126.452L188 125.9ZM186.9 135.8L184.914 131.211C180.687 133.041 176.188 134.595 171.412 135.869L172.7 140.7L173.988 145.531C179.212 144.138 184.179 142.426 188.886 140.389L186.9 135.8ZM172.7 140.7L171.263 135.911C171.042 135.977 170.859 136 170.7 136V141V146C171.874 146 173.025 145.823 174.137 145.489L172.7 140.7ZM170.7 141V136C170.6 136 170.559 135.991 170.563 135.991C170.569 135.993 170.608 136.002 170.665 136.03C170.723 136.058 170.772 136.092 170.809 136.123C170.843 136.153 170.847 136.163 170.825 136.134L166.8 139.1L162.775 142.066C164.714 144.698 167.555 146 170.7 146V141ZM166.8 139.1L170.853 136.173C171.003 136.38 170.681 136.161 170.861 134.72L165.9 134.1L160.939 133.48C160.585 136.306 160.864 139.42 162.747 142.027L166.8 139.1ZM165.9 134.1L170.863 134.705L173.363 114.205L168.4 113.6L163.437 112.995L160.937 133.495L165.9 134.1ZM168.4 113.6V108.6H158.5V113.6V118.6H168.4V113.6ZM158.5 113.6L163.467 114.171L164.467 105.471L159.5 104.9L154.533 104.329L153.533 113.029L158.5 113.6ZM159.5 104.9V109.9H169.4V104.9V99.9H159.5V104.9ZM169.4 104.9L174.359 105.543L175.759 94.7428L170.8 94.1L165.841 93.4572L164.441 104.257L169.4 104.9ZM170.8 94.1V89.1H161.5V94.1V99.1H170.8V94.1ZM161.5 94.1L166.467 94.6775L167.467 86.0775L162.5 85.5L157.533 84.9225L156.533 93.5225L161.5 94.1ZM162.5 85.5V90.5H191.4V85.5V80.5H162.5V85.5ZM191.4 85.5L186.433 84.9225L185.433 93.5225L190.4 94.1L195.367 94.6775L196.367 86.0775L191.4 85.5ZM190.4 94.1V89.1H180V94.1V99.1H190.4V94.1ZM180 94.1L175.036 93.5025L173.736 104.302L178.7 104.9L183.664 105.498L184.964 94.6975L180 94.1ZM178.7 104.9V109.9H190.8V104.9V99.9H178.7V104.9Z" fill="#171515" mask="url(#path-4-outside-1_14_62)"/>
</svg>
